<svg width="70" height="70" viewBox="0 0 70 70" fill="none" xmlns="http://www.w3.org/2000/svg">
<g clip-path="url(#clip0_3675_4923)">
<path d="M4.26829 55.2439V57H2.51219V55.2439H4.26829ZM4.26829 53.4878V55.2439H2.51219V53.4878H4.26829ZM4.26829 51.7317V53.4878H2.51219V51.7317H4.26829ZM4.26829 49.9756V51.7317H2.51219V49.9756H4.26829ZM4.26829 48.2195V49.9756H2.51219V48.2195H4.26829ZM4.26829 46.4634V48.2195H2.51219V46.4634H4.26829ZM4.26829 44.7073V46.4634H2.51219V44.7073H4.26829ZM4.26829 42.9512V44.7073H2.51219V42.9512H4.26829ZM4.26829 41.1951V42.9512H2.51219V41.1951H4.26829ZM4.26829 39.439V41.1951H2.51219V39.439H4.26829ZM4.26829 37.6829V39.439H2.51219V37.6829H4.26829ZM4.26829 35.9268V37.6829H2.51219V35.9268H4.26829ZM4.26829 34.1707V35.9268H2.51219V34.1707H4.26829ZM4.26829 32.4146V34.1707H2.51219V32.4146H4.26829ZM4.26829 30.6585V32.4146H2.51219V30.6585H4.26829ZM6.02439 30.6585V32.4146H4.26829V30.6585H6.02439ZM6.02439 32.4146V34.1707H4.26829V32.4146H6.02439ZM6.02439 34.1707V35.9268H4.26829V34.1707H6.02439ZM6.02439 35.9268V37.6829H4.26829V35.9268H6.02439ZM6.02439 37.6829V39.439H4.26829V37.6829H6.02439ZM6.02439 39.439V41.1951H4.26829V39.439H6.02439ZM6.02439 41.1951V42.9512H4.26829V41.1951H6.02439ZM7.78049 42.9512V44.7073H6.02439V42.9512H7.78049ZM7.78049 44.7073V46.4634H6.02439V44.7073H7.78049ZM7.78049 46.4634V48.2195H6.02439V46.4634H7.78049ZM7.78049 48.2195V49.9756H6.02439V48.2195H7.78049ZM7.78049 49.9756V51.7317H6.02439V49.9756H7.78049ZM7.78049 51.7317V53.4878H6.02439V51.7317H7.78049ZM7.78049 53.4878V55.2439H6.02439V53.4878H7.78049ZM7.78049 55.2439V57H6.02439V55.2439H7.78049ZM9.53658 55.2439V57H7.78049V55.2439H9.53658ZM11.2927 55.2439V57H9.53658V55.2439H11.2927ZM11.2927 53.4878V55.2439H9.53658V53.4878H11.2927ZM11.2927 51.7317V53.4878H9.53658V51.7317H11.2927ZM11.2927 49.9756V51.7317H9.53658V49.9756H11.2927ZM11.2927 48.2195V49.9756H9.53658V48.2195H11.2927ZM11.2927 46.4634V48.2195H9.53658V46.4634H11.2927ZM11.2927 44.7073V46.4634H9.53658V44.7073H11.2927ZM11.2927 42.9512V44.7073H9.53658V42.9512H11.2927ZM9.53658 42.9512V44.7073H7.78049V42.9512H9.53658ZM9.53658 41.1951V42.9512H7.78049V41.1951H9.53658ZM9.53658 44.7073V46.4634H7.78049V44.7073H9.53658ZM9.53658 46.4634V48.2195H7.78049V46.4634H9.53658ZM9.53658 48.2195V49.9756H7.78049V48.2195H9.53658ZM9.53658 49.9756V51.7317H7.78049V49.9756H9.53658ZM9.53658 51.7317V53.4878H7.78049V51.7317H9.53658ZM9.53658 53.4878V55.2439H7.78049V53.4878H9.53658ZM6.02439 55.2439V57H4.26829V55.2439H6.02439ZM6.02439 53.4878V55.2439H4.26829V53.4878H6.02439ZM6.02439 51.7317V53.4878H4.26829V51.7317H6.02439ZM6.02439 49.9756V51.7317H4.26829V49.9756H6.02439ZM6.02439 48.2195V49.9756H4.26829V48.2195H6.02439ZM6.02439 46.4634V48.2195H4.26829V46.4634H6.02439ZM6.02439 44.7073V46.4634H4.26829V44.7073H6.02439ZM6.02439 42.9512V44.7073H4.26829V42.9512H6.02439ZM4.26829 25.3902V27.1463H2.51219V25.3902H4.26829ZM4.26829 27.1463V28.9024H2.51219V27.1463H4.26829ZM4.26829 28.9024V30.6585H2.51219V28.9024H4.26829ZM9.53658 21.8781V23.6341H7.78049V21.8781H9.53658ZM9.53658 25.3902V27.1463H7.78049V25.3902H9.53658ZM9.53658 27.1463V28.9024H7.78049V27.1463H9.53658ZM9.53658 28.9024V30.6585H7.78049V28.9024H9.53658ZM9.53658 30.6585V32.4146H7.78049V30.6585H9.53658ZM9.53658 32.4146V34.1707H7.78049V32.4146H9.53658ZM9.53658 34.1707V35.9268H7.78049V34.1707H9.53658ZM9.53658 35.9268V37.6829H7.78049V35.9268H9.53658ZM11.2927 37.6829V39.439H9.53658V37.6829H11.2927ZM11.2927 39.439V41.1951H9.53658V39.439H11.2927ZM11.2927 41.1951V42.9512H9.53658V41.1951H11.2927ZM11.2927 35.9268V37.6829H9.53658V35.9268H11.2927ZM11.2927 34.1707V35.9268H9.53658V34.1707H11.2927ZM11.2927 32.4146V34.1707H9.53658V32.4146H11.2927ZM11.2927 30.6585V32.4146H9.53658V30.6585H11.2927ZM11.2927 28.9024V30.6585H9.53658V28.9024H11.2927ZM11.2927 27.1463V28.9024H9.53658V27.1463H11.2927ZM11.2927 25.3902V27.1463H9.53658V25.3902H11.2927ZM11.2927 23.6341V25.3902H9.53658V23.6341H11.2927ZM11.2927 21.8781V23.6341H9.53658V21.8781H11.2927ZM11.2927 20.122V21.8781H9.53658V20.122H11.2927ZM9.53658 23.6341V25.3902H7.78049V23.6341H9.53658ZM11.2927 18.3659V20.122H9.53658V18.3659H11.2927ZM11.2927 16.6098V18.3659H9.53658V16.6098H11.2927ZM7.78049 21.8781V23.6341H6.02439V21.8781H7.78049ZM7.78049 23.6341V25.3902H6.02439V23.6341H7.78049ZM7.78049 25.3902V27.1463H6.02439V25.3902H7.78049ZM6.02439 27.1463V28.9024H4.26829V27.1463H6.02439ZM6.02439 28.9024V30.6585H4.26829V28.9024H6.02439ZM6.02439 25.3902V27.1463H4.26829V25.3902H6.02439ZM6.02439 23.6341V25.3902H4.26829V23.6341H6.02439ZM7.78049 27.1463V28.9024H6.02439V27.1463H7.78049ZM7.78049 28.9024V30.6585H6.02439V28.9024H7.78049ZM7.78049 30.6585V32.4146H6.02439V30.6585H7.78049ZM7.78049 32.4146V34.1707H6.02439V32.4146H7.78049ZM7.78049 34.1707V35.9268H6.02439V34.1707H7.78049ZM7.78049 35.9268V37.6829H6.02439V35.9268H7.78049ZM7.78049 37.6829V39.439H6.02439V37.6829H7.78049ZM7.78049 39.439V41.1951H6.02439V39.439H7.78049ZM7.78049 41.1951V42.9512H6.02439V41.1951H7.78049ZM9.53658 39.439V41.1951H7.78049V39.439H9.53658ZM9.53658 37.6829V39.439H7.78049V37.6829H9.53658ZM23.5854 55.2439V57H21.8293V55.2439H23.5854ZM23.5854 53.4878V55.2439H21.8293V53.4878H23.5854ZM23.5854 51.7317V53.4878H21.8293V51.7317H23.5854ZM23.5854 49.9756V51.7317H21.8293V49.9756H23.5854ZM23.5854 48.2195V49.9756H21.8293V48.2195H23.5854ZM23.5854 46.4634V48.2195H21.8293V46.4634H23.5854ZM23.5854 44.7073V46.4634H21.8293V44.7073H23.5854ZM23.5854 42.9512V44.7073H21.8293V42.9512H23.5854ZM23.5854 41.1951V42.9512H21.8293V41.1951H23.5854ZM23.5854 39.439V41.1951H21.8293V39.439H23.5854ZM23.5854 37.6829V39.439H21.8293V37.6829H23.5854ZM23.5854 35.9268V37.6829H21.8293V35.9268H23.5854ZM23.5854 34.1707V35.9268H21.8293V34.1707H23.5854ZM23.5854 32.4146V34.1707H21.8293V32.4146H23.5854ZM23.5854 30.6585V32.4146H21.8293V30.6585H23.5854ZM25.3415 30.6585V32.4146H23.5854V30.6585H25.3415ZM25.3415 32.4146V34.1707H23.5854V32.4146H25.3415ZM25.3415 34.1707V35.9268H23.5854V34.1707H25.3415ZM25.3415 35.9268V37.6829H23.5854V35.9268H25.3415ZM25.3415 37.6829V39.439H23.5854V37.6829H25.3415ZM25.3415 39.439V41.1951H23.5854V39.439H25.3415ZM25.3415 41.1951V42.9512H23.5854V41.1951H25.3415ZM27.0976 42.9512V44.7073H25.3415V42.9512H27.0976ZM27.0976 44.7073V46.4634H25.3415V44.7073H27.0976ZM27.0976 46.4634V48.2195H25.3415V46.4634H27.0976ZM27.0976 48.2195V49.9756H25.3415V48.2195H27.0976ZM27.0976 49.9756V51.7317H25.3415V49.9756H27.0976ZM27.0976 51.7317V53.4878H25.3415V51.7317H27.0976ZM27.0976 53.4878V55.2439H25.3415V53.4878H27.0976ZM27.0976 55.2439V57H25.3415V55.2439H27.0976ZM28.8537 55.2439V57H27.0976V55.2439H28.8537ZM30.6098 55.2439V57H28.8537V55.2439H30.6098ZM30.6098 53.4878V55.2439H28.8537V53.4878H30.6098ZM30.6098 51.7317V53.4878H28.8537V51.7317H30.6098ZM30.6098 49.9756V51.7317H28.8537V49.9756H30.6098ZM30.6098 48.2195V49.9756H28.8537V48.2195H30.6098ZM30.6098 46.4634V48.2195H28.8537V46.4634H30.6098ZM30.6098 44.7073V46.4634H28.8537V44.7073H30.6098ZM30.6098 42.9512V44.7073H28.8537V42.9512H30.6098ZM28.8537 42.9512V44.7073H27.0976V42.9512H28.8537ZM28.8537 41.1951V42.9512H27.0976V41.1951H28.8537ZM28.8537 44.7073V46.4634H27.0976V44.7073H28.8537ZM28.8537 46.4634V48.2195H27.0976V46.4634H28.8537ZM28.8537 48.2195V49.9756H27.0976V48.2195H28.8537ZM28.8537 49.9756V51.7317H27.0976V49.9756H28.8537ZM28.8537 51.7317V53.4878H27.0976V51.7317H28.8537ZM28.8537 53.4878V55.2439H27.0976V53.4878H28.8537ZM25.3415 55.2439V57H23.5854V55.2439H25.3415ZM25.3415 53.4878V55.2439H23.5854V53.4878H25.3415ZM25.3415 51.7317V53.4878H23.5854V51.7317H25.3415ZM25.3415 49.9756V51.7317H23.5854V49.9756H25.3415ZM25.3415 48.2195V49.9756H23.5854V48.2195H25.3415ZM25.3415 46.4634V48.2195H23.5854V46.4634H25.3415ZM25.3415 44.7073V46.4634H23.5854V44.7073H25.3415ZM25.3415 42.9512V44.7073H23.5854V42.9512H25.3415ZM23.5854 16.6098V18.3659H21.8293V16.6098H23.5854ZM23.5854 18.3659V20.122H21.8293V18.3659H23.5854ZM23.5854 20.122V21.8781H21.8293V20.122H23.5854ZM23.5854 21.8781V23.6341H21.8293V21.8781H23.5854ZM23.5854 23.6341V25.3902H21.8293V23.6341H23.5854ZM23.5854 25.3902V27.1463H21.8293V25.3902H23.5854ZM23.5854 27.1463V28.9024H21.8293V27.1463H23.5854ZM23.5854 28.9024V30.6585H21.8293V28.9024H23.5854ZM28.8537 21.8781V23.6341H27.0976V21.8781H28.8537ZM28.8537 25.3902V27.1463H27.0976V25.3902H28.8537ZM28.8537 27.1463V28.9024H27.0976V27.1463H28.8537ZM28.8537 28.9024V30.6585H27.0976V28.9024H28.8537ZM28.8537 30.6585V32.4146H27.0976V30.6585H28.8537ZM28.8537 32.4146V34.1707H27.0976V32.4146H28.8537ZM28.8537 34.1707V35.9268H27.0976V34.1707H28.8537ZM28.8537 35.9268V37.6829H27.0976V35.9268H28.8537ZM30.6098 37.6829V39.439H28.8537V37.6829H30.6098ZM30.6098 39.439V41.1951H28.8537V39.439H30.6098ZM30.6098 41.1951V42.9512H28.8537V41.1951H30.6098ZM30.6098 35.9268V37.6829H28.8537V35.9268H30.6098ZM30.6098 34.1707V35.9268H28.8537V34.1707H30.6098ZM30.6098 32.4146V34.1707H28.8537V32.4146H30.6098ZM30.6098 30.6585V32.4146H28.8537V30.6585H30.6098ZM30.6098 28.9024V30.6585H28.8537V28.9024H30.6098ZM30.6098 27.1463V28.9024H28.8537V27.1463H30.6098ZM30.6098 25.3902V27.1463H28.8537V25.3902H30.6098ZM30.6098 23.6341V25.3902H28.8537V23.6341H30.6098ZM28.8537 23.6341V25.3902H27.0976V23.6341H28.8537ZM27.0976 20.122V21.8781H25.3415V20.122H27.0976ZM27.0976 21.8781V23.6341H25.3415V21.8781H27.0976ZM27.0976 23.6341V25.3902H25.3415V23.6341H27.0976ZM27.0976 25.3902V27.1463H25.3415V25.3902H27.0976ZM25.3415 27.1463V28.9024H23.5854V27.1463H25.3415ZM25.3415 28.9024V30.6585H23.5854V28.9024H25.3415ZM25.3415 25.3902V27.1463H23.5854V25.3902H25.3415ZM25.3415 23.6341V25.3902H23.5854V23.6341H25.3415ZM25.3415 21.8781V23.6341H23.5854V21.8781H25.3415ZM25.3415 20.122V21.8781H23.5854V20.122H25.3415ZM25.3415 18.3659V20.122H23.5854V18.3659H25.3415ZM27.0976 27.1463V28.9024H25.3415V27.1463H27.0976ZM27.0976 28.9024V30.6585H25.3415V28.9024H27.0976ZM27.0976 30.6585V32.4146H25.3415V30.6585H27.0976ZM27.0976 32.4146V34.1707H25.3415V32.4146H27.0976ZM27.0976 34.1707V35.9268H25.3415V34.1707H27.0976ZM27.0976 35.9268V37.6829H25.3415V35.9268H27.0976ZM27.0976 37.6829V39.439H25.3415V37.6829H27.0976ZM27.0976 39.439V41.1951H25.3415V39.439H27.0976ZM27.0976 41.1951V42.9512H25.3415V41.1951H27.0976ZM28.8537 39.439V41.1951H27.0976V39.439H28.8537ZM28.8537 37.6829V39.439H27.0976V37.6829H28.8537ZM14.8049 13.0976V14.8537H13.0488V13.0976H14.8049ZM16.561 13.0976V14.8537H14.8049V13.0976H16.561ZM18.3171 13.0976V14.8537H16.561V13.0976H18.3171ZM20.0732 13.0976V14.8537H18.3171V13.0976H20.0732ZM21.8293 14.8537V16.6098H20.0732V14.8537H21.8293ZM20.0732 14.8537V16.6098H18.3171V14.8537H20.0732ZM18.3171 14.8537V16.6098H16.561V14.8537H18.3171ZM16.561 14.8537V16.6098H14.8049V14.8537H16.561ZM14.8049 14.8537V16.6098H13.0488V14.8537H14.8049ZM13.0488 14.8537V16.6098H11.2927V14.8537H13.0488ZM13.0488 16.6098V18.3659H11.2927V16.6098H13.0488ZM13.0488 18.3659V20.122H11.2927V18.3659H13.0488ZM14.8049 16.6098V18.3659H13.0488V16.6098H14.8049ZM16.561 16.6098V18.3659H14.8049V16.6098H16.561ZM18.3171 16.6098V18.3659H16.561V16.6098H18.3171ZM20.0732 16.6098V18.3659H18.3171V16.6098H20.0732ZM21.8293 16.6098V18.3659H20.0732V16.6098H21.8293ZM21.8293 18.3659V20.122H20.0732V18.3659H21.8293ZM20.0732 18.3659V20.122H18.3171V18.3659H20.0732ZM18.3171 18.3659V20.122H16.561V18.3659H18.3171ZM16.561 18.3659V20.122H14.8049V18.3659H16.561ZM14.8049 18.3659V20.122H13.0488V18.3659H14.8049ZM13.0488 20.122V21.8781H11.2927V20.122H13.0488ZM14.8049 20.122V21.8781H13.0488V20.122H14.8049ZM21.8293 20.122V21.8781H20.0732V20.122H21.8293ZM20.0732 20.122V21.8781H18.3171V20.122H20.0732ZM21.8293 21.8781V23.6341H20.0732V21.8781H21.8293ZM13.0488 21.8781V23.6341H11.2927V21.8781H13.0488ZM9.53658 18.3659V20.122H7.78049V18.3659H9.53658ZM9.53658 20.122V21.8781H7.78049V20.122H9.53658ZM7.78049 20.122V21.8781H6.02439V20.122H7.78049ZM6.02439 21.8781V23.6341H4.26829V21.8781H6.02439ZM4.26829 23.6341V25.3902H2.51219V23.6341H4.26829ZM13.0488 23.6341V25.3902H11.2927V23.6341H13.0488ZM14.8049 21.8781V23.6341H13.0488V21.8781H14.8049ZM16.561 20.122V21.8781H14.8049V20.122H16.561ZM18.3171 20.122V21.8781H16.561V20.122H18.3171ZM20.0732 21.8781V23.6341H18.3171V21.8781H20.0732ZM21.8293 23.6341V25.3902H20.0732V23.6341H21.8293ZM13.0488 44.7073V46.4634H11.2927V44.7073H13.0488ZM14.8049 44.7073V46.4634H13.0488V44.7073H14.8049ZM16.561 44.7073V46.4634H14.8049V44.7073H16.561ZM18.3171 44.7073V46.4634H16.561V44.7073H18.3171ZM20.0732 44.7073V46.4634H18.3171V44.7073H20.0732ZM21.8293 44.7073V46.4634H20.0732V44.7073H21.8293ZM21.8293 42.9512V44.7073H20.0732V42.9512H21.8293ZM20.0732 42.9512V44.7073H18.3171V42.9512H20.0732ZM18.3171 42.9512V44.7073H16.561V42.9512H18.3171ZM16.561 42.9512V44.7073H14.8049V42.9512H16.561ZM14.8049 42.9512V44.7073H13.0488V42.9512H14.8049ZM13.0488 42.9512V44.7073H11.2927V42.9512H13.0488ZM13.0488 41.1951V42.9512H11.2927V41.1951H13.0488ZM14.8049 41.1951V42.9512H13.0488V41.1951H14.8049ZM16.561 41.1951V42.9512H14.8049V41.1951H16.561ZM18.3171 41.1951V42.9512H16.561V41.1951H18.3171ZM20.0732 41.1951V42.9512H18.3171V41.1951H20.0732ZM21.8293 41.1951V42.9512H20.0732V41.1951H21.8293ZM21.8293 39.439V41.1951H20.0732V39.439H21.8293ZM20.0732 39.439V41.1951H18.3171V39.439H20.0732ZM18.3171 39.439V41.1951H16.561V39.439H18.3171ZM16.561 39.439V41.1951H14.8049V39.439H16.561ZM14.8049 39.439V41.1951H13.0488V39.439H14.8049ZM13.0488 39.439V41.1951H11.2927V39.439H13.0488ZM13.0488 37.6829V39.439H11.2927V37.6829H13.0488ZM14.8049 37.6829V39.439H13.0488V37.6829H14.8049ZM16.561 37.6829V39.439H14.8049V37.6829H16.561ZM18.3171 37.6829V39.439H16.561V37.6829H18.3171ZM20.0732 37.6829V39.439H18.3171V37.6829H20.0732ZM21.8293 37.6829V39.439H20.0732V37.6829H21.8293ZM16.561 21.8781V23.6341H14.8049V21.8781H16.561ZM18.3171 21.8781V23.6341H16.561V21.8781H18.3171ZM14.8049 23.6341V25.3902H13.0488V23.6341H14.8049ZM13.0488 25.3902V27.1463H11.2927V25.3902H13.0488ZM20.0732 23.6341V25.3902H18.3171V23.6341H20.0732ZM21.8293 25.3902V27.1463H20.0732V25.3902H21.8293Z" fill="#EAF0FF"/>
<path d="M39.4245 48.2195V49.9756H37.6684V48.2195H39.4245ZM39.4245 46.4634V48.2195H37.6684V46.4634H39.4245ZM39.4245 44.7073V46.4634H37.6684V44.7073H39.4245ZM39.4245 42.9512V44.7073H37.6684V42.9512H39.4245ZM39.4245 41.1951V42.9512H37.6684V41.1951H39.4245ZM39.4245 39.439V41.1951H37.6684V39.439H39.4245ZM39.4245 37.6829V39.439H37.6684V37.6829H39.4245ZM39.4245 35.9268V37.6829H37.6684V35.9268H39.4245ZM39.4245 34.1707V35.9268H37.6684V34.1707H39.4245ZM39.4245 32.4146V34.1707H37.6684V32.4146H39.4245ZM39.4245 30.6585V32.4146H37.6684V30.6585H39.4245ZM41.1806 30.6585V32.4146H39.4245V30.6585H41.1806ZM41.1806 32.4146V34.1707H39.4245V32.4146H41.1806ZM41.1806 34.1707V35.9268H39.4245V34.1707H41.1806ZM41.1806 35.9268V37.6829H39.4245V35.9268H41.1806ZM41.1806 37.6829V39.439H39.4245V37.6829H41.1806ZM41.1806 39.439V41.1951H39.4245V39.439H41.1806ZM41.1806 41.1951V42.9512H39.4245V41.1951H41.1806ZM42.9367 42.9512V44.7073H41.1806V42.9512H42.9367ZM42.9367 44.7073V46.4634H41.1806V44.7073H42.9367ZM42.9367 46.4634V48.2195H41.1806V46.4634H42.9367ZM42.9367 48.2195V49.9756H41.1806V48.2195H42.9367ZM42.9367 49.9756V51.7317H41.1806V49.9756H42.9367ZM42.9367 51.7317V53.4878H41.1806V51.7317H42.9367ZM42.9367 53.4878V55.2439H41.1806V53.4878H42.9367ZM46.4489 55.2439V57H44.6928V55.2439H46.4489ZM46.4489 53.4878V55.2439H44.6928V53.4878H46.4489ZM46.4489 51.7317V53.4878H44.6928V51.7317H46.4489ZM46.4489 49.9756V51.7317H44.6928V49.9756H46.4489ZM46.4489 48.2195V49.9756H44.6928V48.2195H46.4489ZM46.4489 46.4634V48.2195H44.6928V46.4634H46.4489ZM46.4489 44.7073V46.4634H44.6928V44.7073H46.4489ZM46.4489 42.9512V44.7073H44.6928V42.9512H46.4489ZM44.6928 42.9512V44.7073H42.9367V42.9512H44.6928ZM44.6928 41.1951V42.9512H42.9367V41.1951H44.6928ZM44.6928 44.7073V46.4634H42.9367V44.7073H44.6928ZM44.6928 46.4634V48.2195H42.9367V46.4634H44.6928ZM44.6928 48.2195V49.9756H42.9367V48.2195H44.6928ZM44.6928 49.9756V51.7317H42.9367V49.9756H44.6928ZM44.6928 51.7317V53.4878H42.9367V51.7317H44.6928ZM44.6928 53.4878V55.2439H42.9367V53.4878H44.6928ZM41.1806 51.7317V53.4878H39.4245V51.7317H41.1806ZM41.1806 49.9756V51.7317H39.4245V49.9756H41.1806ZM41.1806 48.2195V49.9756H39.4245V48.2195H41.1806ZM41.1806 46.4634V48.2195H39.4245V46.4634H41.1806ZM41.1806 44.7073V46.4634H39.4245V44.7073H41.1806ZM41.1806 42.9512V44.7073H39.4245V42.9512H41.1806ZM39.4245 28.9024V30.6585H37.6684V28.9024H39.4245ZM44.6928 28.9024V30.6585H42.9367V28.9024H44.6928ZM44.6928 30.6585V32.4146H42.9367V30.6585H44.6928ZM44.6928 32.4146V34.1707H42.9367V32.4146H44.6928ZM44.6928 34.1707V35.9268H42.9367V34.1707H44.6928ZM44.6928 35.9268V37.6829H42.9367V35.9268H44.6928ZM46.4489 37.6829V39.439H44.6928V37.6829H46.4489ZM46.4489 39.439V41.1951H44.6928V39.439H46.4489ZM46.4489 41.1951V42.9512H44.6928V41.1951H46.4489ZM46.4489 35.9268V37.6829H44.6928V35.9268H46.4489ZM46.4489 34.1707V35.9268H44.6928V34.1707H46.4489ZM46.4489 32.4146V34.1707H44.6928V32.4146H46.4489ZM46.4489 30.6585V32.4146H44.6928V30.6585H46.4489ZM46.4489 28.9024V30.6585H44.6928V28.9024H46.4489ZM41.1806 28.9024V30.6585H39.4245V28.9024H41.1806ZM42.9367 28.9024V30.6585H41.1806V28.9024H42.9367ZM42.9367 30.6585V32.4146H41.1806V30.6585H42.9367ZM42.9367 32.4146V34.1707H41.1806V32.4146H42.9367ZM42.9367 34.1707V35.9268H41.1806V34.1707H42.9367ZM42.9367 35.9268V37.6829H41.1806V35.9268H42.9367ZM42.9367 37.6829V39.439H41.1806V37.6829H42.9367ZM42.9367 39.439V41.1951H41.1806V39.439H42.9367ZM42.9367 41.1951V42.9512H41.1806V41.1951H42.9367ZM44.6928 39.439V41.1951H42.9367V39.439H44.6928ZM44.6928 37.6829V39.439H42.9367V37.6829H44.6928ZM60.4977 55.2439V57H58.7416V55.2439H60.4977ZM60.4977 53.4878V55.2439H58.7416V53.4878H60.4977ZM60.4977 51.7317V53.4878H58.7416V51.7317H60.4977ZM60.4977 49.9756V51.7317H58.7416V49.9756H60.4977ZM60.4977 48.2195V49.9756H58.7416V48.2195H60.4977ZM60.4977 46.4634V48.2195H58.7416V46.4634H60.4977ZM60.4977 44.7073V46.4634H58.7416V44.7073H60.4977ZM64.0099 44.7073V46.4634H62.2538V44.7073H64.0099ZM64.0099 46.4634V48.2195H62.2538V46.4634H64.0099ZM64.0099 48.2195V49.9756H62.2538V48.2195H64.0099ZM64.0099 49.9756V51.7317H62.2538V49.9756H64.0099ZM64.0099 51.7317V53.4878H62.2538V51.7317H64.0099ZM64.0099 53.4878V55.2439H62.2538V53.4878H64.0099ZM67.5221 48.2195V49.9756H65.766V48.2195H67.5221ZM67.5221 46.4634V48.2195H65.766V46.4634H67.5221ZM67.5221 44.7073V46.4634H65.766V44.7073H67.5221ZM65.766 44.7073V46.4634H64.0099V44.7073H65.766ZM65.766 46.4634V48.2195H64.0099V46.4634H65.766ZM65.766 48.2195V49.9756H64.0099V48.2195H65.766ZM65.766 49.9756V51.7317H64.0099V49.9756H65.766ZM65.766 51.7317V53.4878H64.0099V51.7317H65.766ZM62.2538 53.4878V55.2439H60.4977V53.4878H62.2538ZM62.2538 51.7317V53.4878H60.4977V51.7317H62.2538ZM62.2538 49.9756V51.7317H60.4977V49.9756H62.2538ZM62.2538 48.2195V49.9756H60.4977V48.2195H62.2538ZM62.2538 46.4634V48.2195H60.4977V46.4634H62.2538ZM62.2538 44.7073V46.4634H60.4977V44.7073H62.2538ZM48.205 55.2439V57H46.4489V55.2439H48.205ZM49.9611 55.2439V57H48.205V55.2439H49.9611ZM51.7172 55.2439V57H49.9611V55.2439H51.7172ZM53.4733 55.2439V57H51.7172V55.2439H53.4733ZM55.2294 55.2439V57H53.4733V55.2439H55.2294ZM58.7416 55.2439V57H56.9855V55.2439H58.7416ZM58.7416 53.4878V55.2439H56.9855V53.4878H58.7416ZM55.2294 53.4878V55.2439H53.4733V53.4878H55.2294ZM53.4733 53.4878V55.2439H51.7172V53.4878H53.4733ZM51.7172 53.4878V55.2439H49.9611V53.4878H51.7172ZM49.9611 53.4878V55.2439H48.205V53.4878H49.9611ZM48.205 53.4878V55.2439H46.4489V53.4878H48.205ZM48.205 51.7317V53.4878H46.4489V51.7317H48.205ZM49.9611 51.7317V53.4878H48.205V51.7317H49.9611ZM51.7172 51.7317V53.4878H49.9611V51.7317H51.7172ZM53.4733 51.7317V53.4878H51.7172V51.7317H53.4733ZM55.2294 51.7317V53.4878H53.4733V51.7317H55.2294ZM58.7416 51.7317V53.4878H56.9855V51.7317H58.7416ZM58.7416 49.9756V51.7317H56.9855V49.9756H58.7416ZM55.2294 49.9756V51.7317H53.4733V49.9756H55.2294ZM53.4733 49.9756V51.7317H51.7172V49.9756H53.4733ZM51.7172 49.9756V51.7317H49.9611V49.9756H51.7172ZM49.9611 49.9756V51.7317H48.205V49.9756H49.9611ZM48.205 49.9756V51.7317H46.4489V49.9756H48.205ZM48.205 48.2195V49.9756H46.4489V48.2195H48.205ZM58.7416 48.2195V49.9756H56.9855V48.2195H58.7416ZM65.766 21.8781V20.122H67.5221V21.8781H65.766ZM65.766 23.6341V21.8781H67.5221V23.6341H65.766ZM65.766 25.3902V23.6341H67.5221V25.3902H65.766ZM62.2538 25.3902V23.6341H64.0099V25.3902H62.2538ZM62.2538 23.6341V21.8781H64.0099V23.6341H62.2538ZM62.2538 21.8781V20.122H64.0099V21.8781H62.2538ZM62.2538 20.122V18.3659H64.0099V20.122H62.2538ZM62.2538 18.3659V16.6098H64.0099V18.3659H62.2538ZM62.2538 16.6098V14.8537H64.0099V16.6098H62.2538ZM58.7416 14.8537V13.0976H60.4977V14.8537H58.7416ZM58.7416 16.6098V14.8537H60.4977V16.6098H58.7416ZM58.7416 18.3659V16.6098H60.4977V18.3659H58.7416ZM58.7416 20.122V18.3659H60.4977V20.122H58.7416ZM58.7416 21.8781V20.122H60.4977V21.8781H58.7416ZM58.7416 23.6341V21.8781H60.4977V23.6341H58.7416ZM58.7416 25.3902V23.6341H60.4977V25.3902H58.7416ZM60.4977 25.3902V23.6341H62.2538V25.3902H60.4977ZM60.4977 23.6341V21.8781H62.2538V23.6341H60.4977ZM60.4977 21.8781V20.122H62.2538V21.8781H60.4977ZM60.4977 20.122V18.3659H62.2538V20.122H60.4977ZM60.4977 18.3659V16.6098H62.2538V18.3659H60.4977ZM60.4977 16.6098V14.8537H62.2538V16.6098H60.4977ZM64.0099 18.3659V16.6098H65.766V18.3659H64.0099ZM64.0099 20.122V18.3659H65.766V20.122H64.0099ZM64.0099 21.8781V20.122H65.766V21.8781H64.0099ZM64.0099 23.6341V21.8781H65.766V23.6341H64.0099ZM64.0099 25.3902V23.6341H65.766V25.3902H64.0099ZM44.6928 14.8537V13.0976H46.4489V14.8537H44.6928ZM44.6928 16.6098V14.8537H46.4489V16.6098H44.6928ZM44.6928 18.3659V16.6098H46.4489V18.3659H44.6928ZM44.6928 20.122V18.3659H46.4489V20.122H44.6928ZM44.6928 21.8781V20.122H46.4489V21.8781H44.6928ZM44.6928 23.6341V21.8781H46.4489V23.6341H44.6928ZM44.6928 25.3902V23.6341H46.4489V25.3902H44.6928ZM41.1806 25.3902V23.6341H42.9367V25.3902H41.1806ZM41.1806 23.6341V21.8781H42.9367V23.6341H41.1806ZM41.1806 21.8781V20.122H42.9367V21.8781H41.1806ZM41.1806 20.122V18.3659H42.9367V20.122H41.1806ZM41.1806 18.3659V16.6098H42.9367V18.3659H41.1806ZM41.1806 16.6098V14.8537H42.9367V16.6098H41.1806ZM37.6684 21.8781V20.122H39.4245V21.8781H37.6684ZM37.6684 23.6341V21.8781H39.4245V23.6341H37.6684ZM37.6684 25.3902V23.6341H39.4245V25.3902H37.6684ZM39.4245 25.3902V23.6341H41.1806V25.3902H39.4245ZM39.4245 23.6341V21.8781H41.1806V23.6341H39.4245ZM39.4245 21.8781V20.122H41.1806V21.8781H39.4245ZM39.4245 20.122V18.3659H41.1806V20.122H39.4245ZM39.4245 18.3659V16.6098H41.1806V18.3659H39.4245ZM42.9367 16.6098V14.8537H44.6928V16.6098H42.9367ZM42.9367 18.3659V16.6098H44.6928V18.3659H42.9367ZM42.9367 20.122V18.3659H44.6928V20.122H42.9367ZM42.9367 21.8781V20.122H44.6928V21.8781H42.9367ZM42.9367 23.6341V21.8781H44.6928V23.6341H42.9367ZM42.9367 25.3902V23.6341H44.6928V25.3902H42.9367ZM56.9855 14.8537V13.0976H58.7416V14.8537H56.9855ZM53.4733 14.8537V13.0976H55.2294V14.8537H53.4733ZM51.7172 14.8537V13.0976H53.4733V14.8537H51.7172ZM49.9611 14.8537V13.0976H51.7172V14.8537H49.9611ZM48.205 14.8537V13.0976H49.9611V14.8537H48.205ZM46.4489 14.8537V13.0976H48.205V14.8537H46.4489ZM46.4489 16.6098V14.8537H48.205V16.6098H46.4489ZM48.205 16.6098V14.8537H49.9611V16.6098H48.205ZM49.9611 16.6098V14.8537H51.7172V16.6098H49.9611ZM51.7172 16.6098V14.8537H53.4733V16.6098H51.7172ZM53.4733 16.6098V14.8537H55.2294V16.6098H53.4733ZM56.9855 16.6098V14.8537H58.7416V16.6098H56.9855ZM56.9855 18.3659V16.6098H58.7416V18.3659H56.9855ZM53.4733 18.3659V16.6098H55.2294V18.3659H53.4733ZM51.7172 18.3659V16.6098H53.4733V18.3659H51.7172ZM49.9611 18.3659V16.6098H51.7172V18.3659H49.9611ZM48.205 18.3659V16.6098H49.9611V18.3659H48.205ZM46.4489 18.3659V16.6098H48.205V18.3659H46.4489ZM46.4489 20.122V18.3659H48.205V20.122H46.4489ZM48.205 20.122V18.3659H49.9611V20.122H48.205ZM49.9611 20.122V18.3659H51.7172V20.122H49.9611ZM51.7172 20.122V18.3659H53.4733V20.122H51.7172ZM53.4733 20.122V18.3659H55.2294V20.122H53.4733ZM56.9855 20.122V18.3659H58.7416V20.122H56.9855ZM56.9855 21.8781V20.122H58.7416V21.8781H56.9855ZM46.4489 21.8781V20.122H48.205V21.8781H46.4489ZM39.4245 27.1463V28.9024H37.6684V27.1463H39.4245ZM41.1806 27.1463V28.9024H39.4245V27.1463H41.1806ZM39.4245 25.3902V27.1463H37.6684V25.3902H39.4245ZM44.6928 25.3902V27.1463H42.9367V25.3902H44.6928ZM44.6928 27.1463V28.9024H42.9367V27.1463H44.6928ZM46.4489 27.1463V28.9024H44.6928V27.1463H46.4489ZM46.4489 25.3902V27.1463H44.6928V25.3902H46.4489ZM41.1806 25.3902V27.1463H39.4245V25.3902H41.1806ZM42.9367 25.3902V27.1463H41.1806V25.3902H42.9367ZM42.9367 27.1463V28.9024H41.1806V27.1463H42.9367ZM49.9611 48.2195V49.9756H48.205V48.2195H49.9611ZM51.7172 48.2195V49.9756H49.9611V48.2195H51.7172ZM53.4733 48.2195V49.9756H51.7172V48.2195H53.4733ZM55.2294 48.2195V49.9756H53.4733V48.2195H55.2294ZM58.7416 46.4634V48.2195H56.9855V46.4634H58.7416ZM48.205 46.4634V48.2195H46.4489V46.4634H48.205ZM60.4977 42.9512V44.7073H58.7416V42.9512H60.4977ZM62.2538 42.9512V44.7073H60.4977V42.9512H62.2538ZM64.0099 42.9512V44.7073H62.2538V42.9512H64.0099ZM65.766 42.9512V44.7073H64.0099V42.9512H65.766ZM67.5221 42.9512V44.7073H65.766V42.9512H67.5221ZM48.205 21.8781V23.6341H46.4489V21.8781H48.205ZM49.9611 20.122V21.8781H48.205V20.122H49.9611ZM51.7172 20.122V21.8781H49.9611V20.122H51.7172ZM53.4733 20.122V21.8781H51.7172V20.122H53.4733ZM55.2294 20.122V21.8781H53.4733V20.122H55.2294ZM58.7416 21.8781V23.6341H56.9855V21.8781H58.7416ZM60.4977 25.3902V27.1463H58.7416V25.3902H60.4977ZM62.2538 25.3902V27.1463H60.4977V25.3902H62.2538ZM64.0099 25.3902V27.1463H62.2538V25.3902H64.0099ZM65.766 25.3902V27.1463H64.0099V25.3902H65.766ZM67.5221 25.3902V27.1463H65.766V25.3902H67.5221ZM56.9855 13.0976V14.8537H55.2294V13.0976H56.9855ZM56.9855 14.8537V16.6098H55.2294V14.8537H56.9855ZM56.9855 16.6098V18.3659H55.2294V16.6098H56.9855ZM56.9855 18.3659V20.122H55.2294V18.3659H56.9855ZM56.9855 20.122V21.8781H55.2294V20.122H56.9855ZM56.9855 48.2195V49.9756H55.2294V48.2195H56.9855ZM56.9855 49.9756V51.7317H55.2294V49.9756H56.9855ZM56.9855 51.7317V53.4878H55.2294V51.7317H56.9855ZM56.9855 53.4878V55.2439H55.2294V53.4878H56.9855ZM56.9855 55.2439V57H55.2294V55.2439H56.9855Z" fill="white"/>
</g>
<defs>
<clipPath id="clip0_3675_4923">
<rect width="70" height="70" fill="white"/>
</clipPath>
</defs>
</svg>
