<svg width="64" height="42" viewBox="0 0 64 42" fill="none" xmlns="http://www.w3.org/2000/svg">
<g clip-path="url(#clip0_3675_4920)">
<path d="M1.26829 41.2439V43H-0.487805V41.2439H1.26829ZM1.26829 39.4878V41.2439H-0.487805V39.4878H1.26829ZM1.26829 37.7317V39.4878H-0.487805V37.7317H1.26829ZM1.26829 35.9756V37.7317H-0.487805V35.9756H1.26829ZM1.26829 34.2195V35.9756H-0.487805V34.2195H1.26829ZM1.26829 32.4634V34.2195H-0.487805V32.4634H1.26829ZM1.26829 30.7073V32.4634H-0.487805V30.7073H1.26829ZM1.26829 28.9512V30.7073H-0.487805V28.9512H1.26829ZM1.26829 27.1951V28.9512H-0.487805V27.1951H1.26829ZM1.26829 25.439V27.1951H-0.487805V25.439H1.26829ZM1.26829 23.6829V25.439H-0.487805V23.6829H1.26829ZM1.26829 21.9268V23.6829H-0.487805V21.9268H1.26829ZM1.26829 20.1707V21.9268H-0.487805V20.1707H1.26829ZM1.26829 18.4146V20.1707H-0.487805V18.4146H1.26829ZM1.26829 16.6585V18.4146H-0.487805V16.6585H1.26829ZM3.02439 16.6585V18.4146H1.26829V16.6585H3.02439ZM3.02439 18.4146V20.1707H1.26829V18.4146H3.02439ZM3.02439 20.1707V21.9268H1.26829V20.1707H3.02439ZM3.02439 21.9268V23.6829H1.26829V21.9268H3.02439ZM3.02439 23.6829V25.439H1.26829V23.6829H3.02439ZM3.02439 25.439V27.1951H1.26829V25.439H3.02439ZM3.02439 27.1951V28.9512H1.26829V27.1951H3.02439ZM4.78049 28.9512V30.7073H3.02439V28.9512H4.78049ZM4.78049 30.7073V32.4634H3.02439V30.7073H4.78049ZM4.78049 32.4634V34.2195H3.02439V32.4634H4.78049ZM4.78049 34.2195V35.9756H3.02439V34.2195H4.78049ZM4.78049 35.9756V37.7317H3.02439V35.9756H4.78049ZM4.78049 37.7317V39.4878H3.02439V37.7317H4.78049ZM4.78049 39.4878V41.2439H3.02439V39.4878H4.78049ZM4.78049 41.2439V43H3.02439V41.2439H4.78049ZM6.53658 41.2439V43H4.78049V41.2439H6.53658ZM8.29268 41.2439V43H6.53658V41.2439H8.29268ZM8.29268 39.4878V41.2439H6.53658V39.4878H8.29268ZM8.29268 37.7317V39.4878H6.53658V37.7317H8.29268ZM8.29268 35.9756V37.7317H6.53658V35.9756H8.29268ZM8.29268 34.2195V35.9756H6.53658V34.2195H8.29268ZM8.29268 32.4634V34.2195H6.53658V32.4634H8.29268ZM8.29268 30.7073V32.4634H6.53658V30.7073H8.29268ZM8.29268 28.9512V30.7073H6.53658V28.9512H8.29268ZM6.53658 28.9512V30.7073H4.78049V28.9512H6.53658ZM6.53658 27.1951V28.9512H4.78049V27.1951H6.53658ZM6.53658 30.7073V32.4634H4.78049V30.7073H6.53658ZM6.53658 32.4634V34.2195H4.78049V32.4634H6.53658ZM6.53658 34.2195V35.9756H4.78049V34.2195H6.53658ZM6.53658 35.9756V37.7317H4.78049V35.9756H6.53658ZM6.53658 37.7317V39.4878H4.78049V37.7317H6.53658ZM6.53658 39.4878V41.2439H4.78049V39.4878H6.53658ZM3.02439 41.2439V43H1.26829V41.2439H3.02439ZM3.02439 39.4878V41.2439H1.26829V39.4878H3.02439ZM3.02439 37.7317V39.4878H1.26829V37.7317H3.02439ZM3.02439 35.9756V37.7317H1.26829V35.9756H3.02439ZM3.02439 34.2195V35.9756H1.26829V34.2195H3.02439ZM3.02439 32.4634V34.2195H1.26829V32.4634H3.02439ZM3.02439 30.7073V32.4634H1.26829V30.7073H3.02439ZM3.02439 28.9512V30.7073H1.26829V28.9512H3.02439ZM1.26829 11.3902V13.1463H-0.487805V11.3902H1.26829ZM1.26829 13.1463V14.9024H-0.487805V13.1463H1.26829ZM1.26829 14.9024V16.6585H-0.487805V14.9024H1.26829ZM6.53658 7.87805V9.63415H4.78049V7.87805H6.53658ZM6.53658 11.3902V13.1463H4.78049V11.3902H6.53658ZM6.53658 13.1463V14.9024H4.78049V13.1463H6.53658ZM6.53658 14.9024V16.6585H4.78049V14.9024H6.53658ZM6.53658 16.6585V18.4146H4.78049V16.6585H6.53658ZM6.53658 18.4146V20.1707H4.78049V18.4146H6.53658ZM6.53658 20.1707V21.9268H4.78049V20.1707H6.53658ZM6.53658 21.9268V23.6829H4.78049V21.9268H6.53658ZM8.29268 23.6829V25.439H6.53658V23.6829H8.29268ZM8.29268 25.439V27.1951H6.53658V25.439H8.29268ZM8.29268 27.1951V28.9512H6.53658V27.1951H8.29268ZM8.29268 21.9268V23.6829H6.53658V21.9268H8.29268ZM8.29268 20.1707V21.9268H6.53658V20.1707H8.29268ZM8.29268 18.4146V20.1707H6.53658V18.4146H8.29268ZM8.29268 16.6585V18.4146H6.53658V16.6585H8.29268ZM8.29268 14.9024V16.6585H6.53658V14.9024H8.29268ZM8.29268 13.1463V14.9024H6.53658V13.1463H8.29268ZM8.29268 11.3902V13.1463H6.53658V11.3902H8.29268ZM8.29268 9.63415V11.3902H6.53658V9.63415H8.29268ZM8.29268 7.87805V9.63415H6.53658V7.87805H8.29268ZM8.29268 6.12195V7.87805H6.53658V6.12195H8.29268ZM6.53658 9.63415V11.3902H4.78049V9.63415H6.53658ZM8.29268 4.36586V6.12195H6.53658V4.36586H8.29268ZM8.29268 2.60976V4.36586H6.53658V2.60976H8.29268ZM4.78049 7.87805V9.63415H3.02439V7.87805H4.78049ZM4.78049 9.63415V11.3902H3.02439V9.63415H4.78049ZM4.78049 11.3902V13.1463H3.02439V11.3902H4.78049ZM3.02439 13.1463V14.9024H1.26829V13.1463H3.02439ZM3.02439 14.9024V16.6585H1.26829V14.9024H3.02439ZM3.02439 11.3902V13.1463H1.26829V11.3902H3.02439ZM3.02439 9.63415V11.3902H1.26829V9.63415H3.02439ZM4.78049 13.1463V14.9024H3.02439V13.1463H4.78049ZM4.78049 14.9024V16.6585H3.02439V14.9024H4.78049ZM4.78049 16.6585V18.4146H3.02439V16.6585H4.78049ZM4.78049 18.4146V20.1707H3.02439V18.4146H4.78049ZM4.78049 20.1707V21.9268H3.02439V20.1707H4.78049ZM4.78049 21.9268V23.6829H3.02439V21.9268H4.78049ZM4.78049 23.6829V25.439H3.02439V23.6829H4.78049ZM4.78049 25.439V27.1951H3.02439V25.439H4.78049ZM4.78049 27.1951V28.9512H3.02439V27.1951H4.78049ZM6.53658 25.439V27.1951H4.78049V25.439H6.53658ZM6.53658 23.6829V25.439H4.78049V23.6829H6.53658ZM20.5854 41.2439V43H18.8293V41.2439H20.5854ZM20.5854 39.4878V41.2439H18.8293V39.4878H20.5854ZM20.5854 37.7317V39.4878H18.8293V37.7317H20.5854ZM20.5854 35.9756V37.7317H18.8293V35.9756H20.5854ZM20.5854 34.2195V35.9756H18.8293V34.2195H20.5854ZM20.5854 32.4634V34.2195H18.8293V32.4634H20.5854ZM20.5854 30.7073V32.4634H18.8293V30.7073H20.5854ZM20.5854 28.9512V30.7073H18.8293V28.9512H20.5854ZM20.5854 27.1951V28.9512H18.8293V27.1951H20.5854ZM20.5854 25.439V27.1951H18.8293V25.439H20.5854ZM20.5854 23.6829V25.439H18.8293V23.6829H20.5854ZM20.5854 21.9268V23.6829H18.8293V21.9268H20.5854ZM20.5854 20.1707V21.9268H18.8293V20.1707H20.5854ZM20.5854 18.4146V20.1707H18.8293V18.4146H20.5854ZM20.5854 16.6585V18.4146H18.8293V16.6585H20.5854ZM22.3415 16.6585V18.4146H20.5854V16.6585H22.3415ZM22.3415 18.4146V20.1707H20.5854V18.4146H22.3415ZM22.3415 20.1707V21.9268H20.5854V20.1707H22.3415ZM22.3415 21.9268V23.6829H20.5854V21.9268H22.3415ZM22.3415 23.6829V25.439H20.5854V23.6829H22.3415ZM22.3415 25.439V27.1951H20.5854V25.439H22.3415ZM22.3415 27.1951V28.9512H20.5854V27.1951H22.3415ZM24.0976 28.9512V30.7073H22.3415V28.9512H24.0976ZM24.0976 30.7073V32.4634H22.3415V30.7073H24.0976ZM24.0976 32.4634V34.2195H22.3415V32.4634H24.0976ZM24.0976 34.2195V35.9756H22.3415V34.2195H24.0976ZM24.0976 35.9756V37.7317H22.3415V35.9756H24.0976ZM24.0976 37.7317V39.4878H22.3415V37.7317H24.0976ZM24.0976 39.4878V41.2439H22.3415V39.4878H24.0976ZM24.0976 41.2439V43H22.3415V41.2439H24.0976ZM25.8537 41.2439V43H24.0976V41.2439H25.8537ZM27.6098 41.2439V43H25.8537V41.2439H27.6098ZM27.6098 39.4878V41.2439H25.8537V39.4878H27.6098ZM27.6098 37.7317V39.4878H25.8537V37.7317H27.6098ZM27.6098 35.9756V37.7317H25.8537V35.9756H27.6098ZM27.6098 34.2195V35.9756H25.8537V34.2195H27.6098ZM27.6098 32.4634V34.2195H25.8537V32.4634H27.6098ZM27.6098 30.7073V32.4634H25.8537V30.7073H27.6098ZM27.6098 28.9512V30.7073H25.8537V28.9512H27.6098ZM25.8537 28.9512V30.7073H24.0976V28.9512H25.8537ZM25.8537 27.1951V28.9512H24.0976V27.1951H25.8537ZM25.8537 30.7073V32.4634H24.0976V30.7073H25.8537ZM25.8537 32.4634V34.2195H24.0976V32.4634H25.8537ZM25.8537 34.2195V35.9756H24.0976V34.2195H25.8537ZM25.8537 35.9756V37.7317H24.0976V35.9756H25.8537ZM25.8537 37.7317V39.4878H24.0976V37.7317H25.8537ZM25.8537 39.4878V41.2439H24.0976V39.4878H25.8537ZM22.3415 41.2439V43H20.5854V41.2439H22.3415ZM22.3415 39.4878V41.2439H20.5854V39.4878H22.3415ZM22.3415 37.7317V39.4878H20.5854V37.7317H22.3415ZM22.3415 35.9756V37.7317H20.5854V35.9756H22.3415ZM22.3415 34.2195V35.9756H20.5854V34.2195H22.3415ZM22.3415 32.4634V34.2195H20.5854V32.4634H22.3415ZM22.3415 30.7073V32.4634H20.5854V30.7073H22.3415ZM22.3415 28.9512V30.7073H20.5854V28.9512H22.3415ZM20.5854 2.60976V4.36586H18.8293V2.60976H20.5854ZM20.5854 4.36586V6.12195H18.8293V4.36586H20.5854ZM20.5854 6.12195V7.87805H18.8293V6.12195H20.5854ZM20.5854 7.87805V9.63415H18.8293V7.87805H20.5854ZM20.5854 9.63415V11.3902H18.8293V9.63415H20.5854ZM20.5854 11.3902V13.1463H18.8293V11.3902H20.5854ZM20.5854 13.1463V14.9024H18.8293V13.1463H20.5854ZM20.5854 14.9024V16.6585H18.8293V14.9024H20.5854ZM25.8537 7.87805V9.63415H24.0976V7.87805H25.8537ZM25.8537 11.3902V13.1463H24.0976V11.3902H25.8537ZM25.8537 13.1463V14.9024H24.0976V13.1463H25.8537ZM25.8537 14.9024V16.6585H24.0976V14.9024H25.8537ZM25.8537 16.6585V18.4146H24.0976V16.6585H25.8537ZM25.8537 18.4146V20.1707H24.0976V18.4146H25.8537ZM25.8537 20.1707V21.9268H24.0976V20.1707H25.8537ZM25.8537 21.9268V23.6829H24.0976V21.9268H25.8537ZM27.6098 23.6829V25.439H25.8537V23.6829H27.6098ZM27.6098 25.439V27.1951H25.8537V25.439H27.6098ZM27.6098 27.1951V28.9512H25.8537V27.1951H27.6098ZM27.6098 21.9268V23.6829H25.8537V21.9268H27.6098ZM27.6098 20.1707V21.9268H25.8537V20.1707H27.6098ZM27.6098 18.4146V20.1707H25.8537V18.4146H27.6098ZM27.6098 16.6585V18.4146H25.8537V16.6585H27.6098ZM27.6098 14.9024V16.6585H25.8537V14.9024H27.6098ZM27.6098 13.1463V14.9024H25.8537V13.1463H27.6098ZM27.6098 11.3902V13.1463H25.8537V11.3902H27.6098ZM27.6098 9.63415V11.3902H25.8537V9.63415H27.6098ZM25.8537 9.63415V11.3902H24.0976V9.63415H25.8537ZM24.0976 6.12195V7.87805H22.3415V6.12195H24.0976ZM24.0976 7.87805V9.63415H22.3415V7.87805H24.0976ZM24.0976 9.63415V11.3902H22.3415V9.63415H24.0976ZM24.0976 11.3902V13.1463H22.3415V11.3902H24.0976ZM22.3415 13.1463V14.9024H20.5854V13.1463H22.3415ZM22.3415 14.9024V16.6585H20.5854V14.9024H22.3415ZM22.3415 11.3902V13.1463H20.5854V11.3902H22.3415ZM22.3415 9.63415V11.3902H20.5854V9.63415H22.3415ZM22.3415 7.87805V9.63415H20.5854V7.87805H22.3415ZM22.3415 6.12195V7.87805H20.5854V6.12195H22.3415ZM22.3415 4.36586V6.12195H20.5854V4.36586H22.3415ZM24.0976 13.1463V14.9024H22.3415V13.1463H24.0976ZM24.0976 14.9024V16.6585H22.3415V14.9024H24.0976ZM24.0976 16.6585V18.4146H22.3415V16.6585H24.0976ZM24.0976 18.4146V20.1707H22.3415V18.4146H24.0976ZM24.0976 20.1707V21.9268H22.3415V20.1707H24.0976ZM24.0976 21.9268V23.6829H22.3415V21.9268H24.0976ZM24.0976 23.6829V25.439H22.3415V23.6829H24.0976ZM24.0976 25.439V27.1951H22.3415V25.439H24.0976ZM24.0976 27.1951V28.9512H22.3415V27.1951H24.0976ZM25.8537 25.439V27.1951H24.0976V25.439H25.8537ZM25.8537 23.6829V25.439H24.0976V23.6829H25.8537ZM11.8049 -0.90244V0.85366H10.0488V-0.90244H11.8049ZM13.561 -0.90244V0.85366H11.8049V-0.90244H13.561ZM15.3171 -0.90244V0.85366H13.561V-0.90244H15.3171ZM17.0732 -0.90244V0.85366H15.3171V-0.90244H17.0732ZM18.8293 0.85366V2.60976H17.0732V0.85366H18.8293ZM17.0732 0.85366V2.60976H15.3171V0.85366H17.0732ZM15.3171 0.85366V2.60976H13.561V0.85366H15.3171ZM13.561 0.85366V2.60976H11.8049V0.85366H13.561ZM11.8049 0.85366V2.60976H10.0488V0.85366H11.8049ZM10.0488 0.85366V2.60976H8.29268V0.85366H10.0488ZM10.0488 2.60976V4.36586H8.29268V2.60976H10.0488ZM10.0488 4.36586V6.12195H8.29268V4.36586H10.0488ZM11.8049 2.60976V4.36586H10.0488V2.60976H11.8049ZM13.561 2.60976V4.36586H11.8049V2.60976H13.561ZM15.3171 2.60976V4.36586H13.561V2.60976H15.3171ZM17.0732 2.60976V4.36586H15.3171V2.60976H17.0732ZM18.8293 2.60976V4.36586H17.0732V2.60976H18.8293ZM18.8293 4.36586V6.12195H17.0732V4.36586H18.8293ZM17.0732 4.36586V6.12195H15.3171V4.36586H17.0732ZM15.3171 4.36586V6.12195H13.561V4.36586H15.3171ZM13.561 4.36586V6.12195H11.8049V4.36586H13.561ZM11.8049 4.36586V6.12195H10.0488V4.36586H11.8049ZM10.0488 6.12195V7.87805H8.29268V6.12195H10.0488ZM11.8049 6.12195V7.87805H10.0488V6.12195H11.8049ZM18.8293 6.12195V7.87805H17.0732V6.12195H18.8293ZM17.0732 6.12195V7.87805H15.3171V6.12195H17.0732ZM18.8293 7.87805V9.63415H17.0732V7.87805H18.8293ZM10.0488 7.87805V9.63415H8.29268V7.87805H10.0488ZM6.53658 4.36586V6.12195H4.78049V4.36586H6.53658ZM6.53658 6.12195V7.87805H4.78049V6.12195H6.53658ZM4.78049 6.12195V7.87805H3.02439V6.12195H4.78049ZM3.02439 7.87805V9.63415H1.26829V7.87805H3.02439ZM1.26829 9.63415V11.3902H-0.487805V9.63415H1.26829ZM10.0488 9.63415V11.3902H8.29268V9.63415H10.0488ZM11.8049 7.87805V9.63415H10.0488V7.87805H11.8049ZM13.561 6.12195V7.87805H11.8049V6.12195H13.561ZM15.3171 6.12195V7.87805H13.561V6.12195H15.3171ZM17.0732 7.87805V9.63415H15.3171V7.87805H17.0732ZM18.8293 9.63415V11.3902H17.0732V9.63415H18.8293ZM10.0488 30.7073V32.4634H8.29268V30.7073H10.0488ZM11.8049 30.7073V32.4634H10.0488V30.7073H11.8049ZM13.561 30.7073V32.4634H11.8049V30.7073H13.561ZM15.3171 30.7073V32.4634H13.561V30.7073H15.3171ZM17.0732 30.7073V32.4634H15.3171V30.7073H17.0732ZM18.8293 30.7073V32.4634H17.0732V30.7073H18.8293ZM18.8293 28.9512V30.7073H17.0732V28.9512H18.8293ZM17.0732 28.9512V30.7073H15.3171V28.9512H17.0732ZM15.3171 28.9512V30.7073H13.561V28.9512H15.3171ZM13.561 28.9512V30.7073H11.8049V28.9512H13.561ZM11.8049 28.9512V30.7073H10.0488V28.9512H11.8049ZM10.0488 28.9512V30.7073H8.29268V28.9512H10.0488ZM10.0488 27.1951V28.9512H8.29268V27.1951H10.0488ZM11.8049 27.1951V28.9512H10.0488V27.1951H11.8049ZM13.561 27.1951V28.9512H11.8049V27.1951H13.561ZM15.3171 27.1951V28.9512H13.561V27.1951H15.3171ZM17.0732 27.1951V28.9512H15.3171V27.1951H17.0732ZM18.8293 27.1951V28.9512H17.0732V27.1951H18.8293ZM18.8293 25.439V27.1951H17.0732V25.439H18.8293ZM17.0732 25.439V27.1951H15.3171V25.439H17.0732ZM15.3171 25.439V27.1951H13.561V25.439H15.3171ZM13.561 25.439V27.1951H11.8049V25.439H13.561ZM11.8049 25.439V27.1951H10.0488V25.439H11.8049ZM10.0488 25.439V27.1951H8.29268V25.439H10.0488ZM10.0488 23.6829V25.439H8.29268V23.6829H10.0488ZM11.8049 23.6829V25.439H10.0488V23.6829H11.8049ZM13.561 23.6829V25.439H11.8049V23.6829H13.561ZM15.3171 23.6829V25.439H13.561V23.6829H15.3171ZM17.0732 23.6829V25.439H15.3171V23.6829H17.0732ZM18.8293 23.6829V25.439H17.0732V23.6829H18.8293ZM13.561 7.87805V9.63415H11.8049V7.87805H13.561ZM15.3171 7.87805V9.63415H13.561V7.87805H15.3171ZM11.8049 9.63415V11.3902H10.0488V9.63415H11.8049ZM10.0488 11.3902V13.1463H8.29268V11.3902H10.0488ZM17.0732 9.63415V11.3902H15.3171V9.63415H17.0732ZM18.8293 11.3902V13.1463H17.0732V11.3902H18.8293Z" fill="#EAF0FF"/>
<path d="M36.4245 34.2195V35.9756H34.6684V34.2195H36.4245ZM36.4245 32.4634V34.2195H34.6684V32.4634H36.4245ZM36.4245 30.7073V32.4634H34.6684V30.7073H36.4245ZM36.4245 28.9512V30.7073H34.6684V28.9512H36.4245ZM36.4245 27.1951V28.9512H34.6684V27.1951H36.4245ZM36.4245 25.439V27.1951H34.6684V25.439H36.4245ZM36.4245 23.6829V25.439H34.6684V23.6829H36.4245ZM36.4245 21.9268V23.6829H34.6684V21.9268H36.4245ZM36.4245 20.1707V21.9268H34.6684V20.1707H36.4245ZM36.4245 18.4146V20.1707H34.6684V18.4146H36.4245ZM36.4245 16.6585V18.4146H34.6684V16.6585H36.4245ZM38.1806 16.6585V18.4146H36.4245V16.6585H38.1806ZM38.1806 18.4146V20.1707H36.4245V18.4146H38.1806ZM38.1806 20.1707V21.9268H36.4245V20.1707H38.1806ZM38.1806 21.9268V23.6829H36.4245V21.9268H38.1806ZM38.1806 23.6829V25.439H36.4245V23.6829H38.1806ZM38.1806 25.439V27.1951H36.4245V25.439H38.1806ZM38.1806 27.1951V28.9512H36.4245V27.1951H38.1806ZM39.9367 28.9512V30.7073H38.1806V28.9512H39.9367ZM39.9367 30.7073V32.4634H38.1806V30.7073H39.9367ZM39.9367 32.4634V34.2195H38.1806V32.4634H39.9367ZM39.9367 34.2195V35.9756H38.1806V34.2195H39.9367ZM39.9367 35.9756V37.7317H38.1806V35.9756H39.9367ZM39.9367 37.7317V39.4878H38.1806V37.7317H39.9367ZM39.9367 39.4878V41.2439H38.1806V39.4878H39.9367ZM43.4489 41.2439V43H41.6928V41.2439H43.4489ZM43.4489 39.4878V41.2439H41.6928V39.4878H43.4489ZM43.4489 37.7317V39.4878H41.6928V37.7317H43.4489ZM43.4489 35.9756V37.7317H41.6928V35.9756H43.4489ZM43.4489 34.2195V35.9756H41.6928V34.2195H43.4489ZM43.4489 32.4634V34.2195H41.6928V32.4634H43.4489ZM43.4489 30.7073V32.4634H41.6928V30.7073H43.4489ZM43.4489 28.9512V30.7073H41.6928V28.9512H43.4489ZM41.6928 28.9512V30.7073H39.9367V28.9512H41.6928ZM41.6928 27.1951V28.9512H39.9367V27.1951H41.6928ZM41.6928 30.7073V32.4634H39.9367V30.7073H41.6928ZM41.6928 32.4634V34.2195H39.9367V32.4634H41.6928ZM41.6928 34.2195V35.9756H39.9367V34.2195H41.6928ZM41.6928 35.9756V37.7317H39.9367V35.9756H41.6928ZM41.6928 37.7317V39.4878H39.9367V37.7317H41.6928ZM41.6928 39.4878V41.2439H39.9367V39.4878H41.6928ZM38.1806 37.7317V39.4878H36.4245V37.7317H38.1806ZM38.1806 35.9756V37.7317H36.4245V35.9756H38.1806ZM38.1806 34.2195V35.9756H36.4245V34.2195H38.1806ZM38.1806 32.4634V34.2195H36.4245V32.4634H38.1806ZM38.1806 30.7073V32.4634H36.4245V30.7073H38.1806ZM38.1806 28.9512V30.7073H36.4245V28.9512H38.1806ZM36.4245 14.9024V16.6585H34.6684V14.9024H36.4245ZM41.6928 14.9024V16.6585H39.9367V14.9024H41.6928ZM41.6928 16.6585V18.4146H39.9367V16.6585H41.6928ZM41.6928 18.4146V20.1707H39.9367V18.4146H41.6928ZM41.6928 20.1707V21.9268H39.9367V20.1707H41.6928ZM41.6928 21.9268V23.6829H39.9367V21.9268H41.6928ZM43.4489 23.6829V25.439H41.6928V23.6829H43.4489ZM43.4489 25.439V27.1951H41.6928V25.439H43.4489ZM43.4489 27.1951V28.9512H41.6928V27.1951H43.4489ZM43.4489 21.9268V23.6829H41.6928V21.9268H43.4489ZM43.4489 20.1707V21.9268H41.6928V20.1707H43.4489ZM43.4489 18.4146V20.1707H41.6928V18.4146H43.4489ZM43.4489 16.6585V18.4146H41.6928V16.6585H43.4489ZM43.4489 14.9024V16.6585H41.6928V14.9024H43.4489ZM38.1806 14.9024V16.6585H36.4245V14.9024H38.1806ZM39.9367 14.9024V16.6585H38.1806V14.9024H39.9367ZM39.9367 16.6585V18.4146H38.1806V16.6585H39.9367ZM39.9367 18.4146V20.1707H38.1806V18.4146H39.9367ZM39.9367 20.1707V21.9268H38.1806V20.1707H39.9367ZM39.9367 21.9268V23.6829H38.1806V21.9268H39.9367ZM39.9367 23.6829V25.439H38.1806V23.6829H39.9367ZM39.9367 25.439V27.1951H38.1806V25.439H39.9367ZM39.9367 27.1951V28.9512H38.1806V27.1951H39.9367ZM41.6928 25.439V27.1951H39.9367V25.439H41.6928ZM41.6928 23.6829V25.439H39.9367V23.6829H41.6928ZM57.4977 41.2439V43H55.7416V41.2439H57.4977ZM57.4977 39.4878V41.2439H55.7416V39.4878H57.4977ZM57.4977 37.7317V39.4878H55.7416V37.7317H57.4977ZM57.4977 35.9756V37.7317H55.7416V35.9756H57.4977ZM57.4977 34.2195V35.9756H55.7416V34.2195H57.4977ZM57.4977 32.4634V34.2195H55.7416V32.4634H57.4977ZM57.4977 30.7073V32.4634H55.7416V30.7073H57.4977ZM61.0099 30.7073V32.4634H59.2538V30.7073H61.0099ZM61.0099 32.4634V34.2195H59.2538V32.4634H61.0099ZM61.0099 34.2195V35.9756H59.2538V34.2195H61.0099ZM61.0099 35.9756V37.7317H59.2538V35.9756H61.0099ZM61.0099 37.7317V39.4878H59.2538V37.7317H61.0099ZM61.0099 39.4878V41.2439H59.2538V39.4878H61.0099ZM64.5221 34.2195V35.9756H62.766V34.2195H64.5221ZM64.5221 32.4634V34.2195H62.766V32.4634H64.5221ZM64.5221 30.7073V32.4634H62.766V30.7073H64.5221ZM62.766 30.7073V32.4634H61.0099V30.7073H62.766ZM62.766 32.4634V34.2195H61.0099V32.4634H62.766ZM62.766 34.2195V35.9756H61.0099V34.2195H62.766ZM62.766 35.9756V37.7317H61.0099V35.9756H62.766ZM62.766 37.7317V39.4878H61.0099V37.7317H62.766ZM59.2538 39.4878V41.2439H57.4977V39.4878H59.2538ZM59.2538 37.7317V39.4878H57.4977V37.7317H59.2538ZM59.2538 35.9756V37.7317H57.4977V35.9756H59.2538ZM59.2538 34.2195V35.9756H57.4977V34.2195H59.2538ZM59.2538 32.4634V34.2195H57.4977V32.4634H59.2538ZM59.2538 30.7073V32.4634H57.4977V30.7073H59.2538ZM45.205 41.2439V43H43.4489V41.2439H45.205ZM46.9611 41.2439V43H45.205V41.2439H46.9611ZM48.7172 41.2439V43H46.9611V41.2439H48.7172ZM50.4733 41.2439V43H48.7172V41.2439H50.4733ZM52.2294 41.2439V43H50.4733V41.2439H52.2294ZM55.7416 41.2439V43H53.9855V41.2439H55.7416ZM55.7416 39.4878V41.2439H53.9855V39.4878H55.7416ZM52.2294 39.4878V41.2439H50.4733V39.4878H52.2294ZM50.4733 39.4878V41.2439H48.7172V39.4878H50.4733ZM48.7172 39.4878V41.2439H46.9611V39.4878H48.7172ZM46.9611 39.4878V41.2439H45.205V39.4878H46.9611ZM45.205 39.4878V41.2439H43.4489V39.4878H45.205ZM45.205 37.7317V39.4878H43.4489V37.7317H45.205ZM46.9611 37.7317V39.4878H45.205V37.7317H46.9611ZM48.7172 37.7317V39.4878H46.9611V37.7317H48.7172ZM50.4733 37.7317V39.4878H48.7172V37.7317H50.4733ZM52.2294 37.7317V39.4878H50.4733V37.7317H52.2294ZM55.7416 37.7317V39.4878H53.9855V37.7317H55.7416ZM55.7416 35.9756V37.7317H53.9855V35.9756H55.7416ZM52.2294 35.9756V37.7317H50.4733V35.9756H52.2294ZM50.4733 35.9756V37.7317H48.7172V35.9756H50.4733ZM48.7172 35.9756V37.7317H46.9611V35.9756H48.7172ZM46.9611 35.9756V37.7317H45.205V35.9756H46.9611ZM45.205 35.9756V37.7317H43.4489V35.9756H45.205ZM45.205 34.2195V35.9756H43.4489V34.2195H45.205ZM55.7416 34.2195V35.9756H53.9855V34.2195H55.7416ZM62.766 7.87805V6.12195H64.5221V7.87805H62.766ZM62.766 9.63415V7.87805H64.5221V9.63415H62.766ZM62.766 11.3902V9.63415H64.5221V11.3902H62.766ZM59.2538 11.3902V9.63415H61.0099V11.3902H59.2538ZM59.2538 9.63415V7.87805H61.0099V9.63415H59.2538ZM59.2538 7.87805V6.12195H61.0099V7.87805H59.2538ZM59.2538 6.12195V4.36586H61.0099V6.12195H59.2538ZM59.2538 4.36586V2.60976H61.0099V4.36586H59.2538ZM59.2538 2.60976V0.85366H61.0099V2.60976H59.2538ZM55.7416 0.85366V-0.90244H57.4977V0.85366H55.7416ZM55.7416 2.60976V0.85366H57.4977V2.60976H55.7416ZM55.7416 4.36586V2.60976H57.4977V4.36586H55.7416ZM55.7416 6.12195V4.36586H57.4977V6.12195H55.7416ZM55.7416 7.87805V6.12195H57.4977V7.87805H55.7416ZM55.7416 9.63415V7.87805H57.4977V9.63415H55.7416ZM55.7416 11.3902V9.63415H57.4977V11.3902H55.7416ZM57.4977 11.3902V9.63415H59.2538V11.3902H57.4977ZM57.4977 9.63415V7.87805H59.2538V9.63415H57.4977ZM57.4977 7.87805V6.12195H59.2538V7.87805H57.4977ZM57.4977 6.12195V4.36586H59.2538V6.12195H57.4977ZM57.4977 4.36586V2.60976H59.2538V4.36586H57.4977ZM57.4977 2.60976V0.85366H59.2538V2.60976H57.4977ZM61.0099 4.36586V2.60976H62.766V4.36586H61.0099ZM61.0099 6.12195V4.36586H62.766V6.12195H61.0099ZM61.0099 7.87805V6.12195H62.766V7.87805H61.0099ZM61.0099 9.63415V7.87805H62.766V9.63415H61.0099ZM61.0099 11.3902V9.63415H62.766V11.3902H61.0099ZM41.6928 0.85366V-0.90244H43.4489V0.85366H41.6928ZM41.6928 2.60976V0.85366H43.4489V2.60976H41.6928ZM41.6928 4.36586V2.60976H43.4489V4.36586H41.6928ZM41.6928 6.12195V4.36586H43.4489V6.12195H41.6928ZM41.6928 7.87805V6.12195H43.4489V7.87805H41.6928ZM41.6928 9.63415V7.87805H43.4489V9.63415H41.6928ZM41.6928 11.3902V9.63415H43.4489V11.3902H41.6928ZM38.1806 11.3902V9.63415H39.9367V11.3902H38.1806ZM38.1806 9.63415V7.87805H39.9367V9.63415H38.1806ZM38.1806 7.87805V6.12195H39.9367V7.87805H38.1806ZM38.1806 6.12195V4.36586H39.9367V6.12195H38.1806ZM38.1806 4.36586V2.60976H39.9367V4.36586H38.1806ZM38.1806 2.60976V0.85366H39.9367V2.60976H38.1806ZM34.6684 7.87805V6.12195H36.4245V7.87805H34.6684ZM34.6684 9.63415V7.87805H36.4245V9.63415H34.6684ZM34.6684 11.3902V9.63415H36.4245V11.3902H34.6684ZM36.4245 11.3902V9.63415H38.1806V11.3902H36.4245ZM36.4245 9.63415V7.87805H38.1806V9.63415H36.4245ZM36.4245 7.87805V6.12195H38.1806V7.87805H36.4245ZM36.4245 6.12195V4.36586H38.1806V6.12195H36.4245ZM36.4245 4.36586V2.60976H38.1806V4.36586H36.4245ZM39.9367 2.60976V0.85366H41.6928V2.60976H39.9367ZM39.9367 4.36586V2.60976H41.6928V4.36586H39.9367ZM39.9367 6.12195V4.36586H41.6928V6.12195H39.9367ZM39.9367 7.87805V6.12195H41.6928V7.87805H39.9367ZM39.9367 9.63415V7.87805H41.6928V9.63415H39.9367ZM39.9367 11.3902V9.63415H41.6928V11.3902H39.9367ZM53.9855 0.85366V-0.90244H55.7416V0.85366H53.9855ZM50.4733 0.85366V-0.90244H52.2294V0.85366H50.4733ZM48.7172 0.85366V-0.90244H50.4733V0.85366H48.7172ZM46.9611 0.85366V-0.90244H48.7172V0.85366H46.9611ZM45.205 0.85366V-0.90244H46.9611V0.85366H45.205ZM43.4489 0.85366V-0.90244H45.205V0.85366H43.4489ZM43.4489 2.60976V0.85366H45.205V2.60976H43.4489ZM45.205 2.60976V0.85366H46.9611V2.60976H45.205ZM46.9611 2.60976V0.85366H48.7172V2.60976H46.9611ZM48.7172 2.60976V0.85366H50.4733V2.60976H48.7172ZM50.4733 2.60976V0.85366H52.2294V2.60976H50.4733ZM53.9855 2.60976V0.85366H55.7416V2.60976H53.9855ZM53.9855 4.36586V2.60976H55.7416V4.36586H53.9855ZM50.4733 4.36586V2.60976H52.2294V4.36586H50.4733ZM48.7172 4.36586V2.60976H50.4733V4.36586H48.7172ZM46.9611 4.36586V2.60976H48.7172V4.36586H46.9611ZM45.205 4.36586V2.60976H46.9611V4.36586H45.205ZM43.4489 4.36586V2.60976H45.205V4.36586H43.4489ZM43.4489 6.12195V4.36586H45.205V6.12195H43.4489ZM45.205 6.12195V4.36586H46.9611V6.12195H45.205ZM46.9611 6.12195V4.36586H48.7172V6.12195H46.9611ZM48.7172 6.12195V4.36586H50.4733V6.12195H48.7172ZM50.4733 6.12195V4.36586H52.2294V6.12195H50.4733ZM53.9855 6.12195V4.36586H55.7416V6.12195H53.9855ZM53.9855 7.87805V6.12195H55.7416V7.87805H53.9855ZM43.4489 7.87805V6.12195H45.205V7.87805H43.4489ZM36.4245 13.1463V14.9024H34.6684V13.1463H36.4245ZM38.1806 13.1463V14.9024H36.4245V13.1463H38.1806ZM36.4245 11.3902V13.1463H34.6684V11.3902H36.4245ZM41.6928 11.3902V13.1463H39.9367V11.3902H41.6928ZM41.6928 13.1463V14.9024H39.9367V13.1463H41.6928ZM43.4489 13.1463V14.9024H41.6928V13.1463H43.4489ZM43.4489 11.3902V13.1463H41.6928V11.3902H43.4489ZM38.1806 11.3902V13.1463H36.4245V11.3902H38.1806ZM39.9367 11.3902V13.1463H38.1806V11.3902H39.9367ZM39.9367 13.1463V14.9024H38.1806V13.1463H39.9367ZM46.9611 34.2195V35.9756H45.205V34.2195H46.9611ZM48.7172 34.2195V35.9756H46.9611V34.2195H48.7172ZM50.4733 34.2195V35.9756H48.7172V34.2195H50.4733ZM52.2294 34.2195V35.9756H50.4733V34.2195H52.2294ZM55.7416 32.4634V34.2195H53.9855V32.4634H55.7416ZM45.205 32.4634V34.2195H43.4489V32.4634H45.205ZM57.4977 28.9512V30.7073H55.7416V28.9512H57.4977ZM59.2538 28.9512V30.7073H57.4977V28.9512H59.2538ZM61.0099 28.9512V30.7073H59.2538V28.9512H61.0099ZM62.766 28.9512V30.7073H61.0099V28.9512H62.766ZM64.5221 28.9512V30.7073H62.766V28.9512H64.5221ZM45.205 7.87805V9.63415H43.4489V7.87805H45.205ZM46.9611 6.12195V7.87805H45.205V6.12195H46.9611ZM48.7172 6.12195V7.87805H46.9611V6.12195H48.7172ZM50.4733 6.12195V7.87805H48.7172V6.12195H50.4733ZM52.2294 6.12195V7.87805H50.4733V6.12195H52.2294ZM55.7416 7.87805V9.63415H53.9855V7.87805H55.7416ZM57.4977 11.3902V13.1463H55.7416V11.3902H57.4977ZM59.2538 11.3902V13.1463H57.4977V11.3902H59.2538ZM61.0099 11.3902V13.1463H59.2538V11.3902H61.0099ZM62.766 11.3902V13.1463H61.0099V11.3902H62.766ZM64.5221 11.3902V13.1463H62.766V11.3902H64.5221ZM53.9855 -0.90244V0.85366H52.2294V-0.90244H53.9855ZM53.9855 0.85366V2.60976H52.2294V0.85366H53.9855ZM53.9855 2.60976V4.36586H52.2294V2.60976H53.9855ZM53.9855 4.36586V6.12195H52.2294V4.36586H53.9855ZM53.9855 6.12195V7.87805H52.2294V6.12195H53.9855ZM53.9855 34.2195V35.9756H52.2294V34.2195H53.9855ZM53.9855 35.9756V37.7317H52.2294V35.9756H53.9855ZM53.9855 37.7317V39.4878H52.2294V37.7317H53.9855ZM53.9855 39.4878V41.2439H52.2294V39.4878H53.9855ZM53.9855 41.2439V43H52.2294V41.2439H53.9855Z" fill="white"/>
</g>
<defs>
<clipPath id="clip0_3675_4920">
<rect width="64" height="42" fill="white"/>
</clipPath>
</defs>
</svg>
