<svg width="288" height="50" viewBox="0 0 288 50" fill="none" xmlns="http://www.w3.org/2000/svg">
<g clip-path="url(#clip0_3675_4954)">
<path d="M2.26829 44.2439V46H0.512195V44.2439H2.26829ZM2.26829 42.4878V44.2439H0.512195V42.4878H2.26829ZM2.26829 40.7317V42.4878H0.512195V40.7317H2.26829ZM2.26829 38.9756V40.7317H0.512195V38.9756H2.26829ZM2.26829 37.2195V38.9756H0.512195V37.2195H2.26829ZM2.26829 35.4634V37.2195H0.512195V35.4634H2.26829ZM2.26829 33.7073V35.4634H0.512195V33.7073H2.26829ZM2.26829 31.9512V33.7073H0.512195V31.9512H2.26829ZM2.26829 30.1951V31.9512H0.512195V30.1951H2.26829ZM2.26829 28.439V30.1951H0.512195V28.439H2.26829ZM2.26829 26.6829V28.439H0.512195V26.6829H2.26829ZM2.26829 24.9268V26.6829H0.512195V24.9268H2.26829ZM2.26829 23.1707V24.9268H0.512195V23.1707H2.26829ZM2.26829 21.4146V23.1707H0.512195V21.4146H2.26829ZM2.26829 19.6585V21.4146H0.512195V19.6585H2.26829ZM4.02439 19.6585V21.4146H2.26829V19.6585H4.02439ZM4.02439 21.4146V23.1707H2.26829V21.4146H4.02439ZM4.02439 23.1707V24.9268H2.26829V23.1707H4.02439ZM4.02439 24.9268V26.6829H2.26829V24.9268H4.02439ZM4.02439 26.6829V28.439H2.26829V26.6829H4.02439ZM4.02439 28.439V30.1951H2.26829V28.439H4.02439ZM4.02439 30.1951V31.9512H2.26829V30.1951H4.02439ZM5.78049 31.9512V33.7073H4.02439V31.9512H5.78049ZM5.78049 33.7073V35.4634H4.02439V33.7073H5.78049ZM5.78049 35.4634V37.2195H4.02439V35.4634H5.78049ZM5.78049 37.2195V38.9756H4.02439V37.2195H5.78049ZM5.78049 38.9756V40.7317H4.02439V38.9756H5.78049ZM5.78049 40.7317V42.4878H4.02439V40.7317H5.78049ZM5.78049 42.4878V44.2439H4.02439V42.4878H5.78049ZM5.78049 44.2439V46H4.02439V44.2439H5.78049ZM7.53658 44.2439V46H5.78049V44.2439H7.53658ZM9.29268 44.2439V46H7.53658V44.2439H9.29268ZM9.29268 42.4878V44.2439H7.53658V42.4878H9.29268ZM9.29268 40.7317V42.4878H7.53658V40.7317H9.29268ZM9.29268 38.9756V40.7317H7.53658V38.9756H9.29268ZM9.29268 37.2195V38.9756H7.53658V37.2195H9.29268ZM9.29268 35.4634V37.2195H7.53658V35.4634H9.29268ZM9.29268 33.7073V35.4634H7.53658V33.7073H9.29268ZM9.29268 31.9512V33.7073H7.53658V31.9512H9.29268ZM7.53658 31.9512V33.7073H5.78049V31.9512H7.53658ZM7.53658 30.1951V31.9512H5.78049V30.1951H7.53658ZM7.53658 33.7073V35.4634H5.78049V33.7073H7.53658ZM7.53658 35.4634V37.2195H5.78049V35.4634H7.53658ZM7.53658 37.2195V38.9756H5.78049V37.2195H7.53658ZM7.53658 38.9756V40.7317H5.78049V38.9756H7.53658ZM7.53658 40.7317V42.4878H5.78049V40.7317H7.53658ZM7.53658 42.4878V44.2439H5.78049V42.4878H7.53658ZM4.02439 44.2439V46H2.26829V44.2439H4.02439ZM4.02439 42.4878V44.2439H2.26829V42.4878H4.02439ZM4.02439 40.7317V42.4878H2.26829V40.7317H4.02439ZM4.02439 38.9756V40.7317H2.26829V38.9756H4.02439ZM4.02439 37.2195V38.9756H2.26829V37.2195H4.02439ZM4.02439 35.4634V37.2195H2.26829V35.4634H4.02439ZM4.02439 33.7073V35.4634H2.26829V33.7073H4.02439ZM4.02439 31.9512V33.7073H2.26829V31.9512H4.02439ZM2.26829 14.3902V16.1463H0.512195V14.3902H2.26829ZM2.26829 16.1463V17.9024H0.512195V16.1463H2.26829ZM2.26829 17.9024V19.6585H0.512195V17.9024H2.26829ZM7.53658 10.8781V12.6341H5.78049V10.8781H7.53658ZM7.53658 14.3902V16.1463H5.78049V14.3902H7.53658ZM7.53658 16.1463V17.9024H5.78049V16.1463H7.53658ZM7.53658 17.9024V19.6585H5.78049V17.9024H7.53658ZM7.53658 19.6585V21.4146H5.78049V19.6585H7.53658ZM7.53658 21.4146V23.1707H5.78049V21.4146H7.53658ZM7.53658 23.1707V24.9268H5.78049V23.1707H7.53658ZM7.53658 24.9268V26.6829H5.78049V24.9268H7.53658ZM9.29268 26.6829V28.439H7.53658V26.6829H9.29268ZM9.29268 28.439V30.1951H7.53658V28.439H9.29268ZM9.29268 30.1951V31.9512H7.53658V30.1951H9.29268ZM9.29268 24.9268V26.6829H7.53658V24.9268H9.29268ZM9.29268 23.1707V24.9268H7.53658V23.1707H9.29268ZM9.29268 21.4146V23.1707H7.53658V21.4146H9.29268ZM9.29268 19.6585V21.4146H7.53658V19.6585H9.29268ZM9.29268 17.9024V19.6585H7.53658V17.9024H9.29268ZM9.29268 16.1463V17.9024H7.53658V16.1463H9.29268ZM9.29268 14.3902V16.1463H7.53658V14.3902H9.29268ZM9.29268 12.6341V14.3902H7.53658V12.6341H9.29268ZM9.29268 10.8781V12.6341H7.53658V10.8781H9.29268ZM9.29268 9.12195V10.8781H7.53658V9.12195H9.29268ZM7.53658 12.6341V14.3902H5.78049V12.6341H7.53658ZM9.29268 7.36586V9.12195H7.53658V7.36586H9.29268ZM9.29268 5.60976V7.36586H7.53658V5.60976H9.29268ZM5.78049 10.8781V12.6341H4.02439V10.8781H5.78049ZM5.78049 12.6341V14.3902H4.02439V12.6341H5.78049ZM5.78049 14.3902V16.1463H4.02439V14.3902H5.78049ZM4.02439 16.1463V17.9024H2.26829V16.1463H4.02439ZM4.02439 17.9024V19.6585H2.26829V17.9024H4.02439ZM4.02439 14.3902V16.1463H2.26829V14.3902H4.02439ZM4.02439 12.6341V14.3902H2.26829V12.6341H4.02439ZM5.78049 16.1463V17.9024H4.02439V16.1463H5.78049ZM5.78049 17.9024V19.6585H4.02439V17.9024H5.78049ZM5.78049 19.6585V21.4146H4.02439V19.6585H5.78049ZM5.78049 21.4146V23.1707H4.02439V21.4146H5.78049ZM5.78049 23.1707V24.9268H4.02439V23.1707H5.78049ZM5.78049 24.9268V26.6829H4.02439V24.9268H5.78049ZM5.78049 26.6829V28.439H4.02439V26.6829H5.78049ZM5.78049 28.439V30.1951H4.02439V28.439H5.78049ZM5.78049 30.1951V31.9512H4.02439V30.1951H5.78049ZM7.53658 28.439V30.1951H5.78049V28.439H7.53658ZM7.53658 26.6829V28.439H5.78049V26.6829H7.53658ZM21.5854 44.2439V46H19.8293V44.2439H21.5854ZM21.5854 42.4878V44.2439H19.8293V42.4878H21.5854ZM21.5854 40.7317V42.4878H19.8293V40.7317H21.5854ZM21.5854 38.9756V40.7317H19.8293V38.9756H21.5854ZM21.5854 37.2195V38.9756H19.8293V37.2195H21.5854ZM21.5854 35.4634V37.2195H19.8293V35.4634H21.5854ZM21.5854 33.7073V35.4634H19.8293V33.7073H21.5854ZM21.5854 31.9512V33.7073H19.8293V31.9512H21.5854ZM21.5854 30.1951V31.9512H19.8293V30.1951H21.5854ZM21.5854 28.439V30.1951H19.8293V28.439H21.5854ZM21.5854 26.6829V28.439H19.8293V26.6829H21.5854ZM21.5854 24.9268V26.6829H19.8293V24.9268H21.5854ZM21.5854 23.1707V24.9268H19.8293V23.1707H21.5854ZM21.5854 21.4146V23.1707H19.8293V21.4146H21.5854ZM21.5854 19.6585V21.4146H19.8293V19.6585H21.5854ZM23.3415 19.6585V21.4146H21.5854V19.6585H23.3415ZM23.3415 21.4146V23.1707H21.5854V21.4146H23.3415ZM23.3415 23.1707V24.9268H21.5854V23.1707H23.3415ZM23.3415 24.9268V26.6829H21.5854V24.9268H23.3415ZM23.3415 26.6829V28.439H21.5854V26.6829H23.3415ZM23.3415 28.439V30.1951H21.5854V28.439H23.3415ZM23.3415 30.1951V31.9512H21.5854V30.1951H23.3415ZM25.0976 31.9512V33.7073H23.3415V31.9512H25.0976ZM25.0976 33.7073V35.4634H23.3415V33.7073H25.0976ZM25.0976 35.4634V37.2195H23.3415V35.4634H25.0976ZM25.0976 37.2195V38.9756H23.3415V37.2195H25.0976ZM25.0976 38.9756V40.7317H23.3415V38.9756H25.0976ZM25.0976 40.7317V42.4878H23.3415V40.7317H25.0976ZM25.0976 42.4878V44.2439H23.3415V42.4878H25.0976ZM25.0976 44.2439V46H23.3415V44.2439H25.0976ZM26.8537 44.2439V46H25.0976V44.2439H26.8537ZM28.6098 44.2439V46H26.8537V44.2439H28.6098ZM28.6098 42.4878V44.2439H26.8537V42.4878H28.6098ZM28.6098 40.7317V42.4878H26.8537V40.7317H28.6098ZM28.6098 38.9756V40.7317H26.8537V38.9756H28.6098ZM28.6098 37.2195V38.9756H26.8537V37.2195H28.6098ZM28.6098 35.4634V37.2195H26.8537V35.4634H28.6098ZM28.6098 33.7073V35.4634H26.8537V33.7073H28.6098ZM28.6098 31.9512V33.7073H26.8537V31.9512H28.6098ZM26.8537 31.9512V33.7073H25.0976V31.9512H26.8537ZM26.8537 30.1951V31.9512H25.0976V30.1951H26.8537ZM26.8537 33.7073V35.4634H25.0976V33.7073H26.8537ZM26.8537 35.4634V37.2195H25.0976V35.4634H26.8537ZM26.8537 37.2195V38.9756H25.0976V37.2195H26.8537ZM26.8537 38.9756V40.7317H25.0976V38.9756H26.8537ZM26.8537 40.7317V42.4878H25.0976V40.7317H26.8537ZM26.8537 42.4878V44.2439H25.0976V42.4878H26.8537ZM23.3415 44.2439V46H21.5854V44.2439H23.3415ZM23.3415 42.4878V44.2439H21.5854V42.4878H23.3415ZM23.3415 40.7317V42.4878H21.5854V40.7317H23.3415ZM23.3415 38.9756V40.7317H21.5854V38.9756H23.3415ZM23.3415 37.2195V38.9756H21.5854V37.2195H23.3415ZM23.3415 35.4634V37.2195H21.5854V35.4634H23.3415ZM23.3415 33.7073V35.4634H21.5854V33.7073H23.3415ZM23.3415 31.9512V33.7073H21.5854V31.9512H23.3415ZM21.5854 5.60976V7.36586H19.8293V5.60976H21.5854ZM21.5854 7.36586V9.12195H19.8293V7.36586H21.5854ZM21.5854 9.12195V10.8781H19.8293V9.12195H21.5854ZM21.5854 10.8781V12.6341H19.8293V10.8781H21.5854ZM21.5854 12.6341V14.3902H19.8293V12.6341H21.5854ZM21.5854 14.3902V16.1463H19.8293V14.3902H21.5854ZM21.5854 16.1463V17.9024H19.8293V16.1463H21.5854ZM21.5854 17.9024V19.6585H19.8293V17.9024H21.5854ZM26.8537 10.8781V12.6341H25.0976V10.8781H26.8537ZM26.8537 14.3902V16.1463H25.0976V14.3902H26.8537ZM26.8537 16.1463V17.9024H25.0976V16.1463H26.8537ZM26.8537 17.9024V19.6585H25.0976V17.9024H26.8537ZM26.8537 19.6585V21.4146H25.0976V19.6585H26.8537ZM26.8537 21.4146V23.1707H25.0976V21.4146H26.8537ZM26.8537 23.1707V24.9268H25.0976V23.1707H26.8537ZM26.8537 24.9268V26.6829H25.0976V24.9268H26.8537ZM28.6098 26.6829V28.439H26.8537V26.6829H28.6098ZM28.6098 28.439V30.1951H26.8537V28.439H28.6098ZM28.6098 30.1951V31.9512H26.8537V30.1951H28.6098ZM28.6098 24.9268V26.6829H26.8537V24.9268H28.6098ZM28.6098 23.1707V24.9268H26.8537V23.1707H28.6098ZM28.6098 21.4146V23.1707H26.8537V21.4146H28.6098ZM28.6098 19.6585V21.4146H26.8537V19.6585H28.6098ZM28.6098 17.9024V19.6585H26.8537V17.9024H28.6098ZM28.6098 16.1463V17.9024H26.8537V16.1463H28.6098ZM28.6098 14.3902V16.1463H26.8537V14.3902H28.6098ZM28.6098 12.6341V14.3902H26.8537V12.6341H28.6098ZM26.8537 12.6341V14.3902H25.0976V12.6341H26.8537ZM25.0976 9.12195V10.8781H23.3415V9.12195H25.0976ZM25.0976 10.8781V12.6341H23.3415V10.8781H25.0976ZM25.0976 12.6341V14.3902H23.3415V12.6341H25.0976ZM25.0976 14.3902V16.1463H23.3415V14.3902H25.0976ZM23.3415 16.1463V17.9024H21.5854V16.1463H23.3415ZM23.3415 17.9024V19.6585H21.5854V17.9024H23.3415ZM23.3415 14.3902V16.1463H21.5854V14.3902H23.3415ZM23.3415 12.6341V14.3902H21.5854V12.6341H23.3415ZM23.3415 10.8781V12.6341H21.5854V10.8781H23.3415ZM23.3415 9.12195V10.8781H21.5854V9.12195H23.3415ZM23.3415 7.36586V9.12195H21.5854V7.36586H23.3415ZM25.0976 16.1463V17.9024H23.3415V16.1463H25.0976ZM25.0976 17.9024V19.6585H23.3415V17.9024H25.0976ZM25.0976 19.6585V21.4146H23.3415V19.6585H25.0976ZM25.0976 21.4146V23.1707H23.3415V21.4146H25.0976ZM25.0976 23.1707V24.9268H23.3415V23.1707H25.0976ZM25.0976 24.9268V26.6829H23.3415V24.9268H25.0976ZM25.0976 26.6829V28.439H23.3415V26.6829H25.0976ZM25.0976 28.439V30.1951H23.3415V28.439H25.0976ZM25.0976 30.1951V31.9512H23.3415V30.1951H25.0976ZM26.8537 28.439V30.1951H25.0976V28.439H26.8537ZM26.8537 26.6829V28.439H25.0976V26.6829H26.8537ZM12.8049 2.09756V3.85366H11.0488V2.09756H12.8049ZM14.561 2.09756V3.85366H12.8049V2.09756H14.561ZM16.3171 2.09756V3.85366H14.561V2.09756H16.3171ZM18.0732 2.09756V3.85366H16.3171V2.09756H18.0732ZM19.8293 3.85366V5.60976H18.0732V3.85366H19.8293ZM18.0732 3.85366V5.60976H16.3171V3.85366H18.0732ZM16.3171 3.85366V5.60976H14.561V3.85366H16.3171ZM14.561 3.85366V5.60976H12.8049V3.85366H14.561ZM12.8049 3.85366V5.60976H11.0488V3.85366H12.8049ZM11.0488 3.85366V5.60976H9.29268V3.85366H11.0488ZM11.0488 5.60976V7.36586H9.29268V5.60976H11.0488ZM11.0488 7.36586V9.12195H9.29268V7.36586H11.0488ZM12.8049 5.60976V7.36586H11.0488V5.60976H12.8049ZM14.561 5.60976V7.36586H12.8049V5.60976H14.561ZM16.3171 5.60976V7.36586H14.561V5.60976H16.3171ZM18.0732 5.60976V7.36586H16.3171V5.60976H18.0732ZM19.8293 5.60976V7.36586H18.0732V5.60976H19.8293ZM19.8293 7.36586V9.12195H18.0732V7.36586H19.8293ZM18.0732 7.36586V9.12195H16.3171V7.36586H18.0732ZM16.3171 7.36586V9.12195H14.561V7.36586H16.3171ZM14.561 7.36586V9.12195H12.8049V7.36586H14.561ZM12.8049 7.36586V9.12195H11.0488V7.36586H12.8049ZM11.0488 9.12195V10.8781H9.29268V9.12195H11.0488ZM12.8049 9.12195V10.8781H11.0488V9.12195H12.8049ZM19.8293 9.12195V10.8781H18.0732V9.12195H19.8293ZM18.0732 9.12195V10.8781H16.3171V9.12195H18.0732ZM19.8293 10.8781V12.6341H18.0732V10.8781H19.8293ZM11.0488 10.8781V12.6341H9.29268V10.8781H11.0488ZM7.53658 7.36586V9.12195H5.78049V7.36586H7.53658ZM7.53658 9.12195V10.8781H5.78049V9.12195H7.53658ZM5.78049 9.12195V10.8781H4.02439V9.12195H5.78049ZM4.02439 10.8781V12.6341H2.26829V10.8781H4.02439ZM2.26829 12.6341V14.3902H0.512195V12.6341H2.26829ZM11.0488 12.6341V14.3902H9.29268V12.6341H11.0488ZM12.8049 10.8781V12.6341H11.0488V10.8781H12.8049ZM14.561 9.12195V10.8781H12.8049V9.12195H14.561ZM16.3171 9.12195V10.8781H14.561V9.12195H16.3171ZM18.0732 10.8781V12.6341H16.3171V10.8781H18.0732ZM19.8293 12.6341V14.3902H18.0732V12.6341H19.8293ZM11.0488 33.7073V35.4634H9.29268V33.7073H11.0488ZM12.8049 33.7073V35.4634H11.0488V33.7073H12.8049ZM14.561 33.7073V35.4634H12.8049V33.7073H14.561ZM16.3171 33.7073V35.4634H14.561V33.7073H16.3171ZM18.0732 33.7073V35.4634H16.3171V33.7073H18.0732ZM19.8293 33.7073V35.4634H18.0732V33.7073H19.8293ZM19.8293 31.9512V33.7073H18.0732V31.9512H19.8293ZM18.0732 31.9512V33.7073H16.3171V31.9512H18.0732ZM16.3171 31.9512V33.7073H14.561V31.9512H16.3171ZM14.561 31.9512V33.7073H12.8049V31.9512H14.561ZM12.8049 31.9512V33.7073H11.0488V31.9512H12.8049ZM11.0488 31.9512V33.7073H9.29268V31.9512H11.0488ZM11.0488 30.1951V31.9512H9.29268V30.1951H11.0488ZM12.8049 30.1951V31.9512H11.0488V30.1951H12.8049ZM14.561 30.1951V31.9512H12.8049V30.1951H14.561ZM16.3171 30.1951V31.9512H14.561V30.1951H16.3171ZM18.0732 30.1951V31.9512H16.3171V30.1951H18.0732ZM19.8293 30.1951V31.9512H18.0732V30.1951H19.8293ZM19.8293 28.439V30.1951H18.0732V28.439H19.8293ZM18.0732 28.439V30.1951H16.3171V28.439H18.0732ZM16.3171 28.439V30.1951H14.561V28.439H16.3171ZM14.561 28.439V30.1951H12.8049V28.439H14.561ZM12.8049 28.439V30.1951H11.0488V28.439H12.8049ZM11.0488 28.439V30.1951H9.29268V28.439H11.0488ZM11.0488 26.6829V28.439H9.29268V26.6829H11.0488ZM12.8049 26.6829V28.439H11.0488V26.6829H12.8049ZM14.561 26.6829V28.439H12.8049V26.6829H14.561ZM16.3171 26.6829V28.439H14.561V26.6829H16.3171ZM18.0732 26.6829V28.439H16.3171V26.6829H18.0732ZM19.8293 26.6829V28.439H18.0732V26.6829H19.8293ZM14.561 10.8781V12.6341H12.8049V10.8781H14.561ZM16.3171 10.8781V12.6341H14.561V10.8781H16.3171ZM12.8049 12.6341V14.3902H11.0488V12.6341H12.8049ZM11.0488 14.3902V16.1463H9.29268V14.3902H11.0488ZM18.0732 12.6341V14.3902H16.3171V12.6341H18.0732ZM19.8293 14.3902V16.1463H18.0732V14.3902H19.8293ZM37.4245 12.6341V14.3902H35.6684V12.6341H37.4245ZM39.1806 12.6341V14.3902H37.4245V12.6341H39.1806ZM40.9367 12.6341V14.3902H39.1806V12.6341H40.9367ZM40.9367 14.3902V16.1463H39.1806V14.3902H40.9367ZM42.6928 14.3902V16.1463H40.9367V14.3902H42.6928ZM44.4489 16.1463V17.9024H42.6928V16.1463H44.4489ZM44.4489 17.9024V19.6585H42.6928V17.9024H44.4489ZM44.4489 14.3902V16.1463H42.6928V14.3902H44.4489ZM44.4489 12.6341V14.3902H42.6928V12.6341H44.4489ZM42.6928 12.6341V14.3902H40.9367V12.6341H42.6928ZM39.1806 14.3902V16.1463H37.4245V14.3902H39.1806ZM39.1806 16.1463V17.9024H37.4245V16.1463H39.1806ZM37.4245 16.1463V17.9024H35.6684V16.1463H37.4245ZM37.4245 14.3902V16.1463H35.6684V14.3902H37.4245ZM37.4245 17.9024V19.6585H35.6684V17.9024H37.4245ZM37.4245 19.6585V21.4146H35.6684V19.6585H37.4245ZM37.4245 21.4146V23.1707H35.6684V21.4146H37.4245ZM39.1806 21.4146V23.1707H37.4245V21.4146H39.1806ZM40.9367 21.4146V23.1707H39.1806V21.4146H40.9367ZM42.6928 21.4146V23.1707H40.9367V21.4146H42.6928ZM44.4489 21.4146V23.1707H42.6928V21.4146H44.4489ZM44.4489 19.6585V21.4146H42.6928V19.6585H44.4489ZM42.6928 19.6585V21.4146H40.9367V19.6585H42.6928ZM42.6928 17.9024V19.6585H40.9367V17.9024H42.6928ZM42.6928 16.1463V17.9024H40.9367V16.1463H42.6928ZM40.9367 16.1463V17.9024H39.1806V16.1463H40.9367ZM40.9367 17.9024V19.6585H39.1806V17.9024H40.9367ZM39.1806 17.9024V19.6585H37.4245V17.9024H39.1806ZM39.1806 19.6585V21.4146H37.4245V19.6585H39.1806ZM40.9367 19.6585V21.4146H39.1806V19.6585H40.9367ZM39.1806 23.1707V24.9268H37.4245V23.1707H39.1806ZM40.9367 23.1707V24.9268H39.1806V23.1707H40.9367ZM40.9367 24.9268V26.6829H39.1806V24.9268H40.9367ZM42.6928 24.9268V26.6829H40.9367V24.9268H42.6928ZM42.6928 26.6829V28.439H40.9367V26.6829H42.6928ZM44.4489 26.6829V28.439H42.6928V26.6829H44.4489ZM44.4489 28.439V30.1951H42.6928V28.439H44.4489ZM44.4489 30.1951V31.9512H42.6928V30.1951H44.4489ZM44.4489 31.9512V33.7073H42.6928V31.9512H44.4489ZM42.6928 31.9512V33.7073H40.9367V31.9512H42.6928ZM42.6928 30.1951V31.9512H40.9367V30.1951H42.6928ZM40.9367 33.7073V35.4634H39.1806V33.7073H40.9367ZM40.9367 31.9512V33.7073H39.1806V31.9512H40.9367ZM40.9367 35.4634V37.2195H39.1806V35.4634H40.9367ZM39.1806 35.4634V37.2195H37.4245V35.4634H39.1806ZM39.1806 33.7073V35.4634H37.4245V33.7073H39.1806ZM37.4245 35.4634V37.2195H35.6684V35.4634H37.4245ZM40.9367 37.2195V38.9756H39.1806V37.2195H40.9367ZM42.6928 37.2195V38.9756H40.9367V37.2195H42.6928ZM44.4489 37.2195V38.9756H42.6928V37.2195H44.4489ZM44.4489 35.4634V37.2195H42.6928V35.4634H44.4489ZM46.205 35.4634V37.2195H44.4489V35.4634H46.205ZM46.205 33.7073V35.4634H44.4489V33.7073H46.205ZM47.9611 33.7073V35.4634H46.205V33.7073H47.9611ZM47.9611 31.9512V33.7073H46.205V31.9512H47.9611ZM49.7172 31.9512V33.7073H47.9611V31.9512H49.7172ZM51.4733 31.9512V33.7073H49.7172V31.9512H51.4733ZM53.2294 31.9512V33.7073H51.4733V31.9512H53.2294ZM53.2294 33.7073V35.4634H51.4733V33.7073H53.2294ZM54.9855 33.7073V35.4634H53.2294V33.7073H54.9855ZM54.9855 35.4634V37.2195H53.2294V35.4634H54.9855ZM56.7416 35.4634V37.2195H54.9855V35.4634H56.7416ZM56.7416 37.2195V38.9756H54.9855V37.2195H56.7416ZM58.4977 37.2195V38.9756H56.7416V37.2195H58.4977ZM58.4977 35.4634V37.2195H56.7416V35.4634H58.4977ZM60.2538 35.4634V37.2195H58.4977V35.4634H60.2538ZM62.0099 35.4634V37.2195H60.2538V35.4634H62.0099ZM63.766 35.4634V37.2195H62.0099V35.4634H63.766ZM63.766 37.2195V38.9756H62.0099V37.2195H63.766ZM62.0099 33.7073V35.4634H60.2538V33.7073H62.0099ZM60.2538 33.7073V35.4634H58.4977V33.7073H60.2538ZM60.2538 31.9512V33.7073H58.4977V31.9512H60.2538ZM58.4977 31.9512V33.7073H56.7416V31.9512H58.4977ZM56.7416 31.9512V33.7073H54.9855V31.9512H56.7416ZM56.7416 30.1951V31.9512H54.9855V30.1951H56.7416ZM54.9855 31.9512V33.7073H53.2294V31.9512H54.9855ZM58.4977 33.7073V35.4634H56.7416V33.7073H58.4977ZM56.7416 33.7073V35.4634H54.9855V33.7073H56.7416ZM47.9611 28.439V30.1951H46.205V28.439H47.9611ZM49.7172 28.439V30.1951H47.9611V28.439H49.7172ZM51.4733 28.439V30.1951H49.7172V28.439H51.4733ZM53.2294 28.439V30.1951H51.4733V28.439H53.2294ZM54.9855 28.439V30.1951H53.2294V28.439H54.9855ZM56.7416 28.439V30.1951H54.9855V28.439H56.7416ZM54.9855 30.1951V31.9512H53.2294V30.1951H54.9855ZM53.2294 30.1951V31.9512H51.4733V30.1951H53.2294ZM51.4733 30.1951V31.9512H49.7172V30.1951H51.4733ZM49.7172 30.1951V31.9512H47.9611V30.1951H49.7172ZM47.9611 30.1951V31.9512H46.205V30.1951H47.9611ZM46.205 30.1951V31.9512H44.4489V30.1951H46.205ZM46.205 28.439V30.1951H44.4489V28.439H46.205ZM46.205 31.9512V33.7073H44.4489V31.9512H46.205ZM44.4489 33.7073V35.4634H42.6928V33.7073H44.4489ZM42.6928 35.4634V37.2195H40.9367V35.4634H42.6928ZM42.6928 33.7073V35.4634H40.9367V33.7073H42.6928ZM58.4977 30.1951V31.9512H56.7416V30.1951H58.4977ZM58.4977 26.6829V28.439H56.7416V26.6829H58.4977ZM58.4977 24.9268V26.6829H56.7416V24.9268H58.4977ZM60.2538 24.9268V26.6829H58.4977V24.9268H60.2538ZM60.2538 23.1707V24.9268H58.4977V23.1707H60.2538ZM62.0099 23.1707V24.9268H60.2538V23.1707H62.0099ZM62.0099 21.4146V23.1707H60.2538V21.4146H62.0099ZM63.766 21.4146V23.1707H62.0099V21.4146H63.766ZM63.766 19.6585V21.4146H62.0099V19.6585H63.766ZM63.766 17.9024V19.6585H62.0099V17.9024H63.766ZM63.766 16.1463V17.9024H62.0099V16.1463H63.766ZM63.766 14.3902V16.1463H62.0099V14.3902H63.766ZM63.766 12.6341V14.3902H62.0099V12.6341H63.766ZM62.0099 12.6341V14.3902H60.2538V12.6341H62.0099ZM60.2538 12.6341V14.3902H58.4977V12.6341H60.2538ZM58.4977 12.6341V14.3902H56.7416V12.6341H58.4977ZM56.7416 12.6341V14.3902H54.9855V12.6341H56.7416ZM56.7416 14.3902V16.1463H54.9855V14.3902H56.7416ZM56.7416 16.1463V17.9024H54.9855V16.1463H56.7416ZM56.7416 17.9024V19.6585H54.9855V17.9024H56.7416ZM56.7416 19.6585V21.4146H54.9855V19.6585H56.7416ZM56.7416 21.4146V23.1707H54.9855V21.4146H56.7416ZM54.9855 21.4146V23.1707H53.2294V21.4146H54.9855ZM54.9855 23.1707V24.9268H53.2294V23.1707H54.9855ZM53.2294 23.1707V24.9268H51.4733V23.1707H53.2294ZM53.2294 24.9268V26.6829H51.4733V24.9268H53.2294ZM51.4733 24.9268V26.6829H49.7172V24.9268H51.4733ZM49.7172 24.9268V26.6829H47.9611V24.9268H49.7172ZM47.9611 23.1707V24.9268H46.205V23.1707H47.9611ZM46.205 23.1707V24.9268H44.4489V23.1707H46.205ZM46.205 21.4146V23.1707H44.4489V21.4146H46.205ZM44.4489 23.1707V24.9268H42.6928V23.1707H44.4489ZM42.6928 23.1707V24.9268H40.9367V23.1707H42.6928ZM44.4489 24.9268V26.6829H42.6928V24.9268H44.4489ZM46.205 24.9268V26.6829H44.4489V24.9268H46.205ZM47.9611 24.9268V26.6829H46.205V24.9268H47.9611ZM47.9611 26.6829V28.439H46.205V26.6829H47.9611ZM46.205 26.6829V28.439H44.4489V26.6829H46.205ZM49.7172 26.6829V28.439H47.9611V26.6829H49.7172ZM51.4733 26.6829V28.439H49.7172V26.6829H51.4733ZM53.2294 26.6829V28.439H51.4733V26.6829H53.2294ZM54.9855 26.6829V28.439H53.2294V26.6829H54.9855ZM56.7416 26.6829V28.439H54.9855V26.6829H56.7416ZM56.7416 24.9268V26.6829H54.9855V24.9268H56.7416ZM54.9855 24.9268V26.6829H53.2294V24.9268H54.9855ZM58.4977 14.3902V16.1463H56.7416V14.3902H58.4977ZM60.2538 14.3902V16.1463H58.4977V14.3902H60.2538ZM62.0099 14.3902V16.1463H60.2538V14.3902H62.0099ZM62.0099 16.1463V17.9024H60.2538V16.1463H62.0099ZM62.0099 17.9024V19.6585H60.2538V17.9024H62.0099ZM62.0099 19.6585V21.4146H60.2538V19.6585H62.0099ZM60.2538 19.6585V21.4146H58.4977V19.6585H60.2538ZM60.2538 17.9024V19.6585H58.4977V17.9024H60.2538ZM60.2538 16.1463V17.9024H58.4977V16.1463H60.2538ZM58.4977 16.1463V17.9024H56.7416V16.1463H58.4977ZM58.4977 17.9024V19.6585H56.7416V17.9024H58.4977ZM58.4977 19.6585V21.4146H56.7416V19.6585H58.4977ZM58.4977 21.4146V23.1707H56.7416V21.4146H58.4977ZM60.2538 21.4146V23.1707H58.4977V21.4146H60.2538ZM58.4977 23.1707V24.9268H56.7416V23.1707H58.4977ZM56.7416 23.1707V24.9268H54.9855V23.1707H56.7416ZM37.4245 37.2195V38.9756H35.6684V37.2195H37.4245ZM39.1806 37.2195V38.9756H37.4245V37.2195H39.1806ZM60.2538 37.2195V38.9756H58.4977V37.2195H60.2538ZM62.0099 37.2195V38.9756H60.2538V37.2195H62.0099ZM56.7416 38.9756V40.7317H54.9855V38.9756H56.7416ZM56.7416 40.7317V42.4878H54.9855V40.7317H56.7416ZM56.7416 42.4878V44.2439H54.9855V42.4878H56.7416ZM56.7416 44.2439V46H54.9855V44.2439H56.7416ZM58.4977 44.2439V46H56.7416V44.2439H58.4977ZM60.2538 44.2439V46H58.4977V44.2439H60.2538ZM62.0099 44.2439V46H60.2538V44.2439H62.0099ZM63.766 44.2439V46H62.0099V44.2439H63.766ZM63.766 42.4878V44.2439H62.0099V42.4878H63.766ZM63.766 40.7317V42.4878H62.0099V40.7317H63.766ZM63.766 38.9756V40.7317H62.0099V38.9756H63.766ZM62.0099 38.9756V40.7317H60.2538V38.9756H62.0099ZM60.2538 38.9756V40.7317H58.4977V38.9756H60.2538ZM58.4977 38.9756V40.7317H56.7416V38.9756H58.4977ZM58.4977 40.7317V42.4878H56.7416V40.7317H58.4977ZM58.4977 42.4878V44.2439H56.7416V42.4878H58.4977ZM60.2538 42.4878V44.2439H58.4977V42.4878H60.2538ZM62.0099 42.4878V44.2439H60.2538V42.4878H62.0099ZM62.0099 40.7317V42.4878H60.2538V40.7317H62.0099ZM60.2538 40.7317V42.4878H58.4977V40.7317H60.2538ZM37.4245 38.9756V40.7317H35.6684V38.9756H37.4245ZM37.4245 40.7317V42.4878H35.6684V40.7317H37.4245ZM37.4245 42.4878V44.2439H35.6684V42.4878H37.4245ZM39.1806 42.4878V44.2439H37.4245V42.4878H39.1806ZM39.1806 44.2439V46H37.4245V44.2439H39.1806ZM37.4245 44.2439V46H35.6684V44.2439H37.4245ZM40.9367 44.2439V46H39.1806V44.2439H40.9367ZM42.6928 44.2439V46H40.9367V44.2439H42.6928ZM44.4489 44.2439V46H42.6928V44.2439H44.4489ZM44.4489 42.4878V44.2439H42.6928V42.4878H44.4489ZM44.4489 40.7317V42.4878H42.6928V40.7317H44.4489ZM44.4489 38.9756V40.7317H42.6928V38.9756H44.4489ZM42.6928 38.9756V40.7317H40.9367V38.9756H42.6928ZM42.6928 40.7317V42.4878H40.9367V40.7317H42.6928ZM42.6928 42.4878V44.2439H40.9367V42.4878H42.6928ZM40.9367 42.4878V44.2439H39.1806V42.4878H40.9367ZM40.9367 40.7317V42.4878H39.1806V40.7317H40.9367ZM40.9367 38.9756V40.7317H39.1806V38.9756H40.9367ZM39.1806 40.7317V42.4878H37.4245V40.7317H39.1806ZM39.1806 38.9756V40.7317H37.4245V38.9756H39.1806ZM90.1418 23.1707V24.9268H88.3857V23.1707H90.1418ZM91.8979 23.1707V24.9268H90.1418V23.1707H91.8979ZM93.654 23.1707V24.9268H91.8979V23.1707H93.654ZM95.4101 23.1707V24.9268H93.654V23.1707H95.4101ZM97.1662 23.1707V24.9268H95.4101V23.1707H97.1662ZM97.1662 21.4146V23.1707H95.4101V21.4146H97.1662ZM97.1662 19.6585V21.4146H95.4101V19.6585H97.1662ZM95.4101 19.6585V21.4146H93.654V19.6585H95.4101ZM93.654 19.6585V21.4146H91.8979V19.6585H93.654ZM91.8979 19.6585V21.4146H90.1418V19.6585H91.8979ZM91.8979 21.4146V23.1707H90.1418V21.4146H91.8979ZM90.1418 21.4146V23.1707H88.3857V21.4146H90.1418ZM93.654 21.4146V23.1707H91.8979V21.4146H93.654ZM95.4101 21.4146V23.1707H93.654V21.4146H95.4101ZM90.1418 19.6585V21.4146H88.3857V19.6585H90.1418ZM88.3857 19.6585V21.4146H86.6296V19.6585H88.3857ZM88.3857 17.9024V19.6585H86.6296V17.9024H88.3857ZM90.1418 17.9024V19.6585H88.3857V17.9024H90.1418ZM91.8979 17.9024V19.6585H90.1418V17.9024H91.8979ZM93.654 17.9024V19.6585H91.8979V17.9024H93.654ZM95.4101 17.9024V19.6585H93.654V17.9024H95.4101ZM95.4101 16.1463V17.9024H93.654V16.1463H95.4101ZM93.654 16.1463V17.9024H91.8979V16.1463H93.654ZM91.8979 16.1463V17.9024H90.1418V16.1463H91.8979ZM90.1418 16.1463V17.9024H88.3857V16.1463H90.1418ZM88.3857 16.1463V17.9024H86.6296V16.1463H88.3857ZM91.8979 14.3902V16.1463H90.1418V14.3902H91.8979ZM93.654 14.3902V16.1463H91.8979V14.3902H93.654ZM90.1418 14.3902V16.1463H88.3857V14.3902H90.1418ZM90.1418 12.6341V14.3902H88.3857V12.6341H90.1418ZM88.3857 12.6341V14.3902H86.6296V12.6341H88.3857ZM88.3857 14.3902V16.1463H86.6296V14.3902H88.3857ZM86.6296 14.3902V16.1463H84.8735V14.3902H86.6296ZM86.6296 12.6341V14.3902H84.8735V12.6341H86.6296ZM86.6296 16.1463V17.9024H84.8735V16.1463H86.6296ZM84.8735 16.1463V17.9024H83.1174V16.1463H84.8735ZM84.8735 17.9024V19.6585H83.1174V17.9024H84.8735ZM86.6296 17.9024V19.6585H84.8735V17.9024H86.6296ZM83.1174 17.9024V19.6585H81.3613V17.9024H83.1174ZM83.1174 16.1463V17.9024H81.3613V16.1463H83.1174ZM83.1174 14.3902V16.1463H81.3613V14.3902H83.1174ZM83.1174 12.6341V14.3902H81.3613V12.6341H83.1174ZM84.8735 12.6341V14.3902H83.1174V12.6341H84.8735ZM84.8735 14.3902V16.1463H83.1174V14.3902H84.8735ZM81.3613 12.6341V14.3902H79.6052V12.6341H81.3613ZM79.6052 12.6341V14.3902H77.8491V12.6341H79.6052ZM77.8491 12.6341V14.3902H76.093V12.6341H77.8491ZM77.8491 14.3902V16.1463H76.093V14.3902H77.8491ZM77.8491 16.1463V17.9024H76.093V16.1463H77.8491ZM77.8491 17.9024V19.6585H76.093V17.9024H77.8491ZM79.6052 17.9024V19.6585H77.8491V17.9024H79.6052ZM81.3613 17.9024V19.6585H79.6052V17.9024H81.3613ZM81.3613 16.1463V17.9024H79.6052V16.1463H81.3613ZM81.3613 14.3902V16.1463H79.6052V14.3902H81.3613ZM79.6052 14.3902V16.1463H77.8491V14.3902H79.6052ZM79.6052 16.1463V17.9024H77.8491V16.1463H79.6052ZM76.093 16.1463V17.9024H74.3369V16.1463H76.093ZM76.093 14.3902V16.1463H74.3369V14.3902H76.093ZM74.3369 14.3902V16.1463H72.5808V14.3902H74.3369ZM74.3369 16.1463V17.9024H72.5808V16.1463H74.3369ZM72.5808 16.1463V17.9024H70.8247V16.1463H72.5808ZM72.5808 17.9024V19.6585H70.8247V17.9024H72.5808ZM72.5808 19.6585V21.4146H70.8247V19.6585H72.5808ZM74.3369 19.6585V21.4146H72.5808V19.6585H74.3369ZM74.3369 17.9024V19.6585H72.5808V17.9024H74.3369ZM76.093 17.9024V19.6585H74.3369V17.9024H76.093ZM76.093 19.6585V21.4146H74.3369V19.6585H76.093ZM77.8491 19.6585V21.4146H76.093V19.6585H77.8491ZM79.6052 19.6585V21.4146H77.8491V19.6585H79.6052ZM70.8247 19.6585V21.4146H69.0686V19.6585H70.8247ZM70.8247 21.4146V23.1707H69.0686V21.4146H70.8247ZM70.8247 23.1707V24.9268H69.0686V23.1707H70.8247ZM70.8247 24.9268V26.6829H69.0686V24.9268H70.8247ZM70.8247 26.6829V28.439H69.0686V26.6829H70.8247ZM70.8247 28.439V30.1951H69.0686V28.439H70.8247ZM70.8247 30.1951V31.9512H69.0686V30.1951H70.8247ZM70.8247 31.9512V33.7073H69.0686V31.9512H70.8247ZM70.8247 33.7073V35.4634H69.0686V33.7073H70.8247ZM70.8247 35.4634V37.2195H69.0686V35.4634H70.8247ZM72.5808 35.4634V37.2195H70.8247V35.4634H72.5808ZM72.5808 37.2195V38.9756H70.8247V37.2195H72.5808ZM70.8247 37.2195V38.9756H69.0686V37.2195H70.8247ZM74.3369 37.2195V38.9756H72.5808V37.2195H74.3369ZM76.093 37.2195V38.9756H74.3369V37.2195H76.093ZM77.8491 37.2195V38.9756H76.093V37.2195H77.8491ZM79.6052 37.2195V38.9756H77.8491V37.2195H79.6052ZM77.8491 35.4634V37.2195H76.093V35.4634H77.8491ZM77.8491 33.7073V35.4634H76.093V33.7073H77.8491ZM77.8491 31.9512V33.7073H76.093V31.9512H77.8491ZM77.8491 30.1951V31.9512H76.093V30.1951H77.8491ZM77.8491 28.439V30.1951H76.093V28.439H77.8491ZM77.8491 26.6829V28.439H76.093V26.6829H77.8491ZM77.8491 24.9268V26.6829H76.093V24.9268H77.8491ZM77.8491 23.1707V24.9268H76.093V23.1707H77.8491ZM77.8491 21.4146V23.1707H76.093V21.4146H77.8491ZM76.093 21.4146V23.1707H74.3369V21.4146H76.093ZM74.3369 21.4146V23.1707H72.5808V21.4146H74.3369ZM72.5808 21.4146V23.1707H70.8247V21.4146H72.5808ZM72.5808 23.1707V24.9268H70.8247V23.1707H72.5808ZM72.5808 24.9268V26.6829H70.8247V24.9268H72.5808ZM72.5808 26.6829V28.439H70.8247V26.6829H72.5808ZM72.5808 28.439V30.1951H70.8247V28.439H72.5808ZM72.5808 30.1951V31.9512H70.8247V30.1951H72.5808ZM72.5808 31.9512V33.7073H70.8247V31.9512H72.5808ZM72.5808 33.7073V35.4634H70.8247V33.7073H72.5808ZM74.3369 35.4634V37.2195H72.5808V35.4634H74.3369ZM76.093 35.4634V37.2195H74.3369V35.4634H76.093ZM76.093 33.7073V35.4634H74.3369V33.7073H76.093ZM76.093 31.9512V33.7073H74.3369V31.9512H76.093ZM76.093 30.1951V31.9512H74.3369V30.1951H76.093ZM76.093 28.439V30.1951H74.3369V28.439H76.093ZM74.3369 28.439V30.1951H72.5808V28.439H74.3369ZM74.3369 26.6829V28.439H72.5808V26.6829H74.3369ZM74.3369 24.9268V26.6829H72.5808V24.9268H74.3369ZM74.3369 23.1707V24.9268H72.5808V23.1707H74.3369ZM76.093 23.1707V24.9268H74.3369V23.1707H76.093ZM76.093 24.9268V26.6829H74.3369V24.9268H76.093ZM76.093 26.6829V28.439H74.3369V26.6829H76.093ZM74.3369 31.9512V33.7073H72.5808V31.9512H74.3369ZM74.3369 33.7073V35.4634H72.5808V33.7073H74.3369ZM74.3369 30.1951V31.9512H72.5808V30.1951H74.3369ZM90.1418 33.7073V35.4634H88.3857V33.7073H90.1418ZM90.1418 35.4634V37.2195H88.3857V35.4634H90.1418ZM91.8979 35.4634V37.2195H90.1418V35.4634H91.8979ZM93.654 35.4634V37.2195H91.8979V35.4634H93.654ZM95.4101 35.4634V37.2195H93.654V35.4634H95.4101ZM97.1662 35.4634V37.2195H95.4101V35.4634H97.1662ZM97.1662 33.7073V35.4634H95.4101V33.7073H97.1662ZM95.4101 33.7073V35.4634H93.654V33.7073H95.4101ZM93.654 33.7073V35.4634H91.8979V33.7073H93.654ZM91.8979 33.7073V35.4634H90.1418V33.7073H91.8979ZM97.1662 37.2195V38.9756H95.4101V37.2195H97.1662ZM95.4101 37.2195V38.9756H93.654V37.2195H95.4101ZM93.654 37.2195V38.9756H91.8979V37.2195H93.654ZM91.8979 37.2195V38.9756H90.1418V37.2195H91.8979ZM90.1418 37.2195V38.9756H88.3857V37.2195H90.1418ZM88.3857 37.2195V38.9756H86.6296V37.2195H88.3857ZM88.3857 38.9756V40.7317H86.6296V38.9756H88.3857ZM90.1418 38.9756V40.7317H88.3857V38.9756H90.1418ZM91.8979 38.9756V40.7317H90.1418V38.9756H91.8979ZM93.654 38.9756V40.7317H91.8979V38.9756H93.654ZM93.654 40.7317V42.4878H91.8979V40.7317H93.654ZM95.4101 40.7317V42.4878H93.654V40.7317H95.4101ZM95.4101 38.9756V40.7317H93.654V38.9756H95.4101ZM93.654 42.4878V44.2439H91.8979V42.4878H93.654ZM91.8979 42.4878V44.2439H90.1418V42.4878H91.8979ZM91.8979 40.7317V42.4878H90.1418V40.7317H91.8979ZM90.1418 40.7317V42.4878H88.3857V40.7317H90.1418ZM90.1418 42.4878V44.2439H88.3857V42.4878H90.1418ZM90.1418 44.2439V46H88.3857V44.2439H90.1418ZM88.3857 44.2439V46H86.6296V44.2439H88.3857ZM86.6296 44.2439V46H84.8735V44.2439H86.6296ZM84.8735 44.2439V46H83.1174V44.2439H84.8735ZM83.1174 44.2439V46H81.3613V44.2439H83.1174ZM81.3613 44.2439V46H79.6052V44.2439H81.3613ZM79.6052 44.2439V46H77.8491V44.2439H79.6052ZM77.8491 44.2439V46H76.093V44.2439H77.8491ZM79.6052 42.4878V44.2439H77.8491V42.4878H79.6052ZM81.3613 42.4878V44.2439H79.6052V42.4878H81.3613ZM83.1174 42.4878V44.2439H81.3613V42.4878H83.1174ZM84.8735 42.4878V44.2439H83.1174V42.4878H84.8735ZM86.6296 42.4878V44.2439H84.8735V42.4878H86.6296ZM88.3857 42.4878V44.2439H86.6296V42.4878H88.3857ZM88.3857 40.7317V42.4878H86.6296V40.7317H88.3857ZM86.6296 40.7317V42.4878H84.8735V40.7317H86.6296ZM84.8735 40.7317V42.4878H83.1174V40.7317H84.8735ZM83.1174 40.7317V42.4878H81.3613V40.7317H83.1174ZM81.3613 40.7317V42.4878H79.6052V40.7317H81.3613ZM79.6052 40.7317V42.4878H77.8491V40.7317H79.6052ZM77.8491 42.4878V44.2439H76.093V42.4878H77.8491ZM76.093 42.4878V44.2439H74.3369V42.4878H76.093ZM74.3369 42.4878V44.2439H72.5808V42.4878H74.3369ZM74.3369 40.7317V42.4878H72.5808V40.7317H74.3369ZM72.5808 40.7317V42.4878H70.8247V40.7317H72.5808ZM72.5808 38.9756V40.7317H70.8247V38.9756H72.5808ZM74.3369 38.9756V40.7317H72.5808V38.9756H74.3369ZM76.093 38.9756V40.7317H74.3369V38.9756H76.093ZM77.8491 38.9756V40.7317H76.093V38.9756H77.8491ZM79.6052 38.9756V40.7317H77.8491V38.9756H79.6052ZM81.3613 38.9756V40.7317H79.6052V38.9756H81.3613ZM83.1174 38.9756V40.7317H81.3613V38.9756H83.1174ZM84.8735 38.9756V40.7317H83.1174V38.9756H84.8735ZM86.6296 38.9756V40.7317H84.8735V38.9756H86.6296ZM77.8491 40.7317V42.4878H76.093V40.7317H77.8491ZM76.093 40.7317V42.4878H74.3369V40.7317H76.093ZM90.1418 24.9268V26.6829H88.3857V24.9268H90.1418ZM90.1418 26.6829V28.439H88.3857V26.6829H90.1418ZM91.8979 26.6829V28.439H90.1418V26.6829H91.8979ZM93.654 26.6829V28.439H91.8979V26.6829H93.654ZM95.4101 26.6829V28.439H93.654V26.6829H95.4101ZM97.1662 26.6829V28.439H95.4101V26.6829H97.1662ZM97.1662 24.9268V26.6829H95.4101V24.9268H97.1662ZM95.4101 24.9268V26.6829H93.654V24.9268H95.4101ZM93.654 24.9268V26.6829H91.8979V24.9268H93.654ZM91.8979 24.9268V26.6829H90.1418V24.9268H91.8979ZM91.8979 28.439V30.1951H90.1418V28.439H91.8979ZM93.654 28.439V30.1951H91.8979V28.439H93.654ZM93.654 30.1951V31.9512H91.8979V30.1951H93.654ZM95.4101 30.1951V31.9512H93.654V30.1951H95.4101ZM95.4101 28.439V30.1951H93.654V28.439H95.4101ZM97.1662 28.439V30.1951H95.4101V28.439H97.1662ZM97.1662 30.1951V31.9512H95.4101V30.1951H97.1662ZM97.1662 31.9512V33.7073H95.4101V31.9512H97.1662ZM95.4101 31.9512V33.7073H93.654V31.9512H95.4101ZM93.654 31.9512V33.7073H91.8979V31.9512H93.654ZM91.8979 31.9512V33.7073H90.1418V31.9512H91.8979ZM91.8979 30.1951V31.9512H90.1418V30.1951H91.8979ZM90.1418 30.1951V31.9512H88.3857V30.1951H90.1418ZM90.1418 28.439V30.1951H88.3857V28.439H90.1418ZM90.1418 31.9512V33.7073H88.3857V31.9512H90.1418ZM104.221 44.2439V46H102.465V44.2439H104.221ZM104.221 42.4878V44.2439H102.465V42.4878H104.221ZM104.221 40.7317V42.4878H102.465V40.7317H104.221ZM104.221 38.9756V40.7317H102.465V38.9756H104.221ZM104.221 37.2195V38.9756H102.465V37.2195H104.221ZM104.221 35.4634V37.2195H102.465V35.4634H104.221ZM104.221 33.7073V35.4634H102.465V33.7073H104.221ZM104.221 31.9512V33.7073H102.465V31.9512H104.221ZM104.221 30.1951V31.9512H102.465V30.1951H104.221ZM104.221 28.439V30.1951H102.465V28.439H104.221ZM104.221 26.6829V28.439H102.465V26.6829H104.221ZM104.221 24.9268V26.6829H102.465V24.9268H104.221ZM104.221 23.1707V24.9268H102.465V23.1707H104.221ZM104.221 21.4146V23.1707H102.465V21.4146H104.221ZM104.221 19.6585V21.4146H102.465V19.6585H104.221ZM105.978 19.6585V21.4146H104.221V19.6585H105.978ZM105.978 21.4146V23.1707H104.221V21.4146H105.978ZM105.978 23.1707V24.9268H104.221V23.1707H105.978ZM105.978 24.9268V26.6829H104.221V24.9268H105.978ZM105.978 26.6829V28.439H104.221V26.6829H105.978ZM105.978 28.439V30.1951H104.221V28.439H105.978ZM105.978 30.1951V31.9512H104.221V30.1951H105.978ZM107.734 31.9512V33.7073H105.978V31.9512H107.734ZM107.734 33.7073V35.4634H105.978V33.7073H107.734ZM107.734 35.4634V37.2195H105.978V35.4634H107.734ZM107.734 37.2195V38.9756H105.978V37.2195H107.734ZM107.734 38.9756V40.7317H105.978V38.9756H107.734ZM107.734 40.7317V42.4878H105.978V40.7317H107.734ZM107.734 42.4878V44.2439H105.978V42.4878H107.734ZM107.734 44.2439V46H105.978V44.2439H107.734ZM109.49 44.2439V46H107.734V44.2439H109.49ZM111.246 44.2439V46H109.49V44.2439H111.246ZM111.246 42.4878V44.2439H109.49V42.4878H111.246ZM111.246 40.7317V42.4878H109.49V40.7317H111.246ZM111.246 38.9756V40.7317H109.49V38.9756H111.246ZM111.246 37.2195V38.9756H109.49V37.2195H111.246ZM111.246 35.4634V37.2195H109.49V35.4634H111.246ZM111.246 33.7073V35.4634H109.49V33.7073H111.246ZM111.246 31.9512V33.7073H109.49V31.9512H111.246ZM109.49 31.9512V33.7073H107.734V31.9512H109.49ZM109.49 30.1951V31.9512H107.734V30.1951H109.49ZM109.49 33.7073V35.4634H107.734V33.7073H109.49ZM109.49 35.4634V37.2195H107.734V35.4634H109.49ZM109.49 37.2195V38.9756H107.734V37.2195H109.49ZM109.49 38.9756V40.7317H107.734V38.9756H109.49ZM109.49 40.7317V42.4878H107.734V40.7317H109.49ZM109.49 42.4878V44.2439H107.734V42.4878H109.49ZM105.978 44.2439V46H104.221V44.2439H105.978ZM105.978 42.4878V44.2439H104.221V42.4878H105.978ZM105.978 40.7317V42.4878H104.221V40.7317H105.978ZM105.978 38.9756V40.7317H104.221V38.9756H105.978ZM105.978 37.2195V38.9756H104.221V37.2195H105.978ZM105.978 35.4634V37.2195H104.221V35.4634H105.978ZM105.978 33.7073V35.4634H104.221V33.7073H105.978ZM105.978 31.9512V33.7073H104.221V31.9512H105.978ZM104.221 12.6341V14.3902H102.465V12.6341H104.221ZM104.221 14.3902V16.1463H102.465V14.3902H104.221ZM104.221 16.1463V17.9024H102.465V16.1463H104.221ZM104.221 17.9024V19.6585H102.465V17.9024H104.221ZM109.49 14.3902V16.1463H107.734V14.3902H109.49ZM109.49 16.1463V17.9024H107.734V16.1463H109.49ZM109.49 17.9024V19.6585H107.734V17.9024H109.49ZM109.49 19.6585V21.4146H107.734V19.6585H109.49ZM109.49 21.4146V23.1707H107.734V21.4146H109.49ZM109.49 23.1707V24.9268H107.734V23.1707H109.49ZM109.49 24.9268V26.6829H107.734V24.9268H109.49ZM111.246 26.6829V28.439H109.49V26.6829H111.246ZM111.246 28.439V30.1951H109.49V28.439H111.246ZM111.246 30.1951V31.9512H109.49V30.1951H111.246ZM111.246 24.9268V26.6829H109.49V24.9268H111.246ZM111.246 23.1707V24.9268H109.49V23.1707H111.246ZM111.246 21.4146V23.1707H109.49V21.4146H111.246ZM111.246 19.6585V21.4146H109.49V19.6585H111.246ZM111.246 17.9024V19.6585H109.49V17.9024H111.246ZM111.246 16.1463V17.9024H109.49V16.1463H111.246ZM111.246 14.3902V16.1463H109.49V14.3902H111.246ZM111.246 12.6341V14.3902H109.49V12.6341H111.246ZM109.49 12.6341V14.3902H107.734V12.6341H109.49ZM107.734 12.6341V14.3902H105.978V12.6341H107.734ZM107.734 14.3902V16.1463H105.978V14.3902H107.734ZM105.978 16.1463V17.9024H104.221V16.1463H105.978ZM105.978 17.9024V19.6585H104.221V17.9024H105.978ZM105.978 14.3902V16.1463H104.221V14.3902H105.978ZM105.978 12.6341V14.3902H104.221V12.6341H105.978ZM107.734 16.1463V17.9024H105.978V16.1463H107.734ZM107.734 17.9024V19.6585H105.978V17.9024H107.734ZM107.734 19.6585V21.4146H105.978V19.6585H107.734ZM107.734 21.4146V23.1707H105.978V21.4146H107.734ZM107.734 23.1707V24.9268H105.978V23.1707H107.734ZM107.734 24.9268V26.6829H105.978V24.9268H107.734ZM107.734 26.6829V28.439H105.978V26.6829H107.734ZM107.734 28.439V30.1951H105.978V28.439H107.734ZM107.734 30.1951V31.9512H105.978V30.1951H107.734ZM109.49 28.439V30.1951H107.734V28.439H109.49ZM109.49 26.6829V28.439H107.734V26.6829H109.49ZM123.538 44.2439V46H121.782V44.2439H123.538ZM125.295 44.2439V46H123.538V44.2439H125.295ZM127.051 44.2439V46H125.295V44.2439H127.051ZM128.807 44.2439V46H127.051V44.2439H128.807ZM130.563 42.4878V44.2439H128.807V42.4878H130.563ZM130.563 40.7317V42.4878H128.807V40.7317H130.563ZM130.563 44.2439V46H128.807V44.2439H130.563ZM128.807 42.4878V44.2439H127.051V42.4878H128.807ZM127.051 42.4878V44.2439H125.295V42.4878H127.051ZM125.295 42.4878V44.2439H123.538V42.4878H125.295ZM123.538 42.4878V44.2439H121.782V42.4878H123.538ZM123.538 40.7317V42.4878H121.782V40.7317H123.538ZM123.538 38.9756V40.7317H121.782V38.9756H123.538ZM125.295 38.9756V40.7317H123.538V38.9756H125.295ZM127.051 38.9756V40.7317H125.295V38.9756H127.051ZM128.807 38.9756V40.7317H127.051V38.9756H128.807ZM130.563 38.9756V40.7317H128.807V38.9756H130.563ZM128.807 40.7317V42.4878H127.051V40.7317H128.807ZM127.051 40.7317V42.4878H125.295V40.7317H127.051ZM125.295 40.7317V42.4878H123.538V40.7317H125.295ZM130.563 19.6585V21.4146H128.807V19.6585H130.563ZM128.807 19.6585V21.4146H127.051V19.6585H128.807ZM125.295 19.6585V21.4146H123.538V19.6585H125.295ZM125.295 21.4146V23.1707H123.538V21.4146H125.295ZM125.295 23.1707V24.9268H123.538V23.1707H125.295ZM123.538 24.9268V26.6829H121.782V24.9268H123.538ZM123.538 26.6829V28.439H121.782V26.6829H123.538ZM123.538 28.439V30.1951H121.782V28.439H123.538ZM123.538 30.1951V31.9512H121.782V30.1951H123.538ZM123.538 31.9512V33.7073H121.782V31.9512H123.538ZM123.538 33.7073V35.4634H121.782V33.7073H123.538ZM123.538 35.4634V37.2195H121.782V35.4634H123.538ZM123.538 37.2195V38.9756H121.782V37.2195H123.538ZM125.295 37.2195V38.9756H123.538V37.2195H125.295ZM127.051 37.2195V38.9756H125.295V37.2195H127.051ZM128.807 37.2195V38.9756H127.051V37.2195H128.807ZM130.563 37.2195V38.9756H128.807V37.2195H130.563ZM130.563 35.4634V37.2195H128.807V35.4634H130.563ZM130.563 31.9512V33.7073H128.807V31.9512H130.563ZM130.563 30.1951V31.9512H128.807V30.1951H130.563ZM130.563 28.439V30.1951H128.807V28.439H130.563ZM130.563 26.6829V28.439H128.807V26.6829H130.563ZM130.563 24.9268V26.6829H128.807V24.9268H130.563ZM130.563 23.1707V24.9268H128.807V23.1707H130.563ZM130.563 21.4146V23.1707H128.807V21.4146H130.563ZM128.807 28.439V30.1951H127.051V28.439H128.807ZM128.807 31.9512V33.7073H127.051V31.9512H128.807ZM128.807 33.7073V35.4634H127.051V33.7073H128.807ZM128.807 35.4634V37.2195H127.051V35.4634H128.807ZM130.563 33.7073V35.4634H128.807V33.7073H130.563ZM128.807 24.9268V26.6829H127.051V24.9268H128.807ZM127.051 24.9268V26.6829H125.295V24.9268H127.051ZM125.295 24.9268V26.6829H123.538V24.9268H125.295ZM125.295 26.6829V28.439H123.538V26.6829H125.295ZM125.295 28.439V30.1951H123.538V28.439H125.295ZM125.295 30.1951V31.9512H123.538V30.1951H125.295ZM125.295 31.9512V33.7073H123.538V31.9512H125.295ZM125.295 33.7073V35.4634H123.538V33.7073H125.295ZM125.295 35.4634V37.2195H123.538V35.4634H125.295ZM127.051 35.4634V37.2195H125.295V35.4634H127.051ZM127.051 33.7073V35.4634H125.295V33.7073H127.051ZM127.051 31.9512V33.7073H125.295V31.9512H127.051ZM127.051 30.1951V31.9512H125.295V30.1951H127.051ZM127.051 28.439V30.1951H125.295V28.439H127.051ZM127.051 26.6829V28.439H125.295V26.6829H127.051ZM128.807 26.6829V28.439H127.051V26.6829H128.807ZM128.807 30.1951V31.9512H127.051V30.1951H128.807ZM128.807 23.1707V24.9268H127.051V23.1707H128.807ZM128.807 21.4146V23.1707H127.051V21.4146H128.807ZM127.051 21.4146V23.1707H125.295V21.4146H127.051ZM127.051 23.1707V24.9268H125.295V23.1707H127.051ZM123.538 23.1707V24.9268H121.782V23.1707H123.538ZM123.538 21.4146V23.1707H121.782V21.4146H123.538ZM123.538 19.6585V21.4146H121.782V19.6585H123.538ZM127.051 19.6585V21.4146H125.295V19.6585H127.051ZM123.538 12.6341V14.3902H121.782V12.6341H123.538ZM123.538 14.3902V16.1463H121.782V14.3902H123.538ZM125.295 14.3902V16.1463H123.538V14.3902H125.295ZM127.051 14.3902V16.1463H125.295V14.3902H127.051ZM127.051 16.1463V17.9024H125.295V16.1463H127.051ZM128.807 16.1463V17.9024H127.051V16.1463H128.807ZM128.807 17.9024V19.6585H127.051V17.9024H128.807ZM127.051 17.9024V19.6585H125.295V17.9024H127.051ZM125.295 17.9024V19.6585H123.538V17.9024H125.295ZM125.295 16.1463V17.9024H123.538V16.1463H125.295ZM123.538 16.1463V17.9024H121.782V16.1463H123.538ZM121.782 16.1463V17.9024H120.026V16.1463H121.782ZM121.782 17.9024V19.6585H120.026V17.9024H121.782ZM123.538 17.9024V19.6585H121.782V17.9024H123.538ZM121.782 19.6585V21.4146H120.026V19.6585H121.782ZM120.026 17.9024V19.6585H118.27V17.9024H120.026ZM120.026 16.1463V17.9024H118.27V16.1463H120.026ZM120.026 14.3902V16.1463H118.27V14.3902H120.026ZM120.026 12.6341V14.3902H118.27V12.6341H120.026ZM121.782 12.6341V14.3902H120.026V12.6341H121.782ZM121.782 14.3902V16.1463H120.026V14.3902H121.782ZM118.27 12.6341V14.3902H116.514V12.6341H118.27ZM118.27 14.3902V16.1463H116.514V14.3902H118.27ZM118.27 16.1463V17.9024H116.514V16.1463H118.27ZM118.27 17.9024V19.6585H116.514V17.9024H118.27ZM116.514 12.6341V14.3902H114.758V12.6341H116.514ZM116.514 14.3902V16.1463H114.758V14.3902H116.514ZM114.758 14.3902V16.1463H113.002V14.3902H114.758ZM114.758 16.1463V17.9024H113.002V16.1463H114.758ZM113.002 16.1463V17.9024H111.246V16.1463H113.002ZM113.002 17.9024V19.6585H111.246V17.9024H113.002ZM114.758 17.9024V19.6585H113.002V17.9024H114.758ZM116.514 17.9024V19.6585H114.758V17.9024H116.514ZM116.514 16.1463V17.9024H114.758V16.1463H116.514ZM113.002 19.6585V21.4146H111.246V19.6585H113.002ZM114.758 12.6341V14.3902H113.002V12.6341H114.758ZM113.002 14.3902V16.1463H111.246V14.3902H113.002Z" fill="#282A30"/>
<path d="M137.62 37.2195V38.9756H135.864V37.2195H137.62ZM137.62 35.4634V37.2195H135.864V35.4634H137.62ZM137.62 33.7073V35.4634H135.864V33.7073H137.62ZM137.62 31.9512V33.7073H135.864V31.9512H137.62ZM137.62 30.1951V31.9512H135.864V30.1951H137.62ZM137.62 28.439V30.1951H135.864V28.439H137.62ZM137.62 26.6829V28.439H135.864V26.6829H137.62ZM137.62 24.9268V26.6829H135.864V24.9268H137.62ZM137.62 23.1707V24.9268H135.864V23.1707H137.62ZM137.62 21.4146V23.1707H135.864V21.4146H137.62ZM137.62 19.6585V21.4146H135.864V19.6585H137.62ZM139.376 19.6585V21.4146H137.62V19.6585H139.376ZM139.376 21.4146V23.1707H137.62V21.4146H139.376ZM139.376 23.1707V24.9268H137.62V23.1707H139.376ZM139.376 24.9268V26.6829H137.62V24.9268H139.376ZM139.376 26.6829V28.439H137.62V26.6829H139.376ZM139.376 28.439V30.1951H137.62V28.439H139.376ZM139.376 30.1951V31.9512H137.62V30.1951H139.376ZM141.132 31.9512V33.7073H139.376V31.9512H141.132ZM141.132 33.7073V35.4634H139.376V33.7073H141.132ZM141.132 35.4634V37.2195H139.376V35.4634H141.132ZM141.132 37.2195V38.9756H139.376V37.2195H141.132ZM141.132 38.9756V40.7317H139.376V38.9756H141.132ZM141.132 40.7317V42.4878H139.376V40.7317H141.132ZM141.132 42.4878V44.2439H139.376V42.4878H141.132ZM144.644 44.2439V46H142.888V44.2439H144.644ZM144.644 42.4878V44.2439H142.888V42.4878H144.644ZM144.644 40.7317V42.4878H142.888V40.7317H144.644ZM144.644 38.9756V40.7317H142.888V38.9756H144.644ZM144.644 37.2195V38.9756H142.888V37.2195H144.644ZM144.644 35.4634V37.2195H142.888V35.4634H144.644ZM144.644 33.7073V35.4634H142.888V33.7073H144.644ZM144.644 31.9512V33.7073H142.888V31.9512H144.644ZM142.888 31.9512V33.7073H141.132V31.9512H142.888ZM142.888 30.1951V31.9512H141.132V30.1951H142.888ZM142.888 33.7073V35.4634H141.132V33.7073H142.888ZM142.888 35.4634V37.2195H141.132V35.4634H142.888ZM142.888 37.2195V38.9756H141.132V37.2195H142.888ZM142.888 38.9756V40.7317H141.132V38.9756H142.888ZM142.888 40.7317V42.4878H141.132V40.7317H142.888ZM142.888 42.4878V44.2439H141.132V42.4878H142.888ZM139.376 40.7317V42.4878H137.62V40.7317H139.376ZM139.376 38.9756V40.7317H137.62V38.9756H139.376ZM139.376 37.2195V38.9756H137.62V37.2195H139.376ZM139.376 35.4634V37.2195H137.62V35.4634H139.376ZM139.376 33.7073V35.4634H137.62V33.7073H139.376ZM139.376 31.9512V33.7073H137.62V31.9512H139.376ZM137.62 17.9024V19.6585H135.864V17.9024H137.62ZM142.888 17.9024V19.6585H141.132V17.9024H142.888ZM142.888 19.6585V21.4146H141.132V19.6585H142.888ZM142.888 21.4146V23.1707H141.132V21.4146H142.888ZM142.888 23.1707V24.9268H141.132V23.1707H142.888ZM142.888 24.9268V26.6829H141.132V24.9268H142.888ZM144.644 26.6829V28.439H142.888V26.6829H144.644ZM144.644 28.439V30.1951H142.888V28.439H144.644ZM144.644 30.1951V31.9512H142.888V30.1951H144.644ZM144.644 24.9268V26.6829H142.888V24.9268H144.644ZM144.644 23.1707V24.9268H142.888V23.1707H144.644ZM144.644 21.4146V23.1707H142.888V21.4146H144.644ZM144.644 19.6585V21.4146H142.888V19.6585H144.644ZM144.644 17.9024V19.6585H142.888V17.9024H144.644ZM139.376 17.9024V19.6585H137.62V17.9024H139.376ZM141.132 17.9024V19.6585H139.376V17.9024H141.132ZM141.132 19.6585V21.4146H139.376V19.6585H141.132ZM141.132 21.4146V23.1707H139.376V21.4146H141.132ZM141.132 23.1707V24.9268H139.376V23.1707H141.132ZM141.132 24.9268V26.6829H139.376V24.9268H141.132ZM141.132 26.6829V28.439H139.376V26.6829H141.132ZM141.132 28.439V30.1951H139.376V28.439H141.132ZM141.132 30.1951V31.9512H139.376V30.1951H141.132ZM142.888 28.439V30.1951H141.132V28.439H142.888ZM142.888 26.6829V28.439H141.132V26.6829H142.888ZM158.693 44.2439V46H156.937V44.2439H158.693ZM158.693 42.4878V44.2439H156.937V42.4878H158.693ZM158.693 40.7317V42.4878H156.937V40.7317H158.693ZM158.693 38.9756V40.7317H156.937V38.9756H158.693ZM158.693 37.2195V38.9756H156.937V37.2195H158.693ZM158.693 35.4634V37.2195H156.937V35.4634H158.693ZM158.693 33.7073V35.4634H156.937V33.7073H158.693ZM162.205 33.7073V35.4634H160.449V33.7073H162.205ZM162.205 35.4634V37.2195H160.449V35.4634H162.205ZM162.205 37.2195V38.9756H160.449V37.2195H162.205ZM162.205 38.9756V40.7317H160.449V38.9756H162.205ZM162.205 40.7317V42.4878H160.449V40.7317H162.205ZM162.205 42.4878V44.2439H160.449V42.4878H162.205ZM165.717 37.2195V38.9756H163.961V37.2195H165.717ZM165.717 35.4634V37.2195H163.961V35.4634H165.717ZM165.717 33.7073V35.4634H163.961V33.7073H165.717ZM163.961 33.7073V35.4634H162.205V33.7073H163.961ZM163.961 35.4634V37.2195H162.205V35.4634H163.961ZM163.961 37.2195V38.9756H162.205V37.2195H163.961ZM163.961 38.9756V40.7317H162.205V38.9756H163.961ZM163.961 40.7317V42.4878H162.205V40.7317H163.961ZM160.449 42.4878V44.2439H158.693V42.4878H160.449ZM160.449 40.7317V42.4878H158.693V40.7317H160.449ZM160.449 38.9756V40.7317H158.693V38.9756H160.449ZM160.449 37.2195V38.9756H158.693V37.2195H160.449ZM160.449 35.4634V37.2195H158.693V35.4634H160.449ZM160.449 33.7073V35.4634H158.693V33.7073H160.449ZM146.4 44.2439V46H144.644V44.2439H146.4ZM148.156 44.2439V46H146.4V44.2439H148.156ZM149.913 44.2439V46H148.156V44.2439H149.913ZM151.669 44.2439V46H149.913V44.2439H151.669ZM153.425 44.2439V46H151.669V44.2439H153.425ZM156.937 44.2439V46H155.181V44.2439H156.937ZM156.937 42.4878V44.2439H155.181V42.4878H156.937ZM153.425 42.4878V44.2439H151.669V42.4878H153.425ZM151.669 42.4878V44.2439H149.913V42.4878H151.669ZM149.913 42.4878V44.2439H148.156V42.4878H149.913ZM148.156 42.4878V44.2439H146.4V42.4878H148.156ZM146.4 42.4878V44.2439H144.644V42.4878H146.4ZM146.4 40.7317V42.4878H144.644V40.7317H146.4ZM148.156 40.7317V42.4878H146.4V40.7317H148.156ZM149.913 40.7317V42.4878H148.156V40.7317H149.913ZM151.669 40.7317V42.4878H149.913V40.7317H151.669ZM153.425 40.7317V42.4878H151.669V40.7317H153.425ZM156.937 40.7317V42.4878H155.181V40.7317H156.937ZM156.937 38.9756V40.7317H155.181V38.9756H156.937ZM153.425 38.9756V40.7317H151.669V38.9756H153.425ZM151.669 38.9756V40.7317H149.913V38.9756H151.669ZM149.913 38.9756V40.7317H148.156V38.9756H149.913ZM148.156 38.9756V40.7317H146.4V38.9756H148.156ZM146.4 38.9756V40.7317H144.644V38.9756H146.4ZM146.4 37.2195V38.9756H144.644V37.2195H146.4ZM156.937 37.2195V38.9756H155.181V37.2195H156.937ZM163.961 10.8781V9.12195H165.717V10.8781H163.961ZM163.961 12.6341V10.8781H165.717V12.6341H163.961ZM163.961 14.3902V12.6341H165.717V14.3902H163.961ZM160.449 14.3902V12.6341H162.205V14.3902H160.449ZM160.449 12.6341V10.8781H162.205V12.6341H160.449ZM160.449 10.8781V9.12195H162.205V10.8781H160.449ZM160.449 9.12195V7.36586H162.205V9.12195H160.449ZM160.449 7.36586V5.60976H162.205V7.36586H160.449ZM160.449 5.60976V3.85366H162.205V5.60976H160.449ZM156.937 3.85366V2.09756H158.693V3.85366H156.937ZM156.937 5.60976V3.85366H158.693V5.60976H156.937ZM156.937 7.36586V5.60976H158.693V7.36586H156.937ZM156.937 9.12195V7.36586H158.693V9.12195H156.937ZM156.937 10.8781V9.12195H158.693V10.8781H156.937ZM156.937 12.6341V10.8781H158.693V12.6341H156.937ZM156.937 14.3902V12.6341H158.693V14.3902H156.937ZM158.693 14.3902V12.6341H160.449V14.3902H158.693ZM158.693 12.6341V10.8781H160.449V12.6341H158.693ZM158.693 10.8781V9.12195H160.449V10.8781H158.693ZM158.693 9.12195V7.36586H160.449V9.12195H158.693ZM158.693 7.36586V5.60976H160.449V7.36586H158.693ZM158.693 5.60976V3.85366H160.449V5.60976H158.693ZM162.205 7.36586V5.60976H163.961V7.36586H162.205ZM162.205 9.12195V7.36586H163.961V9.12195H162.205ZM162.205 10.8781V9.12195H163.961V10.8781H162.205ZM162.205 12.6341V10.8781H163.961V12.6341H162.205ZM162.205 14.3902V12.6341H163.961V14.3902H162.205ZM142.888 3.85366V2.09756H144.644V3.85366H142.888ZM142.888 5.60976V3.85366H144.644V5.60976H142.888ZM142.888 7.36586V5.60976H144.644V7.36586H142.888ZM142.888 9.12195V7.36586H144.644V9.12195H142.888ZM142.888 10.8781V9.12195H144.644V10.8781H142.888ZM142.888 12.6341V10.8781H144.644V12.6341H142.888ZM142.888 14.3902V12.6341H144.644V14.3902H142.888ZM139.376 14.3902V12.6341H141.132V14.3902H139.376ZM139.376 12.6341V10.8781H141.132V12.6341H139.376ZM139.376 10.8781V9.12195H141.132V10.8781H139.376ZM139.376 9.12195V7.36586H141.132V9.12195H139.376ZM139.376 7.36586V5.60976H141.132V7.36586H139.376ZM139.376 5.60976V3.85366H141.132V5.60976H139.376ZM135.864 10.8781V9.12195H137.62V10.8781H135.864ZM135.864 12.6341V10.8781H137.62V12.6341H135.864ZM135.864 14.3902V12.6341H137.62V14.3902H135.864ZM137.62 14.3902V12.6341H139.376V14.3902H137.62ZM137.62 12.6341V10.8781H139.376V12.6341H137.62ZM137.62 10.8781V9.12195H139.376V10.8781H137.62ZM137.62 9.12195V7.36586H139.376V9.12195H137.62ZM137.62 7.36586V5.60976H139.376V7.36586H137.62ZM141.132 5.60976V3.85366H142.888V5.60976H141.132ZM141.132 7.36586V5.60976H142.888V7.36586H141.132ZM141.132 9.12195V7.36586H142.888V9.12195H141.132ZM141.132 10.8781V9.12195H142.888V10.8781H141.132ZM141.132 12.6341V10.8781H142.888V12.6341H141.132ZM141.132 14.3902V12.6341H142.888V14.3902H141.132ZM155.181 3.85366V2.09756H156.937V3.85366H155.181ZM151.669 3.85366V2.09756H153.425V3.85366H151.669ZM149.913 3.85366V2.09756H151.669V3.85366H149.913ZM148.156 3.85366V2.09756H149.913V3.85366H148.156ZM146.4 3.85366V2.09756H148.156V3.85366H146.4ZM144.644 3.85366V2.09756H146.4V3.85366H144.644ZM144.644 5.60976V3.85366H146.4V5.60976H144.644ZM146.4 5.60976V3.85366H148.156V5.60976H146.4ZM148.156 5.60976V3.85366H149.913V5.60976H148.156ZM149.913 5.60976V3.85366H151.669V5.60976H149.913ZM151.669 5.60976V3.85366H153.425V5.60976H151.669ZM155.181 5.60976V3.85366H156.937V5.60976H155.181ZM155.181 7.36586V5.60976H156.937V7.36586H155.181ZM151.669 7.36586V5.60976H153.425V7.36586H151.669ZM149.913 7.36586V5.60976H151.669V7.36586H149.913ZM148.156 7.36586V5.60976H149.913V7.36586H148.156ZM146.4 7.36586V5.60976H148.156V7.36586H146.4ZM144.644 7.36586V5.60976H146.4V7.36586H144.644ZM144.644 9.12195V7.36586H146.4V9.12195H144.644ZM146.4 9.12195V7.36586H148.156V9.12195H146.4ZM148.156 9.12195V7.36586H149.913V9.12195H148.156ZM149.913 9.12195V7.36586H151.669V9.12195H149.913ZM151.669 9.12195V7.36586H153.425V9.12195H151.669ZM155.181 9.12195V7.36586H156.937V9.12195H155.181ZM155.181 10.8781V9.12195H156.937V10.8781H155.181ZM144.644 10.8781V9.12195H146.4V10.8781H144.644ZM137.62 16.1463V17.9024H135.864V16.1463H137.62ZM139.376 16.1463V17.9024H137.62V16.1463H139.376ZM137.62 14.3902V16.1463H135.864V14.3902H137.62ZM142.888 14.3902V16.1463H141.132V14.3902H142.888ZM142.888 16.1463V17.9024H141.132V16.1463H142.888ZM144.644 16.1463V17.9024H142.888V16.1463H144.644ZM144.644 14.3902V16.1463H142.888V14.3902H144.644ZM139.376 14.3902V16.1463H137.62V14.3902H139.376ZM141.132 14.3902V16.1463H139.376V14.3902H141.132ZM141.132 16.1463V17.9024H139.376V16.1463H141.132ZM148.156 37.2195V38.9756H146.4V37.2195H148.156ZM149.913 37.2195V38.9756H148.156V37.2195H149.913ZM151.669 37.2195V38.9756H149.913V37.2195H151.669ZM153.425 37.2195V38.9756H151.669V37.2195H153.425ZM156.937 35.4634V37.2195H155.181V35.4634H156.937ZM146.4 35.4634V37.2195H144.644V35.4634H146.4ZM158.693 31.9512V33.7073H156.937V31.9512H158.693ZM160.449 31.9512V33.7073H158.693V31.9512H160.449ZM162.205 31.9512V33.7073H160.449V31.9512H162.205ZM163.961 31.9512V33.7073H162.205V31.9512H163.961ZM165.717 31.9512V33.7073H163.961V31.9512H165.717ZM146.4 10.8781V12.6341H144.644V10.8781H146.4ZM148.156 9.12195V10.8781H146.4V9.12195H148.156ZM149.913 9.12195V10.8781H148.156V9.12195H149.913ZM151.669 9.12195V10.8781H149.913V9.12195H151.669ZM153.425 9.12195V10.8781H151.669V9.12195H153.425ZM156.937 10.8781V12.6341H155.181V10.8781H156.937ZM158.693 14.3902V16.1463H156.937V14.3902H158.693ZM160.449 14.3902V16.1463H158.693V14.3902H160.449ZM162.205 14.3902V16.1463H160.449V14.3902H162.205ZM163.961 14.3902V16.1463H162.205V14.3902H163.961ZM165.717 14.3902V16.1463H163.961V14.3902H165.717ZM155.181 2.09756V3.85366H153.425V2.09756H155.181ZM155.181 3.85366V5.60976H153.425V3.85366H155.181ZM155.181 5.60976V7.36586H153.425V5.60976H155.181ZM155.181 7.36586V9.12195H153.425V7.36586H155.181ZM155.181 9.12195V10.8781H153.425V9.12195H155.181ZM155.181 37.2195V38.9756H153.425V37.2195H155.181ZM155.181 38.9756V40.7317H153.425V38.9756H155.181ZM155.181 40.7317V42.4878H153.425V40.7317H155.181ZM155.181 42.4878V44.2439H153.425V42.4878H155.181ZM155.181 44.2439V46H153.425V44.2439H155.181ZM192.025 23.1707V24.9268H190.268V23.1707H192.025ZM193.781 23.1707V24.9268H192.025V23.1707H193.781ZM195.537 23.1707V24.9268H193.781V23.1707H195.537ZM197.293 23.1707V24.9268H195.537V23.1707H197.293ZM199.049 23.1707V24.9268H197.293V23.1707H199.049ZM199.049 21.4146V23.1707H197.293V21.4146H199.049ZM199.049 19.6585V21.4146H197.293V19.6585H199.049ZM197.293 19.6585V21.4146H195.537V19.6585H197.293ZM195.537 19.6585V21.4146H193.781V19.6585H195.537ZM193.781 19.6585V21.4146H192.025V19.6585H193.781ZM193.781 21.4146V23.1707H192.025V21.4146H193.781ZM192.025 21.4146V23.1707H190.268V21.4146H192.025ZM195.537 21.4146V23.1707H193.781V21.4146H195.537ZM197.293 21.4146V23.1707H195.537V21.4146H197.293ZM192.025 19.6585V21.4146H190.268V19.6585H192.025ZM190.268 19.6585V21.4146H188.512V19.6585H190.268ZM190.268 17.9024V19.6585H188.512V17.9024H190.268ZM192.025 17.9024V19.6585H190.268V17.9024H192.025ZM193.781 17.9024V19.6585H192.025V17.9024H193.781ZM195.537 17.9024V19.6585H193.781V17.9024H195.537ZM197.293 17.9024V19.6585H195.537V17.9024H197.293ZM197.293 16.1463V17.9024H195.537V16.1463H197.293ZM195.537 16.1463V17.9024H193.781V16.1463H195.537ZM193.781 16.1463V17.9024H192.025V16.1463H193.781ZM192.025 16.1463V17.9024H190.268V16.1463H192.025ZM190.268 16.1463V17.9024H188.512V16.1463H190.268ZM193.781 14.3902V16.1463H192.025V14.3902H193.781ZM195.537 14.3902V16.1463H193.781V14.3902H195.537ZM192.025 14.3902V16.1463H190.268V14.3902H192.025ZM192.025 12.6341V14.3902H190.268V12.6341H192.025ZM190.268 12.6341V14.3902H188.512V12.6341H190.268ZM190.268 14.3902V16.1463H188.512V14.3902H190.268ZM188.512 14.3902V16.1463H186.756V14.3902H188.512ZM188.512 12.6341V14.3902H186.756V12.6341H188.512ZM188.512 16.1463V17.9024H186.756V16.1463H188.512ZM186.756 16.1463V17.9024H185V16.1463H186.756ZM186.756 17.9024V19.6585H185V17.9024H186.756ZM188.512 17.9024V19.6585H186.756V17.9024H188.512ZM185 17.9024V19.6585H183.244V17.9024H185ZM185 16.1463V17.9024H183.244V16.1463H185ZM185 14.3902V16.1463H183.244V14.3902H185ZM185 12.6341V14.3902H183.244V12.6341H185ZM186.756 12.6341V14.3902H185V12.6341H186.756ZM186.756 14.3902V16.1463H185V14.3902H186.756ZM183.244 12.6341V14.3902H181.488V12.6341H183.244ZM181.488 12.6341V14.3902H179.732V12.6341H181.488ZM179.732 12.6341V14.3902H177.976V12.6341H179.732ZM179.732 14.3902V16.1463H177.976V14.3902H179.732ZM179.732 16.1463V17.9024H177.976V16.1463H179.732ZM179.732 17.9024V19.6585H177.976V17.9024H179.732ZM181.488 17.9024V19.6585H179.732V17.9024H181.488ZM183.244 17.9024V19.6585H181.488V17.9024H183.244ZM183.244 16.1463V17.9024H181.488V16.1463H183.244ZM183.244 14.3902V16.1463H181.488V14.3902H183.244ZM181.488 14.3902V16.1463H179.732V14.3902H181.488ZM181.488 16.1463V17.9024H179.732V16.1463H181.488ZM177.976 16.1463V17.9024H176.22V16.1463H177.976ZM177.976 14.3902V16.1463H176.22V14.3902H177.976ZM176.22 14.3902V16.1463H174.464V14.3902H176.22ZM176.22 16.1463V17.9024H174.464V16.1463H176.22ZM174.464 16.1463V17.9024H172.708V16.1463H174.464ZM174.464 17.9024V19.6585H172.708V17.9024H174.464ZM174.464 19.6585V21.4146H172.708V19.6585H174.464ZM176.22 19.6585V21.4146H174.464V19.6585H176.22ZM176.22 17.9024V19.6585H174.464V17.9024H176.22ZM177.976 17.9024V19.6585H176.22V17.9024H177.976ZM177.976 19.6585V21.4146H176.22V19.6585H177.976ZM179.732 19.6585V21.4146H177.976V19.6585H179.732ZM181.488 19.6585V21.4146H179.732V19.6585H181.488ZM172.708 19.6585V21.4146H170.951V19.6585H172.708ZM172.708 21.4146V23.1707H170.951V21.4146H172.708ZM172.708 23.1707V24.9268H170.951V23.1707H172.708ZM172.708 24.9268V26.6829H170.951V24.9268H172.708ZM172.708 26.6829V28.439H170.951V26.6829H172.708ZM172.708 28.439V30.1951H170.951V28.439H172.708ZM172.708 30.1951V31.9512H170.951V30.1951H172.708ZM172.708 31.9512V33.7073H170.951V31.9512H172.708ZM172.708 33.7073V35.4634H170.951V33.7073H172.708ZM172.708 35.4634V37.2195H170.951V35.4634H172.708ZM174.464 35.4634V37.2195H172.708V35.4634H174.464ZM174.464 37.2195V38.9756H172.708V37.2195H174.464ZM172.708 37.2195V38.9756H170.951V37.2195H172.708ZM176.22 37.2195V38.9756H174.464V37.2195H176.22ZM177.976 37.2195V38.9756H176.22V37.2195H177.976ZM179.732 37.2195V38.9756H177.976V37.2195H179.732ZM181.488 37.2195V38.9756H179.732V37.2195H181.488ZM179.732 35.4634V37.2195H177.976V35.4634H179.732ZM179.732 33.7073V35.4634H177.976V33.7073H179.732ZM179.732 31.9512V33.7073H177.976V31.9512H179.732ZM179.732 30.1951V31.9512H177.976V30.1951H179.732ZM179.732 28.439V30.1951H177.976V28.439H179.732ZM179.732 26.6829V28.439H177.976V26.6829H179.732ZM179.732 24.9268V26.6829H177.976V24.9268H179.732ZM179.732 23.1707V24.9268H177.976V23.1707H179.732ZM179.732 21.4146V23.1707H177.976V21.4146H179.732ZM177.976 21.4146V23.1707H176.22V21.4146H177.976ZM176.22 21.4146V23.1707H174.464V21.4146H176.22ZM174.464 21.4146V23.1707H172.708V21.4146H174.464ZM174.464 23.1707V24.9268H172.708V23.1707H174.464ZM174.464 24.9268V26.6829H172.708V24.9268H174.464ZM174.464 26.6829V28.439H172.708V26.6829H174.464ZM174.464 28.439V30.1951H172.708V28.439H174.464ZM174.464 30.1951V31.9512H172.708V30.1951H174.464ZM174.464 31.9512V33.7073H172.708V31.9512H174.464ZM174.464 33.7073V35.4634H172.708V33.7073H174.464ZM176.22 35.4634V37.2195H174.464V35.4634H176.22ZM177.976 35.4634V37.2195H176.22V35.4634H177.976ZM177.976 33.7073V35.4634H176.22V33.7073H177.976ZM177.976 31.9512V33.7073H176.22V31.9512H177.976ZM177.976 30.1951V31.9512H176.22V30.1951H177.976ZM177.976 28.439V30.1951H176.22V28.439H177.976ZM176.22 28.439V30.1951H174.464V28.439H176.22ZM176.22 26.6829V28.439H174.464V26.6829H176.22ZM176.22 24.9268V26.6829H174.464V24.9268H176.22ZM176.22 23.1707V24.9268H174.464V23.1707H176.22ZM177.976 23.1707V24.9268H176.22V23.1707H177.976ZM177.976 24.9268V26.6829H176.22V24.9268H177.976ZM177.976 26.6829V28.439H176.22V26.6829H177.976ZM176.22 31.9512V33.7073H174.464V31.9512H176.22ZM176.22 33.7073V35.4634H174.464V33.7073H176.22ZM176.22 30.1951V31.9512H174.464V30.1951H176.22ZM192.025 33.7073V35.4634H190.268V33.7073H192.025ZM192.025 35.4634V37.2195H190.268V35.4634H192.025ZM193.781 35.4634V37.2195H192.025V35.4634H193.781ZM195.537 35.4634V37.2195H193.781V35.4634H195.537ZM197.293 35.4634V37.2195H195.537V35.4634H197.293ZM199.049 35.4634V37.2195H197.293V35.4634H199.049ZM199.049 33.7073V35.4634H197.293V33.7073H199.049ZM197.293 33.7073V35.4634H195.537V33.7073H197.293ZM195.537 33.7073V35.4634H193.781V33.7073H195.537ZM193.781 33.7073V35.4634H192.025V33.7073H193.781ZM199.049 37.2195V38.9756H197.293V37.2195H199.049ZM197.293 37.2195V38.9756H195.537V37.2195H197.293ZM195.537 37.2195V38.9756H193.781V37.2195H195.537ZM193.781 37.2195V38.9756H192.025V37.2195H193.781ZM192.025 37.2195V38.9756H190.268V37.2195H192.025ZM190.268 37.2195V38.9756H188.512V37.2195H190.268ZM190.268 38.9756V40.7317H188.512V38.9756H190.268ZM192.025 38.9756V40.7317H190.268V38.9756H192.025ZM193.781 38.9756V40.7317H192.025V38.9756H193.781ZM195.537 38.9756V40.7317H193.781V38.9756H195.537ZM195.537 40.7317V42.4878H193.781V40.7317H195.537ZM197.293 40.7317V42.4878H195.537V40.7317H197.293ZM197.293 38.9756V40.7317H195.537V38.9756H197.293ZM195.537 42.4878V44.2439H193.781V42.4878H195.537ZM193.781 42.4878V44.2439H192.025V42.4878H193.781ZM193.781 40.7317V42.4878H192.025V40.7317H193.781ZM192.025 40.7317V42.4878H190.268V40.7317H192.025ZM192.025 42.4878V44.2439H190.268V42.4878H192.025ZM192.025 44.2439V46H190.268V44.2439H192.025ZM190.268 44.2439V46H188.512V44.2439H190.268ZM188.512 44.2439V46H186.756V44.2439H188.512ZM186.756 44.2439V46H185V44.2439H186.756ZM185 44.2439V46H183.244V44.2439H185ZM183.244 44.2439V46H181.488V44.2439H183.244ZM181.488 44.2439V46H179.732V44.2439H181.488ZM179.732 44.2439V46H177.976V44.2439H179.732ZM181.488 42.4878V44.2439H179.732V42.4878H181.488ZM183.244 42.4878V44.2439H181.488V42.4878H183.244ZM185 42.4878V44.2439H183.244V42.4878H185ZM186.756 42.4878V44.2439H185V42.4878H186.756ZM188.512 42.4878V44.2439H186.756V42.4878H188.512ZM190.268 42.4878V44.2439H188.512V42.4878H190.268ZM190.268 40.7317V42.4878H188.512V40.7317H190.268ZM188.512 40.7317V42.4878H186.756V40.7317H188.512ZM186.756 40.7317V42.4878H185V40.7317H186.756ZM185 40.7317V42.4878H183.244V40.7317H185ZM183.244 40.7317V42.4878H181.488V40.7317H183.244ZM181.488 40.7317V42.4878H179.732V40.7317H181.488ZM179.732 42.4878V44.2439H177.976V42.4878H179.732ZM177.976 42.4878V44.2439H176.22V42.4878H177.976ZM176.22 42.4878V44.2439H174.464V42.4878H176.22ZM176.22 40.7317V42.4878H174.464V40.7317H176.22ZM174.464 40.7317V42.4878H172.708V40.7317H174.464ZM174.464 38.9756V40.7317H172.708V38.9756H174.464ZM176.22 38.9756V40.7317H174.464V38.9756H176.22ZM177.976 38.9756V40.7317H176.22V38.9756H177.976ZM179.732 38.9756V40.7317H177.976V38.9756H179.732ZM181.488 38.9756V40.7317H179.732V38.9756H181.488ZM183.244 38.9756V40.7317H181.488V38.9756H183.244ZM185 38.9756V40.7317H183.244V38.9756H185ZM186.756 38.9756V40.7317H185V38.9756H186.756ZM188.512 38.9756V40.7317H186.756V38.9756H188.512ZM179.732 40.7317V42.4878H177.976V40.7317H179.732ZM177.976 40.7317V42.4878H176.22V40.7317H177.976ZM192.025 24.9268V26.6829H190.268V24.9268H192.025ZM192.025 26.6829V28.439H190.268V26.6829H192.025ZM193.781 26.6829V28.439H192.025V26.6829H193.781ZM195.537 26.6829V28.439H193.781V26.6829H195.537ZM197.293 26.6829V28.439H195.537V26.6829H197.293ZM199.049 26.6829V28.439H197.293V26.6829H199.049ZM199.049 24.9268V26.6829H197.293V24.9268H199.049ZM197.293 24.9268V26.6829H195.537V24.9268H197.293ZM195.537 24.9268V26.6829H193.781V24.9268H195.537ZM193.781 24.9268V26.6829H192.025V24.9268H193.781ZM193.781 28.439V30.1951H192.025V28.439H193.781ZM195.537 28.439V30.1951H193.781V28.439H195.537ZM195.537 30.1951V31.9512H193.781V30.1951H195.537ZM197.293 30.1951V31.9512H195.537V30.1951H197.293ZM197.293 28.439V30.1951H195.537V28.439H197.293ZM199.049 28.439V30.1951H197.293V28.439H199.049ZM199.049 30.1951V31.9512H197.293V30.1951H199.049ZM199.049 31.9512V33.7073H197.293V31.9512H199.049ZM197.293 31.9512V33.7073H195.537V31.9512H197.293ZM195.537 31.9512V33.7073H193.781V31.9512H195.537ZM193.781 31.9512V33.7073H192.025V31.9512H193.781ZM193.781 30.1951V31.9512H192.025V30.1951H193.781ZM192.025 30.1951V31.9512H190.268V30.1951H192.025ZM192.025 28.439V30.1951H190.268V28.439H192.025ZM192.025 31.9512V33.7073H190.268V31.9512H192.025ZM221.909 17.9024V19.6585H220.153V17.9024H221.909ZM221.909 16.1463V17.9024H220.153V16.1463H221.909ZM221.909 14.3902V16.1463H220.153V14.3902H221.909ZM220.153 14.3902V16.1463H218.397V14.3902H220.153ZM220.153 12.6341V14.3902H218.397V12.6341H220.153ZM220.153 16.1463V17.9024H218.397V16.1463H220.153ZM218.397 16.1463V17.9024H216.641V16.1463H218.397ZM218.397 17.9024V19.6585H216.641V17.9024H218.397ZM220.153 17.9024V19.6585H218.397V17.9024H220.153ZM216.641 17.9024V19.6585H214.885V17.9024H216.641ZM216.641 16.1463V17.9024H214.885V16.1463H216.641ZM216.641 14.3902V16.1463H214.885V14.3902H216.641ZM216.641 12.6341V14.3902H214.885V12.6341H216.641ZM218.397 12.6341V14.3902H216.641V12.6341H218.397ZM218.397 14.3902V16.1463H216.641V14.3902H218.397ZM214.885 12.6341V14.3902H213.129V12.6341H214.885ZM213.129 12.6341V14.3902H211.373V12.6341H213.129ZM211.373 12.6341V14.3902H209.616V12.6341H211.373ZM211.373 14.3902V16.1463H209.616V14.3902H211.373ZM211.373 16.1463V17.9024H209.616V16.1463H211.373ZM211.373 17.9024V19.6585H209.616V17.9024H211.373ZM213.129 17.9024V19.6585H211.373V17.9024H213.129ZM214.885 17.9024V19.6585H213.129V17.9024H214.885ZM214.885 16.1463V17.9024H213.129V16.1463H214.885ZM214.885 14.3902V16.1463H213.129V14.3902H214.885ZM213.129 14.3902V16.1463H211.373V14.3902H213.129ZM213.129 16.1463V17.9024H211.373V16.1463H213.129ZM209.616 16.1463V17.9024H207.86V16.1463H209.616ZM209.616 14.3902V16.1463H207.86V14.3902H209.616ZM207.86 14.3902V16.1463H206.104V14.3902H207.86ZM207.86 16.1463V17.9024H206.104V16.1463H207.86ZM206.104 16.1463V17.9024H204.348V16.1463H206.104ZM206.104 17.9024V19.6585H204.348V17.9024H206.104ZM206.104 19.6585V21.4146H204.348V19.6585H206.104ZM207.86 19.6585V21.4146H206.104V19.6585H207.86ZM207.86 17.9024V19.6585H206.104V17.9024H207.86ZM209.616 17.9024V19.6585H207.86V17.9024H209.616ZM209.616 19.6585V21.4146H207.86V19.6585H209.616ZM211.373 19.6585V21.4146H209.616V19.6585H211.373ZM213.129 19.6585V21.4146H211.373V19.6585H213.129ZM204.348 19.6585V21.4146H202.592V19.6585H204.348ZM204.348 21.4146V23.1707H202.592V21.4146H204.348ZM204.348 23.1707V24.9268H202.592V23.1707H204.348ZM204.348 24.9268V26.6829H202.592V24.9268H204.348ZM204.348 26.6829V28.439H202.592V26.6829H204.348ZM204.348 28.439V30.1951H202.592V28.439H204.348ZM204.348 30.1951V31.9512H202.592V30.1951H204.348ZM204.348 31.9512V33.7073H202.592V31.9512H204.348ZM204.348 33.7073V35.4634H202.592V33.7073H204.348ZM204.348 35.4634V37.2195H202.592V35.4634H204.348ZM206.104 35.4634V37.2195H204.348V35.4634H206.104ZM206.104 37.2195V38.9756H204.348V37.2195H206.104ZM204.348 37.2195V38.9756H202.592V37.2195H204.348ZM207.86 37.2195V38.9756H206.104V37.2195H207.86ZM209.616 37.2195V38.9756H207.86V37.2195H209.616ZM211.373 37.2195V38.9756H209.616V37.2195H211.373ZM213.129 37.2195V38.9756H211.373V37.2195H213.129ZM211.373 35.4634V37.2195H209.616V35.4634H211.373ZM211.373 33.7073V35.4634H209.616V33.7073H211.373ZM211.373 31.9512V33.7073H209.616V31.9512H211.373ZM211.373 30.1951V31.9512H209.616V30.1951H211.373ZM211.373 28.439V30.1951H209.616V28.439H211.373ZM211.373 26.6829V28.439H209.616V26.6829H211.373ZM211.373 24.9268V26.6829H209.616V24.9268H211.373ZM211.373 23.1707V24.9268H209.616V23.1707H211.373ZM211.373 21.4146V23.1707H209.616V21.4146H211.373ZM209.616 21.4146V23.1707H207.86V21.4146H209.616ZM207.86 21.4146V23.1707H206.104V21.4146H207.86ZM206.104 21.4146V23.1707H204.348V21.4146H206.104ZM206.104 23.1707V24.9268H204.348V23.1707H206.104ZM206.104 24.9268V26.6829H204.348V24.9268H206.104ZM206.104 26.6829V28.439H204.348V26.6829H206.104ZM206.104 28.439V30.1951H204.348V28.439H206.104ZM206.104 30.1951V31.9512H204.348V30.1951H206.104ZM206.104 31.9512V33.7073H204.348V31.9512H206.104ZM206.104 33.7073V35.4634H204.348V33.7073H206.104ZM207.86 35.4634V37.2195H206.104V35.4634H207.86ZM209.616 35.4634V37.2195H207.86V35.4634H209.616ZM209.616 33.7073V35.4634H207.86V33.7073H209.616ZM209.616 31.9512V33.7073H207.86V31.9512H209.616ZM209.616 30.1951V31.9512H207.86V30.1951H209.616ZM209.616 28.439V30.1951H207.86V28.439H209.616ZM207.86 28.439V30.1951H206.104V28.439H207.86ZM207.86 26.6829V28.439H206.104V26.6829H207.86ZM207.86 24.9268V26.6829H206.104V24.9268H207.86ZM207.86 23.1707V24.9268H206.104V23.1707H207.86ZM209.616 23.1707V24.9268H207.86V23.1707H209.616ZM209.616 24.9268V26.6829H207.86V24.9268H209.616ZM209.616 26.6829V28.439H207.86V26.6829H209.616ZM207.86 31.9512V33.7073H206.104V31.9512H207.86ZM207.86 33.7073V35.4634H206.104V33.7073H207.86ZM207.86 30.1951V31.9512H206.104V30.1951H207.86ZM221.909 38.9756V40.7317H220.153V38.9756H221.909ZM220.153 44.2439V46H218.397V44.2439H220.153ZM218.397 44.2439V46H216.641V44.2439H218.397ZM216.641 44.2439V46H214.885V44.2439H216.641ZM214.885 44.2439V46H213.129V44.2439H214.885ZM213.129 44.2439V46H211.373V44.2439H213.129ZM211.373 44.2439V46H209.616V44.2439H211.373ZM213.129 42.4878V44.2439H211.373V42.4878H213.129ZM214.885 42.4878V44.2439H213.129V42.4878H214.885ZM216.641 42.4878V44.2439H214.885V42.4878H216.641ZM218.397 42.4878V44.2439H216.641V42.4878H218.397ZM220.153 42.4878V44.2439H218.397V42.4878H220.153ZM221.909 42.4878V44.2439H220.153V42.4878H221.909ZM221.909 40.7317V42.4878H220.153V40.7317H221.909ZM220.153 40.7317V42.4878H218.397V40.7317H220.153ZM218.397 40.7317V42.4878H216.641V40.7317H218.397ZM216.641 40.7317V42.4878H214.885V40.7317H216.641ZM214.885 40.7317V42.4878H213.129V40.7317H214.885ZM213.129 40.7317V42.4878H211.373V40.7317H213.129ZM211.373 42.4878V44.2439H209.616V42.4878H211.373ZM209.616 42.4878V44.2439H207.86V42.4878H209.616ZM207.86 42.4878V44.2439H206.104V42.4878H207.86ZM207.86 40.7317V42.4878H206.104V40.7317H207.86ZM206.104 40.7317V42.4878H204.348V40.7317H206.104ZM206.104 38.9756V40.7317H204.348V38.9756H206.104ZM207.86 38.9756V40.7317H206.104V38.9756H207.86ZM209.616 38.9756V40.7317H207.86V38.9756H209.616ZM211.373 38.9756V40.7317H209.616V38.9756H211.373ZM213.129 38.9756V40.7317H211.373V38.9756H213.129ZM214.885 38.9756V40.7317H213.129V38.9756H214.885ZM216.641 38.9756V40.7317H214.885V38.9756H216.641ZM218.397 38.9756V40.7317H216.641V38.9756H218.397ZM220.153 38.9756V40.7317H218.397V38.9756H220.153ZM211.373 40.7317V42.4878H209.616V40.7317H211.373ZM209.616 40.7317V42.4878H207.86V40.7317H209.616ZM223.665 40.7317V42.4878H221.909V40.7317H223.665ZM223.665 38.9756V40.7317H221.909V38.9756H223.665ZM223.665 37.2195V38.9756H221.909V37.2195H223.665ZM223.665 35.4634V37.2195H221.909V35.4634H223.665ZM223.665 33.7073V35.4634H221.909V33.7073H223.665ZM223.665 31.9512V33.7073H221.909V31.9512H223.665ZM223.665 30.1951V31.9512H221.909V30.1951H223.665ZM223.665 28.439V30.1951H221.909V28.439H223.665ZM223.665 26.6829V28.439H221.909V26.6829H223.665ZM223.665 24.9268V26.6829H221.909V24.9268H223.665ZM223.665 23.1707V24.9268H221.909V23.1707H223.665ZM223.665 21.4146V23.1707H221.909V21.4146H223.665ZM223.665 19.6585V21.4146H221.909V19.6585H223.665ZM225.421 19.6585V21.4146H223.665V19.6585H225.421ZM225.421 21.4146V23.1707H223.665V21.4146H225.421ZM225.421 23.1707V24.9268H223.665V23.1707H225.421ZM225.421 24.9268V26.6829H223.665V24.9268H225.421ZM225.421 26.6829V28.439H223.665V26.6829H225.421ZM225.421 28.439V30.1951H223.665V28.439H225.421ZM225.421 30.1951V31.9512H223.665V30.1951H225.421ZM227.177 31.9512V33.7073H225.421V31.9512H227.177ZM227.177 33.7073V35.4634H225.421V33.7073H227.177ZM227.177 35.4634V37.2195H225.421V35.4634H227.177ZM227.177 37.2195V38.9756H225.421V37.2195H227.177ZM227.177 38.9756V40.7317H225.421V38.9756H227.177ZM227.177 40.7317V42.4878H225.421V40.7317H227.177ZM227.177 42.4878V44.2439H225.421V42.4878H227.177ZM227.177 44.2439V46H225.421V44.2439H227.177ZM228.933 44.2439V46H227.177V44.2439H228.933ZM230.69 44.2439V46H228.933V44.2439H230.69ZM230.69 42.4878V44.2439H228.933V42.4878H230.69ZM230.69 40.7317V42.4878H228.933V40.7317H230.69ZM230.69 38.9756V40.7317H228.933V38.9756H230.69ZM230.69 37.2195V38.9756H228.933V37.2195H230.69ZM230.69 35.4634V37.2195H228.933V35.4634H230.69ZM230.69 33.7073V35.4634H228.933V33.7073H230.69ZM230.69 31.9512V33.7073H228.933V31.9512H230.69ZM228.933 31.9512V33.7073H227.177V31.9512H228.933ZM228.933 30.1951V31.9512H227.177V30.1951H228.933ZM228.933 33.7073V35.4634H227.177V33.7073H228.933ZM228.933 35.4634V37.2195H227.177V35.4634H228.933ZM228.933 37.2195V38.9756H227.177V37.2195H228.933ZM228.933 38.9756V40.7317H227.177V38.9756H228.933ZM228.933 40.7317V42.4878H227.177V40.7317H228.933ZM228.933 42.4878V44.2439H227.177V42.4878H228.933ZM225.421 40.7317V42.4878H223.665V40.7317H225.421ZM225.421 38.9756V40.7317H223.665V38.9756H225.421ZM225.421 37.2195V38.9756H223.665V37.2195H225.421ZM225.421 35.4634V37.2195H223.665V35.4634H225.421ZM225.421 33.7073V35.4634H223.665V33.7073H225.421ZM225.421 31.9512V33.7073H223.665V31.9512H225.421ZM223.665 2.09756V3.85366H221.909V2.09756H223.665ZM223.665 3.85366V5.60976H221.909V3.85366H223.665ZM223.665 5.60976V7.36586H221.909V5.60976H223.665ZM223.665 7.36586V9.12195H221.909V7.36586H223.665ZM223.665 9.12195V10.8781H221.909V9.12195H223.665ZM223.665 10.8781V12.6341H221.909V10.8781H223.665ZM223.665 14.3902V16.1463H221.909V14.3902H223.665ZM223.665 17.9024V19.6585H221.909V17.9024H223.665ZM228.933 2.09756V3.85366H227.177V2.09756H228.933ZM228.933 3.85366V5.60976H227.177V3.85366H228.933ZM228.933 5.60976V7.36586H227.177V5.60976H228.933ZM228.933 7.36586V9.12195H227.177V7.36586H228.933ZM228.933 9.12195V10.8781H227.177V9.12195H228.933ZM228.933 10.8781V12.6341H227.177V10.8781H228.933ZM228.933 14.3902V16.1463H227.177V14.3902H228.933ZM228.933 16.1463V17.9024H227.177V16.1463H228.933ZM228.933 17.9024V19.6585H227.177V17.9024H228.933ZM228.933 21.4146V23.1707H227.177V21.4146H228.933ZM228.933 23.1707V24.9268H227.177V23.1707H228.933ZM228.933 24.9268V26.6829H227.177V24.9268H228.933ZM230.69 26.6829V28.439H228.933V26.6829H230.69ZM230.69 28.439V30.1951H228.933V28.439H230.69ZM230.69 30.1951V31.9512H228.933V30.1951H230.69ZM230.69 24.9268V26.6829H228.933V24.9268H230.69ZM230.69 23.1707V24.9268H228.933V23.1707H230.69ZM230.69 19.6585V21.4146H228.933V19.6585H230.69ZM230.69 17.9024V19.6585H228.933V17.9024H230.69ZM230.69 16.1463V17.9024H228.933V16.1463H230.69ZM230.69 14.3902V16.1463H228.933V14.3902H230.69ZM230.69 12.6341V14.3902H228.933V12.6341H230.69ZM230.69 10.8781V12.6341H228.933V10.8781H230.69ZM230.69 9.12195V10.8781H228.933V9.12195H230.69ZM228.933 12.6341V14.3902H227.177V12.6341H228.933ZM230.69 7.36586V9.12195H228.933V7.36586H230.69ZM230.69 5.60976V7.36586H228.933V5.60976H230.69ZM230.69 3.85366V5.60976H228.933V3.85366H230.69ZM230.69 2.09756V3.85366H228.933V2.09756H230.69ZM227.177 2.09756V3.85366H225.421V2.09756H227.177ZM225.421 2.09756V3.85366H223.665V2.09756H225.421ZM225.421 3.85366V5.60976H223.665V3.85366H225.421ZM227.177 3.85366V5.60976H225.421V3.85366H227.177ZM227.177 5.60976V7.36586H225.421V5.60976H227.177ZM227.177 7.36586V9.12195H225.421V7.36586H227.177ZM227.177 9.12195V10.8781H225.421V9.12195H227.177ZM227.177 10.8781V12.6341H225.421V10.8781H227.177ZM227.177 12.6341V14.3902H225.421V12.6341H227.177ZM227.177 14.3902V16.1463H225.421V14.3902H227.177ZM225.421 16.1463V17.9024H223.665V16.1463H225.421ZM225.421 17.9024V19.6585H223.665V17.9024H225.421ZM225.421 14.3902V16.1463H223.665V14.3902H225.421ZM225.421 12.6341V14.3902H223.665V12.6341H225.421ZM225.421 10.8781V12.6341H223.665V10.8781H225.421ZM225.421 9.12195V10.8781H223.665V9.12195H225.421ZM225.421 7.36586V9.12195H223.665V7.36586H225.421ZM225.421 5.60976V7.36586H223.665V5.60976H225.421ZM227.177 17.9024V19.6585H225.421V17.9024H227.177ZM227.177 21.4146V23.1707H225.421V21.4146H227.177ZM227.177 23.1707V24.9268H225.421V23.1707H227.177ZM227.177 24.9268V26.6829H225.421V24.9268H227.177ZM227.177 26.6829V28.439H225.421V26.6829H227.177ZM227.177 28.439V30.1951H225.421V28.439H227.177ZM227.177 30.1951V31.9512H225.421V30.1951H227.177ZM228.933 28.439V30.1951H227.177V28.439H228.933ZM228.933 26.6829V28.439H227.177V26.6829H228.933ZM223.665 12.6341V14.3902H221.909V12.6341H223.665ZM230.69 21.4146V23.1707H228.933V21.4146H230.69ZM223.665 16.1463V17.9024H221.909V16.1463H223.665ZM227.177 16.1463V17.9024H225.421V16.1463H227.177ZM227.177 19.6585V21.4146H225.421V19.6585H227.177ZM228.933 19.6585V21.4146H227.177V19.6585H228.933ZM223.665 42.4878V44.2439H221.909V42.4878H223.665ZM225.421 42.4878V44.2439H223.665V42.4878H225.421ZM225.421 44.2439V46H223.665V44.2439H225.421ZM221.909 12.6341V14.3902H220.153V12.6341H221.909ZM221.909 37.2195V38.9756H220.153V37.2195H221.909ZM223.665 44.2439V46H221.909V44.2439H223.665ZM257.064 23.1707V24.9268H255.308V23.1707H257.064ZM258.82 23.1707V24.9268H257.064V23.1707H258.82ZM260.576 23.1707V24.9268H258.82V23.1707H260.576ZM262.332 23.1707V24.9268H260.576V23.1707H262.332ZM264.088 23.1707V24.9268H262.332V23.1707H264.088ZM264.088 21.4146V23.1707H262.332V21.4146H264.088ZM264.088 19.6585V21.4146H262.332V19.6585H264.088ZM262.332 19.6585V21.4146H260.576V19.6585H262.332ZM260.576 19.6585V21.4146H258.82V19.6585H260.576ZM258.82 19.6585V21.4146H257.064V19.6585H258.82ZM258.82 21.4146V23.1707H257.064V21.4146H258.82ZM257.064 21.4146V23.1707H255.308V21.4146H257.064ZM260.576 21.4146V23.1707H258.82V21.4146H260.576ZM262.332 21.4146V23.1707H260.576V21.4146H262.332ZM257.064 19.6585V21.4146H255.308V19.6585H257.064ZM255.308 19.6585V21.4146H253.551V19.6585H255.308ZM255.308 17.9024V19.6585H253.551V17.9024H255.308ZM257.064 17.9024V19.6585H255.308V17.9024H257.064ZM258.82 17.9024V19.6585H257.064V17.9024H258.82ZM260.576 17.9024V19.6585H258.82V17.9024H260.576ZM262.332 17.9024V19.6585H260.576V17.9024H262.332ZM262.332 16.1463V17.9024H260.576V16.1463H262.332ZM260.576 16.1463V17.9024H258.82V16.1463H260.576ZM258.82 16.1463V17.9024H257.064V16.1463H258.82ZM257.064 16.1463V17.9024H255.308V16.1463H257.064ZM255.308 16.1463V17.9024H253.551V16.1463H255.308ZM258.82 14.3902V16.1463H257.064V14.3902H258.82ZM260.576 14.3902V16.1463H258.82V14.3902H260.576ZM257.064 14.3902V16.1463H255.308V14.3902H257.064ZM257.064 12.6341V14.3902H255.308V12.6341H257.064ZM255.308 12.6341V14.3902H253.551V12.6341H255.308ZM255.308 14.3902V16.1463H253.551V14.3902H255.308ZM253.551 14.3902V16.1463H251.795V14.3902H253.551ZM253.551 12.6341V14.3902H251.795V12.6341H253.551ZM253.551 16.1463V17.9024H251.795V16.1463H253.551ZM251.795 16.1463V17.9024H250.039V16.1463H251.795ZM251.795 17.9024V19.6585H250.039V17.9024H251.795ZM253.551 17.9024V19.6585H251.795V17.9024H253.551ZM250.039 17.9024V19.6585H248.283V17.9024H250.039ZM250.039 16.1463V17.9024H248.283V16.1463H250.039ZM250.039 14.3902V16.1463H248.283V14.3902H250.039ZM250.039 12.6341V14.3902H248.283V12.6341H250.039ZM251.795 12.6341V14.3902H250.039V12.6341H251.795ZM251.795 14.3902V16.1463H250.039V14.3902H251.795ZM248.283 12.6341V14.3902H246.527V12.6341H248.283ZM246.527 12.6341V14.3902H244.771V12.6341H246.527ZM244.771 12.6341V14.3902H243.015V12.6341H244.771ZM244.771 14.3902V16.1463H243.015V14.3902H244.771ZM244.771 16.1463V17.9024H243.015V16.1463H244.771ZM244.771 17.9024V19.6585H243.015V17.9024H244.771ZM246.527 17.9024V19.6585H244.771V17.9024H246.527ZM248.283 17.9024V19.6585H246.527V17.9024H248.283ZM248.283 16.1463V17.9024H246.527V16.1463H248.283ZM248.283 14.3902V16.1463H246.527V14.3902H248.283ZM246.527 14.3902V16.1463H244.771V14.3902H246.527ZM246.527 16.1463V17.9024H244.771V16.1463H246.527ZM243.015 16.1463V17.9024H241.259V16.1463H243.015ZM243.015 14.3902V16.1463H241.259V14.3902H243.015ZM241.259 14.3902V16.1463H239.503V14.3902H241.259ZM241.259 16.1463V17.9024H239.503V16.1463H241.259ZM239.503 16.1463V17.9024H237.747V16.1463H239.503ZM239.503 17.9024V19.6585H237.747V17.9024H239.503ZM239.503 19.6585V21.4146H237.747V19.6585H239.503ZM241.259 19.6585V21.4146H239.503V19.6585H241.259ZM241.259 17.9024V19.6585H239.503V17.9024H241.259ZM243.015 17.9024V19.6585H241.259V17.9024H243.015ZM243.015 19.6585V21.4146H241.259V19.6585H243.015ZM244.771 19.6585V21.4146H243.015V19.6585H244.771ZM246.527 19.6585V21.4146H244.771V19.6585H246.527ZM237.747 19.6585V21.4146H235.99V19.6585H237.747ZM237.747 21.4146V23.1707H235.99V21.4146H237.747ZM237.747 23.1707V24.9268H235.99V23.1707H237.747ZM237.747 24.9268V26.6829H235.99V24.9268H237.747ZM237.747 26.6829V28.439H235.99V26.6829H237.747ZM237.747 28.439V30.1951H235.99V28.439H237.747ZM237.747 30.1951V31.9512H235.99V30.1951H237.747ZM237.747 31.9512V33.7073H235.99V31.9512H237.747ZM237.747 33.7073V35.4634H235.99V33.7073H237.747ZM237.747 35.4634V37.2195H235.99V35.4634H237.747ZM239.503 35.4634V37.2195H237.747V35.4634H239.503ZM239.503 37.2195V38.9756H237.747V37.2195H239.503ZM237.747 37.2195V38.9756H235.99V37.2195H237.747ZM241.259 37.2195V38.9756H239.503V37.2195H241.259ZM243.015 37.2195V38.9756H241.259V37.2195H243.015ZM244.771 37.2195V38.9756H243.015V37.2195H244.771ZM246.527 37.2195V38.9756H244.771V37.2195H246.527ZM244.771 35.4634V37.2195H243.015V35.4634H244.771ZM244.771 33.7073V35.4634H243.015V33.7073H244.771ZM244.771 31.9512V33.7073H243.015V31.9512H244.771ZM244.771 30.1951V31.9512H243.015V30.1951H244.771ZM244.771 28.439V30.1951H243.015V28.439H244.771ZM244.771 26.6829V28.439H243.015V26.6829H244.771ZM244.771 24.9268V26.6829H243.015V24.9268H244.771ZM244.771 23.1707V24.9268H243.015V23.1707H244.771ZM244.771 21.4146V23.1707H243.015V21.4146H244.771ZM243.015 21.4146V23.1707H241.259V21.4146H243.015ZM241.259 21.4146V23.1707H239.503V21.4146H241.259ZM239.503 21.4146V23.1707H237.747V21.4146H239.503ZM239.503 23.1707V24.9268H237.747V23.1707H239.503ZM239.503 24.9268V26.6829H237.747V24.9268H239.503ZM239.503 26.6829V28.439H237.747V26.6829H239.503ZM239.503 28.439V30.1951H237.747V28.439H239.503ZM239.503 30.1951V31.9512H237.747V30.1951H239.503ZM239.503 31.9512V33.7073H237.747V31.9512H239.503ZM239.503 33.7073V35.4634H237.747V33.7073H239.503ZM241.259 35.4634V37.2195H239.503V35.4634H241.259ZM243.015 35.4634V37.2195H241.259V35.4634H243.015ZM243.015 33.7073V35.4634H241.259V33.7073H243.015ZM243.015 31.9512V33.7073H241.259V31.9512H243.015ZM243.015 30.1951V31.9512H241.259V30.1951H243.015ZM243.015 28.439V30.1951H241.259V28.439H243.015ZM241.259 28.439V30.1951H239.503V28.439H241.259ZM241.259 26.6829V28.439H239.503V26.6829H241.259ZM241.259 24.9268V26.6829H239.503V24.9268H241.259ZM241.259 23.1707V24.9268H239.503V23.1707H241.259ZM243.015 23.1707V24.9268H241.259V23.1707H243.015ZM243.015 24.9268V26.6829H241.259V24.9268H243.015ZM243.015 26.6829V28.439H241.259V26.6829H243.015ZM241.259 31.9512V33.7073H239.503V31.9512H241.259ZM241.259 33.7073V35.4634H239.503V33.7073H241.259ZM241.259 30.1951V31.9512H239.503V30.1951H241.259ZM257.064 35.4634V37.2195H255.308V35.4634H257.064ZM258.82 35.4634V37.2195H257.064V35.4634H258.82ZM260.576 35.4634V37.2195H258.82V35.4634H260.576ZM262.332 35.4634V37.2195H260.576V35.4634H262.332ZM264.088 35.4634V37.2195H262.332V35.4634H264.088ZM264.088 37.2195V38.9756H262.332V37.2195H264.088ZM262.332 37.2195V38.9756H260.576V37.2195H262.332ZM260.576 37.2195V38.9756H258.82V37.2195H260.576ZM258.82 37.2195V38.9756H257.064V37.2195H258.82ZM257.064 37.2195V38.9756H255.308V37.2195H257.064ZM255.308 37.2195V38.9756H253.551V37.2195H255.308ZM255.308 38.9756V40.7317H253.551V38.9756H255.308ZM257.064 38.9756V40.7317H255.308V38.9756H257.064ZM258.82 38.9756V40.7317H257.064V38.9756H258.82ZM260.576 38.9756V40.7317H258.82V38.9756H260.576ZM260.576 40.7317V42.4878H258.82V40.7317H260.576ZM262.332 40.7317V42.4878H260.576V40.7317H262.332ZM262.332 38.9756V40.7317H260.576V38.9756H262.332ZM260.576 42.4878V44.2439H258.82V42.4878H260.576ZM258.82 42.4878V44.2439H257.064V42.4878H258.82ZM258.82 40.7317V42.4878H257.064V40.7317H258.82ZM257.064 40.7317V42.4878H255.308V40.7317H257.064ZM257.064 42.4878V44.2439H255.308V42.4878H257.064ZM257.064 44.2439V46H255.308V44.2439H257.064ZM255.308 44.2439V46H253.551V44.2439H255.308ZM253.551 44.2439V46H251.795V44.2439H253.551ZM251.795 44.2439V46H250.039V44.2439H251.795ZM250.039 44.2439V46H248.283V44.2439H250.039ZM248.283 44.2439V46H246.527V44.2439H248.283ZM246.527 44.2439V46H244.771V44.2439H246.527ZM244.771 44.2439V46H243.015V44.2439H244.771ZM246.527 42.4878V44.2439H244.771V42.4878H246.527ZM248.283 42.4878V44.2439H246.527V42.4878H248.283ZM250.039 42.4878V44.2439H248.283V42.4878H250.039ZM251.795 42.4878V44.2439H250.039V42.4878H251.795ZM253.551 42.4878V44.2439H251.795V42.4878H253.551ZM255.308 42.4878V44.2439H253.551V42.4878H255.308ZM255.308 40.7317V42.4878H253.551V40.7317H255.308ZM253.551 40.7317V42.4878H251.795V40.7317H253.551ZM251.795 40.7317V42.4878H250.039V40.7317H251.795ZM250.039 40.7317V42.4878H248.283V40.7317H250.039ZM248.283 40.7317V42.4878H246.527V40.7317H248.283ZM246.527 40.7317V42.4878H244.771V40.7317H246.527ZM244.771 42.4878V44.2439H243.015V42.4878H244.771ZM243.015 42.4878V44.2439H241.259V42.4878H243.015ZM241.259 42.4878V44.2439H239.503V42.4878H241.259ZM241.259 40.7317V42.4878H239.503V40.7317H241.259ZM239.503 40.7317V42.4878H237.747V40.7317H239.503ZM239.503 38.9756V40.7317H237.747V38.9756H239.503ZM241.259 38.9756V40.7317H239.503V38.9756H241.259ZM243.015 38.9756V40.7317H241.259V38.9756H243.015ZM244.771 38.9756V40.7317H243.015V38.9756H244.771ZM246.527 38.9756V40.7317H244.771V38.9756H246.527ZM248.283 38.9756V40.7317H246.527V38.9756H248.283ZM250.039 38.9756V40.7317H248.283V38.9756H250.039ZM251.795 38.9756V40.7317H250.039V38.9756H251.795ZM253.551 38.9756V40.7317H251.795V38.9756H253.551ZM244.771 40.7317V42.4878H243.015V40.7317H244.771ZM243.015 40.7317V42.4878H241.259V40.7317H243.015ZM264.088 24.9268V26.6829H262.332V24.9268H264.088ZM262.332 24.9268V26.6829H260.576V24.9268H262.332ZM260.576 24.9268V26.6829H258.82V24.9268H260.576ZM258.82 24.9268V26.6829H257.064V24.9268H258.82ZM257.064 24.9268V26.6829H255.308V24.9268H257.064ZM264.088 26.6829V28.439H262.332V26.6829H264.088ZM260.576 26.6829V28.439H258.82V26.6829H260.576ZM258.82 26.6829V28.439H257.064V26.6829H258.82ZM255.308 26.6829V28.439H253.551V26.6829H255.308ZM253.551 26.6829V28.439H251.795V26.6829H253.551ZM251.795 26.6829V28.439H250.039V26.6829H251.795ZM250.039 26.6829V28.439H248.283V26.6829H250.039ZM248.283 26.6829V28.439H246.527V26.6829H248.283ZM246.527 26.6829V28.439H244.771V26.6829H246.527ZM257.064 26.6829V28.439H255.308V26.6829H257.064ZM262.332 26.6829V28.439H260.576V26.6829H262.332ZM264.088 28.439V30.1951H262.332V28.439H264.088ZM262.332 28.439V30.1951H260.576V28.439H262.332ZM260.576 28.439V30.1951H258.82V28.439H260.576ZM258.82 28.439V30.1951H257.064V28.439H258.82ZM257.064 28.439V30.1951H255.308V28.439H257.064ZM255.308 28.439V30.1951H253.551V28.439H255.308ZM253.551 28.439V30.1951H251.795V28.439H253.551ZM251.795 28.439V30.1951H250.039V28.439H251.795ZM250.039 28.439V30.1951H248.283V28.439H250.039ZM248.283 28.439V30.1951H246.527V28.439H248.283ZM246.527 28.439V30.1951H244.771V28.439H246.527ZM246.527 30.1951V31.9512H244.771V30.1951H246.527ZM248.283 30.1951V31.9512H246.527V30.1951H248.283ZM250.039 30.1951V31.9512H248.283V30.1951H250.039ZM253.551 30.1951V31.9512H251.795V30.1951H253.551ZM255.308 30.1951V31.9512H253.551V30.1951H255.308ZM257.064 30.1951V31.9512H255.308V30.1951H257.064ZM258.82 30.1951V31.9512H257.064V30.1951H258.82ZM260.576 30.1951V31.9512H258.82V30.1951H260.576ZM262.332 30.1951V31.9512H260.576V30.1951H262.332ZM264.088 30.1951V31.9512H262.332V30.1951H264.088ZM251.795 30.1951V31.9512H250.039V30.1951H251.795Z" fill="#05050A"/>
</g>
<defs>
<clipPath id="clip0_3675_4954">
<rect width="288" height="50" fill="white"/>
</clipPath>
</defs>
</svg>
